SyriacProto-Regular.ufo
<glyph name="exclam" format="2">
  <advance width="549"/>
  <unicode hex="0021"/>
  <note>
exclam
</note>
  <outline>
    <contour>
      <point x="274" y="437" type="curve" smooth="yes"/>
      <point x="300" y="437"/>
      <point x="314" y="456"/>
      <point x="316" y="495" type="curve" smooth="yes"/>
      <point x="354" y="1173" type="line"/>
      <point x="355" y="1207" type="line" smooth="yes"/>
      <point x="356" y="1254"/>
      <point x="321" y="1288"/>
      <point x="274" y="1288" type="curve" smooth="yes"/>
      <point x="227" y="1288"/>
      <point x="192" y="1253"/>
      <point x="192" y="1208" type="curve" smooth="yes"/>
      <point x="194" y="1173" type="line"/>
      <point x="231" y="495" type="line" smooth="yes"/>
      <point x="233" y="456"/>
      <point x="247" y="437"/>
    </contour>
    <contour>
      <point x="254" y="-27" type="curve" smooth="yes"/>
      <point x="293" y="-27" type="line" smooth="yes"/>
      <point x="350" y="-27"/>
      <point x="397" y="20"/>
      <point x="397" y="77" type="curve" smooth="yes"/>
      <point x="397" y="134"/>
      <point x="350" y="181"/>
      <point x="293" y="181" type="curve" smooth="yes"/>
      <point x="254" y="181" type="line" smooth="yes"/>
      <point x="195" y="181"/>
      <point x="150" y="135"/>
      <point x="150" y="76" type="curve" smooth="yes"/>
      <point x="150" y="19"/>
      <point x="197" y="-27"/>
    </contour>
  </outline>
</glyph>
<glyph name="quotedbl" format="2">
  <advance width="256"/>
  <unicode hex="0022"/>
  <note>
quotedbl
</note>
  <outline>
    <contour>
      <point x="204" y="971" type="curve" smooth="yes"/>
      <point x="215" y="971"/>
      <point x="221" y="979"/>
      <point x="224" y="994" type="curve" smooth="yes"/>
      <point x="246" y="1151" type="line"/>
      <point x="160" y="1151" type="line"/>
      <point x="183" y="994" type="line" smooth="yes"/>
      <point x="185" y="979"/>
      <point x="192" y="971"/>
    </contour>
    <contour>
      <point x="64" y="971" type="curve" smooth="yes"/>
      <point x="76" y="971"/>
      <point x="83" y="979"/>
      <point x="85" y="994" type="curve" smooth="yes"/>
      <point x="107" y="1151" type="line"/>
      <point x="21" y="1151" type="line"/>
      <point x="44" y="994" type="line" smooth="yes"/>
      <point x="46" y="979"/>
      <point x="53" y="971"/>
    </contour>
  </outline>
</glyph>
<glyph name="numbersign" format="2">
  <advance width="1090"/>
  <unicode hex="0023"/>
  <note>
numbersign
</note>
  <outline>
    <contour>
      <point x="373" y="48" type="line"/>
      <point x="502" y="48" type="line"/>
      <point x="546" y="269" type="line"/>
      <point x="672" y="269" type="line"/>
      <point x="629" y="48" type="line"/>
      <point x="755" y="48" type="line"/>
      <point x="800" y="269" type="line"/>
      <point x="963" y="269" type="line"/>
      <point x="963" y="394" type="line"/>
      <point x="825" y="394" type="line"/>
      <point x="859" y="561" type="line"/>
      <point x="963" y="561" type="line"/>
      <point x="963" y="686" type="line"/>
      <point x="885" y="686" type="line"/>
      <point x="930" y="907" type="line"/>
      <point x="799" y="907" type="line"/>
      <point x="755" y="686" type="line"/>
      <point x="630" y="686" type="line"/>
      <point x="675" y="907" type="line"/>
      <point x="548" y="907" type="line"/>
      <point x="503" y="686" type="line"/>
      <point x="341" y="686" type="line"/>
      <point x="341" y="561" type="line"/>
      <point x="477" y="561" type="line"/>
      <point x="443" y="394" type="line"/>
      <point x="341" y="394" type="line"/>
      <point x="341" y="269" type="line"/>
      <point x="418" y="269" type="line"/>
    </contour>
    <contour>
      <point x="571" y="394" type="line"/>
      <point x="605" y="561" type="line"/>
      <point x="730" y="561" type="line"/>
      <point x="697" y="394" type="line"/>
    </contour>
  </outline>
</glyph>
<glyph name="dollar" format="2">
  <advance width="985"/>
  <unicode hex="0024"/>
  <note>
dollar
</note>
  <outline>
    <contour>
      <point x="539" y="-77" type="line"/>
      <point x="621" y="-77" type="line"/>
      <point x="621" y="29" type="line"/>
      <point x="764" y="50"/>
      <point x="856" y="147"/>
      <point x="856" y="288" type="curve" smooth="yes"/>
      <point x="856" y="360"/>
      <point x="834" y="416"/>
      <point x="790" y="456" type="curve" smooth="yes"/>
      <point x="755" y="487"/>
      <point x="698" y="513"/>
      <point x="621" y="534" type="curve"/>
      <point x="621" y="756" type="line"/>
      <point x="658" y="740"/>
      <point x="680" y="710"/>
      <point x="689" y="665" type="curve"/>
      <point x="833" y="684" type="line"/>
      <point x="812" y="801"/>
      <point x="742" y="867"/>
      <point x="621" y="881" type="curve"/>
      <point x="621" y="938" type="line"/>
      <point x="539" y="938" type="line"/>
      <point x="539" y="881" type="line"/>
      <point x="411" y="869"/>
      <point x="324" y="780"/>
      <point x="324" y="652" type="curve" smooth="yes"/>
      <point x="324" y="525"/>
      <point x="396" y="441"/>
      <point x="539" y="400" type="curve"/>
      <point x="539" y="162" type="line"/>
      <point x="492" y="185"/>
      <point x="462" y="227"/>
      <point x="449" y="288" type="curve"/>
      <point x="301" y="272" type="line"/>
      <point x="324" y="125"/>
      <point x="403" y="43"/>
      <point x="539" y="26" type="curve"/>
    </contour>
    <contour>
      <point x="621" y="155" type="curve"/>
      <point x="621" y="376" type="line"/>
      <point x="685" y="357"/>
      <point x="717" y="321"/>
      <point x="717" y="268" type="curve" smooth="yes"/>
      <point x="717" y="204"/>
      <point x="685" y="166"/>
    </contour>
    <contour>
      <point x="539" y="562" type="line"/>
      <point x="490" y="583"/>
      <point x="466" y="615"/>
      <point x="466" y="659" type="curve" smooth="yes"/>
      <point x="466" y="708"/>
      <point x="490" y="741"/>
      <point x="539" y="758" type="curve"/>
    </contour>
  </outline>
</glyph>
<glyph name="percent" format="2">
  <advance width="1348"/>
  <unicode hex="0025"/>
  <note>
percent
</note>
  <outline>
    <contour>
      <point x="495" y="47" type="line"/>
      <point x="613" y="47" type="line"/>
      <point x="1053" y="924" type="line"/>
      <point x="938" y="924" type="line"/>
    </contour>
    <contour>
      <point x="495" y="486" type="curve" smooth="yes"/>
      <point x="616" y="486"/>
      <point x="677" y="559"/>
      <point x="677" y="705" type="curve" smooth="yes"/>
      <point x="677" y="851"/>
      <point x="615" y="924"/>
      <point x="492" y="924" type="curve" smooth="yes"/>
      <point x="371" y="924"/>
      <point x="310" y="851"/>
      <point x="310" y="705" type="curve" smooth="yes"/>
      <point x="310" y="559"/>
      <point x="372" y="486"/>
    </contour>
    <contour>
      <point x="492" y="577" type="curve" smooth="yes"/>
      <point x="453" y="577"/>
      <point x="434" y="620"/>
      <point x="434" y="706" type="curve" smooth="yes"/>
      <point x="434" y="792"/>
      <point x="453" y="835"/>
      <point x="492" y="835" type="curve" smooth="yes"/>
      <point x="531" y="835"/>
      <point x="550" y="792"/>
      <point x="550" y="706" type="curve" smooth="yes"/>
      <point x="550" y="620"/>
      <point x="531" y="577"/>
    </contour>
    <contour>
      <point x="1056" y="46" type="curve" smooth="yes"/>
      <point x="1177" y="46"/>
      <point x="1238" y="119"/>
      <point x="1238" y="266" type="curve" smooth="yes"/>
      <point x="1238" y="412"/>
      <point x="1177" y="485"/>
      <point x="1054" y="485" type="curve" smooth="yes"/>
      <point x="932" y="485"/>
      <point x="871" y="412"/>
      <point x="871" y="266" type="curve" smooth="yes"/>
      <point x="871" y="119"/>
      <point x="933" y="46"/>
    </contour>
    <contour>
      <point x="1053" y="137" type="curve" smooth="yes"/>
      <point x="1014" y="137"/>
      <point x="995" y="180"/>
      <point x="995" y="266" type="curve" smooth="yes"/>
      <point x="995" y="352"/>
      <point x="1014" y="395"/>
      <point x="1053" y="395" type="curve" smooth="yes"/>
      <point x="1092" y="395"/>
      <point x="1111" y="352"/>
      <point x="1111" y="266" type="curve" smooth="yes"/>
      <point x="1111" y="180"/>
      <point x="1092" y="137"/>
    </contour>
  </outline>
</glyph>
<glyph name="parenleft" format="2">
  <advance width="650"/>
  <unicode hex="0028"/>
  <note>
parenleft
</note>
  <outline>
    <contour>
      <point x="395" y="-15" type="curve"/>
      <point x="504" y="-15" type="line"/>
      <point x="471" y="58"/>
      <point x="447" y="113"/>
      <point x="434" y="151" type="curve" smooth="yes"/>
      <point x="391" y="277"/>
      <point x="370" y="402"/>
      <point x="370" y="527" type="curve" smooth="yes"/>
      <point x="370" y="692"/>
      <point x="415" y="874"/>
      <point x="506" y="1075" type="curve"/>
      <point x="397" y="1075" type="line"/>
      <point x="277" y="904"/>
      <point x="217" y="722"/>
      <point x="217" y="531" type="curve" smooth="yes"/>
      <point x="217" y="346"/>
      <point x="276" y="164"/>
    </contour>
  </outline>
</glyph>
<glyph name="parenright" format="2">
  <advance width="646"/>
  <unicode hex="0029"/>
  <note>
parenright
</note>
  <outline>
    <contour>
      <point x="178" y="-15" type="curve"/>
      <point x="288" y="-15" type="line"/>
      <point x="407" y="164"/>
      <point x="466" y="349"/>
      <point x="466" y="539" type="curve" smooth="yes"/>
      <point x="466" y="725"/>
      <point x="406" y="904"/>
      <point x="285" y="1075" type="curve"/>
      <point x="177" y="1075" type="line"/>
      <point x="268" y="875"/>
      <point x="313" y="692"/>
      <point x="313" y="527" type="curve" smooth="yes"/>
      <point x="313" y="444"/>
      <point x="302" y="356"/>
      <point x="280" y="264" type="curve" smooth="yes"/>
      <point x="261" y="184"/>
      <point x="227" y="91"/>
    </contour>
  </outline>
</glyph>
<glyph name="asterisk" format="2">
  <advance width="960"/>
  <unicode hex="002A"/>
  <note>
asterisk
</note>
  <outline>
    <contour>
      <point x="578" y="18" type="curve"/>
      <point x="613" y="22"/>
      <point x="631" y="41"/>
      <point x="631" y="74" type="curve"/>
      <point x="620" y="111" type="line"/>
      <point x="613" y="126"/>
      <point x="608" y="143"/>
      <point x="605" y="161" type="curve"/>
      <point x="623" y="170" type="line"/>
      <point x="642" y="184" type="line"/>
      <point x="701" y="124" type="line"/>
      <point x="715" y="115"/>
      <point x="727" y="110"/>
      <point x="736" y="110" type="curve"/>
      <point x="769" y="115"/>
      <point x="786" y="131"/>
      <point x="786" y="159" type="curve" smooth="yes"/>
      <point x="786" y="183"/>
      <point x="775" y="199"/>
      <point x="752" y="207" type="curve"/>
      <point x="668" y="227" type="line"/>
      <point x="671" y="249" type="line"/>
      <point x="668" y="271" type="line"/>
      <point x="735" y="289" type="line" smooth="yes"/>
      <point x="768" y="298"/>
      <point x="784" y="316"/>
      <point x="784" y="342" type="curve" smooth="yes"/>
      <point x="784" y="377"/>
      <point x="768" y="394"/>
      <point x="735" y="394" type="curve"/>
      <point x="722" y="392"/>
      <point x="707" y="383"/>
      <point x="691" y="368" type="curve" smooth="yes"/>
      <point x="640" y="317" type="line"/>
      <point x="630" y="325"/>
      <point x="618" y="331"/>
      <point x="605" y="334" type="curve"/>
      <point x="622" y="388" type="line"/>
      <point x="631" y="427" type="line"/>
      <point x="626" y="462"/>
      <point x="610" y="480"/>
      <point x="583" y="480" type="curve"/>
      <point x="552" y="473" type="line"/>
      <point x="537" y="465"/>
      <point x="530" y="450"/>
      <point x="530" y="427" type="curve" smooth="yes"/>
      <point x="530" y="420"/>
      <point x="537" y="393"/>
      <point x="551" y="346" type="curve"/>
      <point x="551" y="342"/>
      <point x="551" y="339"/>
      <point x="552" y="336" type="curve"/>
      <point x="535" y="329" type="line"/>
      <point x="516" y="315" type="line"/>
      <point x="476" y="357" type="line" smooth="yes"/>
      <point x="455" y="379"/>
      <point x="437" y="390"/>
      <point x="420" y="390" type="curve" smooth="yes"/>
      <point x="389" y="390"/>
      <point x="374" y="374"/>
      <point x="374" y="342" type="curve" smooth="yes"/>
      <point x="374" y="319"/>
      <point x="386" y="303"/>
      <point x="410" y="295" type="curve" smooth="yes"/>
      <point x="492" y="269" type="line"/>
      <point x="490" y="249" type="line"/>
      <point x="492" y="230" type="line"/>
      <point x="424" y="212" type="line"/>
      <point x="391" y="199"/>
      <point x="374" y="181"/>
      <point x="374" y="158" type="curve"/>
      <point x="376" y="143"/>
      <point x="380" y="132"/>
      <point x="385" y="124" type="curve"/>
      <point x="393" y="115"/>
      <point x="405" y="110"/>
      <point x="422" y="110" type="curve" smooth="yes"/>
      <point x="435" y="110"/>
      <point x="445" y="113"/>
      <point x="453" y="119" type="curve"/>
      <point x="495" y="159" type="line"/>
      <point x="502" y="170"/>
      <point x="509" y="177"/>
      <point x="516" y="182" type="curve"/>
      <point x="529" y="173"/>
      <point x="542" y="167"/>
      <point x="555" y="164" type="curve"/>
      <point x="538" y="111" type="line" smooth="yes"/>
      <point x="533" y="95"/>
      <point x="530" y="82"/>
      <point x="530" y="71" type="curve" smooth="yes"/>
      <point x="530" y="36"/>
      <point x="546" y="18"/>
    </contour>
    <contour>
      <point x="581" y="213" type="curve" smooth="yes"/>
      <point x="558" y="213"/>
      <point x="547" y="224"/>
      <point x="547" y="247" type="curve" smooth="yes"/>
      <point x="547" y="272"/>
      <point x="558" y="285"/>
      <point x="581" y="285" type="curve" smooth="yes"/>
      <point x="605" y="285"/>
      <point x="617" y="273"/>
      <point x="617" y="250" type="curve" smooth="yes"/>
      <point x="617" y="225"/>
      <point x="605" y="213"/>
    </contour>
  </outline>
</glyph>
<glyph name="plus" format="2">
  <advance width="911"/>
  <unicode hex="002B"/>
  <note>
plus
</note>
  <outline>
    <contour>
      <point x="402" y="72" type="line"/>
      <point x="547" y="72" type="line"/>
      <point x="547" y="320" type="line"/>
      <point x="789" y="320" type="line"/>
      <point x="789" y="469" type="line"/>
      <point x="547" y="469" type="line"/>
      <point x="547" y="710" type="line"/>
      <point x="402" y="710" type="line"/>
      <point x="402" y="469" type="line"/>
      <point x="150" y="469" type="line"/>
      <point x="150" y="320" type="line"/>
      <point x="402" y="320" type="line"/>
    </contour>
  </outline>
</glyph>
<glyph name="comma" format="2">
  <advance width="301"/>
  <unicode hex="002C"/>
  <note>
comma
</note>
  <outline>
    <contour>
      <point x="106" y="28" type="curve"/>
      <point x="194" y="96"/>
      <point x="238" y="174"/>
      <point x="238" y="261" type="curve" smooth="yes"/>
      <point x="238" y="319"/>
      <point x="213" y="348"/>
      <point x="164" y="348" type="curve" smooth="yes"/>
      <point x="125" y="348"/>
      <point x="94" y="315"/>
      <point x="94" y="276" type="curve" smooth="yes"/>
      <point x="94" y="237"/>
      <point x="112" y="212"/>
      <point x="147" y="203" type="curve"/>
      <point x="147" y="170"/>
      <point x="127" y="143"/>
      <point x="87" y="124" type="curve"/>
      <point x="100" y="116"/>
      <point x="106" y="84"/>
    </contour>
  </outline>
</glyph>
<glyph name="hyphen" format="2">
  <advance width="884"/>
  <unicode hex="002D"/>
  <note>
hyphen
</note>
  <outline>
    <contour>
      <point x="223" y="322" type="line"/>
      <point x="705" y="322" type="line"/>
      <point x="705" y="469" type="line"/>
      <point x="223" y="469" type="line"/>
    </contour>
  </outline>
</glyph>
<glyph name="period" format="2">
  <advance width="404"/>
  <unicode hex="002E"/>
  <outline>
    <contour>
      <point x="61" y="9" type="line"/>
      <point x="256" y="9" type="line"/>
      <point x="256" y="204" type="line"/>
      <point x="61" y="204" type="line"/>
    </contour>
  </outline>
</glyph>
<glyph name="slash" format="2">
  <advance width="604"/>
  <unicode hex="002F"/>
  <outline>
    <contour>
      <point x="176" y="53" type="line"/>
      <point x="293" y="53" type="line"/>
      <point x="502" y="912" type="line"/>
      <point x="382" y="912" type="line"/>
    </contour>
  </outline>
</glyph>
<glyph name="zero" format="2">
  <advance width="872"/>
  <unicode hex="0030"/>
  <note>
zero
</note>
  <outline>
    <contour>
      <point x="451" y="48" type="curve" smooth="yes"/>
      <point x="631" y="48"/>
      <point x="721" y="189"/>
      <point x="721" y="472" type="curve" smooth="yes"/>
      <point x="721" y="755"/>
      <point x="631" y="897"/>
      <point x="451" y="897" type="curve" smooth="yes"/>
      <point x="271" y="897"/>
      <point x="181" y="756"/>
      <point x="181" y="474" type="curve" smooth="yes"/>
      <point x="181" y="190"/>
      <point x="271" y="48"/>
    </contour>
    <contour>
      <point x="451" y="180" type="curve" smooth="yes"/>
      <point x="432" y="180"/>
      <point x="415" y="186"/>
      <point x="400" y="198" type="curve" smooth="yes"/>
      <point x="365" y="226"/>
      <point x="348" y="317"/>
      <point x="348" y="472" type="curve" smooth="yes"/>
      <point x="348" y="569"/>
      <point x="353" y="639"/>
      <point x="364" y="680" type="curve" smooth="yes"/>
      <point x="379" y="736"/>
      <point x="408" y="764"/>
      <point x="451" y="764" type="curve" smooth="yes"/>
      <point x="470" y="764"/>
      <point x="488" y="758"/>
      <point x="503" y="746" type="curve" smooth="yes"/>
      <point x="537" y="717"/>
      <point x="554" y="626"/>
      <point x="554" y="472" type="curve" smooth="yes"/>
      <point x="554" y="375"/>
      <point x="549" y="305"/>
      <point x="538" y="264" type="curve" smooth="yes"/>
      <point x="523" y="208"/>
      <point x="494" y="180"/>
    </contour>
  </outline>
</glyph>
<glyph name="one" format="2">
  <advance width="734"/>
  <unicode hex="0031"/>
  <note>
one
</note>
  <outline>
    <contour>
      <point x="379" y="47" type="line"/>
      <point x="539" y="47" type="line"/>
      <point x="539" y="882" type="line"/>
      <point x="409" y="882" type="line"/>
      <point x="393" y="836"/>
      <point x="361" y="793"/>
      <point x="314" y="752" type="curve" smooth="yes"/>
      <point x="270" y="715"/>
      <point x="223" y="688"/>
      <point x="174" y="671" type="curve"/>
      <point x="174" y="527" type="line"/>
      <point x="253" y="553"/>
      <point x="321" y="593"/>
      <point x="379" y="647" type="curve"/>
    </contour>
  </outline>
</glyph>
<glyph name="four" format="2">
  <advance width="892"/>
  <unicode hex="0034"/>
  <outline>
    <contour>
      <point x="526" y="46" type="line"/>
      <point x="680" y="46" type="line"/>
      <point x="680" y="213" type="line"/>
      <point x="783" y="213" type="line"/>
      <point x="783" y="353" type="line"/>
      <point x="680" y="353" type="line"/>
      <point x="680" y="881" type="line"/>
      <point x="546" y="881" type="line"/>
      <point x="185" y="353" type="line"/>
      <point x="185" y="213" type="line"/>
      <point x="526" y="213" type="line"/>
    </contour>
    <contour>
      <point x="335" y="353" type="line"/>
      <point x="526" y="637" type="line"/>
      <point x="526" y="353" type="line"/>
    </contour>
  </outline>
</glyph>
<glyph name="five" format="2">
  <advance width="888"/>
  <unicode hex="0035"/>
  <note>
five
</note>
  <outline>
    <contour>
      <point x="463" y="40" type="curve" smooth="yes"/>
      <point x="559" y="40"/>
      <point x="634" y="77"/>
      <point x="688" y="150" type="curve" smooth="yes"/>
      <point x="728" y="203"/>
      <point x="748" y="264"/>
      <point x="748" y="333" type="curve" smooth="yes"/>
      <point x="748" y="410"/>
      <point x="725" y="474"/>
      <point x="680" y="527" type="curve" smooth="yes"/>
      <point x="632" y="582"/>
      <point x="570" y="610"/>
      <point x="494" y="610" type="curve" smooth="yes"/>
      <point x="457" y="610"/>
      <point x="421" y="601"/>
      <point x="386" y="583" type="curve"/>
      <point x="411" y="725" type="line"/>
      <point x="711" y="725" type="line"/>
      <point x="711" y="874" type="line"/>
      <point x="290" y="874" type="line"/>
      <point x="208" y="441" type="line"/>
      <point x="337" y="422" type="line"/>
      <point x="374" y="463"/>
      <point x="415" y="483"/>
      <point x="460" y="483" type="curve" smooth="yes"/>
      <point x="543" y="483"/>
      <point x="584" y="432"/>
      <point x="584" y="330" type="curve" smooth="yes"/>
      <point x="584" y="221"/>
      <point x="544" y="167"/>
      <point x="465" y="167" type="curve" smooth="yes"/>
      <point x="396" y="167"/>
      <point x="357" y="206"/>
      <point x="348" y="284" type="curve"/>
      <point x="189" y="268" type="line"/>
      <point x="209" y="123"/>
      <point x="315" y="40"/>
    </contour>
  </outline>
</glyph>
<glyph name="six" format="2">
  <advance width="850"/>
  <unicode hex="0036"/>
  <note>
six
</note>
  <outline>
    <contour>
      <point x="474" y="47" type="curve" smooth="yes"/>
      <point x="555" y="47"/>
      <point x="621" y="74"/>
      <point x="670" y="128" type="curve" smooth="yes"/>
      <point x="717" y="179"/>
      <point x="741" y="246"/>
      <point x="741" y="329" type="curve" smooth="yes"/>
      <point x="741" y="403"/>
      <point x="720" y="466"/>
      <point x="677" y="518" type="curve" smooth="yes"/>
      <point x="631" y="573"/>
      <point x="572" y="601"/>
      <point x="499" y="601" type="curve" smooth="yes"/>
      <point x="440" y="601"/>
      <point x="391" y="578"/>
      <point x="351" y="531" type="curve"/>
      <point x="361" y="687"/>
      <point x="404" y="765"/>
      <point x="480" y="765" type="curve" smooth="yes"/>
      <point x="534" y="765"/>
      <point x="565" y="734"/>
      <point x="572" y="672" type="curve"/>
      <point x="726" y="689" type="line"/>
      <point x="703" y="827"/>
      <point x="624" y="896"/>
      <point x="490" y="896" type="curve" smooth="yes"/>
      <point x="287" y="896"/>
      <point x="186" y="752"/>
      <point x="186" y="465" type="curve" smooth="yes"/>
      <point x="186" y="186"/>
      <point x="282" y="47"/>
    </contour>
    <contour>
      <point x="482" y="179" type="curve" smooth="yes"/>
      <point x="443" y="179"/>
      <point x="413" y="197"/>
      <point x="392" y="234" type="curve" smooth="yes"/>
      <point x="374" y="265"/>
      <point x="365" y="300"/>
      <point x="365" y="341" type="curve" smooth="yes"/>
      <point x="365" y="436"/>
      <point x="401" y="484"/>
      <point x="474" y="484" type="curve" smooth="yes"/>
      <point x="548" y="484"/>
      <point x="585" y="432"/>
      <point x="585" y="327" type="curve" smooth="yes"/>
      <point x="585" y="228"/>
      <point x="551" y="179"/>
    </contour>
  </outline>
</glyph>
<glyph name="seven" format="2">
  <advance width="850"/>
  <unicode hex="0037"/>
  <note>
seven
</note>
  <outline>
    <contour>
      <point x="298" y="50" type="curve"/>
      <point x="451" y="50" type="line"/>
      <point x="451" y="123"/>
      <point x="463" y="207"/>
      <point x="487" y="300" type="curve" smooth="yes"/>
      <point x="538" y="493"/>
      <point x="619" y="644"/>
      <point x="731" y="754" type="curve"/>
      <point x="731" y="870" type="line"/>
      <point x="186" y="870" type="line"/>
      <point x="186" y="722" type="line"/>
      <point x="548" y="722" type="line"/>
      <point x="387" y="519"/>
      <point x="303" y="295"/>
    </contour>
  </outline>
</glyph>
<glyph name="eight" format="2">
  <advance width="823"/>
  <unicode hex="0038"/>
  <note>
eight
</note>
  <outline>
    <contour>
      <point x="456" y="48" type="curve" smooth="yes"/>
      <point x="616" y="48"/>
      <point x="725" y="149"/>
      <point x="725" y="308" type="curve" smooth="yes"/>
      <point x="725" y="406"/>
      <point x="678" y="474"/>
      <point x="584" y="512" type="curve"/>
      <point x="660" y="545"/>
      <point x="698" y="602"/>
      <point x="698" y="683" type="curve" smooth="yes"/>
      <point x="698" y="752"/>
      <point x="673" y="806"/>
      <point x="624" y="845" type="curve" smooth="yes"/>
      <point x="579" y="880"/>
      <point x="520" y="898"/>
      <point x="449" y="898" type="curve" smooth="yes"/>
      <point x="378" y="898"/>
      <point x="319" y="880"/>
      <point x="274" y="845" type="curve" smooth="yes"/>
      <point x="224" y="807"/>
      <point x="199" y="753"/>
      <point x="199" y="683" type="curve" smooth="yes"/>
      <point x="199" y="602"/>
      <point x="238" y="545"/>
      <point x="317" y="512" type="curve"/>
      <point x="224" y="473"/>
      <point x="178" y="402"/>
      <point x="178" y="301" type="curve" smooth="yes"/>
      <point x="178" y="222"/>
      <point x="205" y="160"/>
      <point x="260" y="114" type="curve" smooth="yes"/>
      <point x="311" y="70"/>
      <point x="377" y="48"/>
    </contour>
    <contour>
      <point x="453" y="177" type="curve" smooth="yes"/>
      <point x="416" y="177"/>
      <point x="386" y="191"/>
      <point x="364" y="219" type="curve" smooth="yes"/>
      <point x="345" y="244"/>
      <point x="335" y="277"/>
      <point x="335" y="316" type="curve" smooth="yes"/>
      <point x="335" y="388"/>
      <point x="380" y="444"/>
      <point x="451" y="444" type="curve" smooth="yes"/>
      <point x="523" y="444"/>
      <point x="567" y="387"/>
      <point x="567" y="314" type="curve" smooth="yes"/>
      <point x="567" y="223"/>
      <point x="529" y="177"/>
    </contour>
    <contour>
      <point x="449" y="571" type="curve" smooth="yes"/>
      <point x="383" y="571"/>
      <point x="350" y="605"/>
      <point x="350" y="672" type="curve" smooth="yes"/>
      <point x="350" y="738"/>
      <point x="384" y="771"/>
      <point x="451" y="771" type="curve" smooth="yes"/>
      <point x="516" y="771"/>
      <point x="549" y="738"/>
      <point x="549" y="673" type="curve" smooth="yes"/>
      <point x="549" y="605"/>
      <point x="516" y="571"/>
    </contour>
  </outline>
</glyph>
<glyph name="nine" format="2">
  <advance width="864"/>
  <unicode hex="0039"/>
  <outline>
    <contour>
      <point x="438" y="49" type="curve" smooth="yes"/>
      <point x="641" y="49"/>
      <point x="743" y="192"/>
      <point x="743" y="479" type="curve" smooth="yes"/>
      <point x="743" y="759"/>
      <point x="647" y="899"/>
      <point x="454" y="899" type="curve" smooth="yes"/>
      <point x="293" y="899"/>
      <point x="188" y="781"/>
      <point x="188" y="618" type="curve" smooth="yes"/>
      <point x="188" y="544"/>
      <point x="209" y="481"/>
      <point x="252" y="429" type="curve" smooth="yes"/>
      <point x="297" y="373"/>
      <point x="356" y="345"/>
      <point x="428" y="345" type="curve" smooth="yes"/>
      <point x="488" y="345"/>
      <point x="538" y="368"/>
      <point x="578" y="415" type="curve"/>
      <point x="568" y="259"/>
      <point x="525" y="181"/>
      <point x="450" y="181" type="curve" smooth="yes"/>
      <point x="396" y="181"/>
      <point x="365" y="212"/>
      <point x="358" y="273" type="curve"/>
      <point x="204" y="256" type="line"/>
      <point x="227" y="118"/>
      <point x="305" y="49"/>
    </contour>
    <contour>
      <point x="455" y="462" type="curve" smooth="yes"/>
      <point x="381" y="462"/>
      <point x="344" y="514"/>
      <point x="344" y="618" type="curve" smooth="yes"/>
      <point x="344" y="717"/>
      <point x="378" y="767"/>
      <point x="447" y="767" type="curve" smooth="yes"/>
      <point x="486" y="767"/>
      <point x="516" y="749"/>
      <point x="537" y="712" type="curve" smooth="yes"/>
      <point x="555" y="681"/>
      <point x="564" y="646"/>
      <point x="564" y="605" type="curve" smooth="yes"/>
      <point x="564" y="510"/>
      <point x="528" y="462"/>
    </contour>
  </outline>
</glyph>
<glyph name="colon" format="2">
  <advance width="481"/>
  <unicode hex="003A"/>
  <note>
colon
</note>
  <outline>
    <contour>
      <point x="154" y="309" type="line"/>
      <point x="349" y="309" type="line"/>
      <point x="349" y="504" type="line"/>
      <point x="154" y="504" type="line"/>
    </contour>
    <contour>
      <point x="154" y="12" type="line"/>
      <point x="349" y="12" type="line"/>
      <point x="349" y="207" type="line"/>
      <point x="154" y="207" type="line"/>
    </contour>
  </outline>
</glyph>
<glyph name="semicolon" format="2">
  <advance width="407"/>
  <unicode hex="003B"/>
  <note>
semicolon
</note>
  <outline>
    <contour>
      <point x="67" y="-299" type="line"/>
      <point x="257" y="-223"/>
      <point x="348" y="-89"/>
      <point x="348" y="64" type="curve" smooth="yes"/>
      <point x="348" y="197"/>
      <point x="269" y="243"/>
      <point x="199" y="243" type="curve" smooth="yes"/>
      <point x="123" y="243"/>
      <point x="67" y="194"/>
      <point x="67" y="127" type="curve" smooth="yes"/>
      <point x="67" y="18"/>
      <point x="191" y="27"/>
      <point x="191" y="-74" type="curve" smooth="yes"/>
      <point x="191" y="-138"/>
      <point x="153" y="-192"/>
      <point x="41" y="-239" type="curve"/>
    </contour>
    <contour>
      <point x="203" y="374" type="curve" smooth="yes"/>
      <point x="278" y="374"/>
      <point x="338" y="428"/>
      <point x="338" y="500" type="curve" smooth="yes"/>
      <point x="338" y="574"/>
      <point x="278" y="632"/>
      <point x="203" y="632" type="curve" smooth="yes"/>
      <point x="129" y="632"/>
      <point x="67" y="574"/>
      <point x="67" y="500" type="curve" smooth="yes"/>
      <point x="67" y="428"/>
      <point x="129" y="374"/>
    </contour>
  </outline>
</glyph>
<glyph name="less" format="2">
  <advance width="890"/>
  <unicode hex="003C"/>
  <outline>
    <contour>
      <point x="758" y="8" type="line"/>
      <point x="758" y="168" type="line"/>
      <point x="361" y="326" type="line"/>
      <point x="758" y="478" type="line"/>
      <point x="758" y="639" type="line"/>
      <point x="189" y="393" type="line"/>
      <point x="189" y="256" type="line"/>
    </contour>
  </outline>
</glyph>
<glyph name="equal" format="2">
  <advance width="929"/>
  <unicode hex="003D"/>
  <outline>
    <contour>
      <point x="195" y="158" type="line"/>
      <point x="776" y="158" type="line"/>
      <point x="776" y="305" type="line"/>
      <point x="195" y="305" type="line"/>
    </contour>
    <contour>
      <point x="195" y="410" type="line"/>
      <point x="776" y="410" type="line"/>
      <point x="776" y="556" type="line"/>
      <point x="195" y="556" type="line"/>
    </contour>
  </outline>
</glyph>
<glyph name="greater" format="2">
  <advance width="902"/>
  <unicode hex="003E"/>
  <outline>
    <contour>
      <point x="183" y="42" type="line"/>
      <point x="753" y="290" type="line"/>
      <point x="753" y="427" type="line"/>
      <point x="183" y="673" type="line"/>
      <point x="183" y="514" type="line"/>
      <point x="581" y="359" type="line"/>
      <point x="183" y="203" type="line"/>
    </contour>
  </outline>
</glyph>
<glyph name="exclamdown" format="2">
  <advance width="416"/>
  <unicode hex="00A1"/>
  <note>
exclamdown
</note>
  <outline>
    <contour>
      <point x="167" y="293" type="line"/>
      <point x="81" y="-106" type="line" smooth="yes"/>
      <point x="55" y="-229"/>
      <point x="110" y="-319"/>
      <point x="207" y="-319" type="curve" smooth="yes"/>
      <point x="306" y="-319"/>
      <point x="360" y="-229"/>
      <point x="335" y="-106" type="curve" smooth="yes"/>
      <point x="249" y="293" type="line"/>
    </contour>
    <contour>
      <point x="207" y="629" type="curve" smooth="yes"/>
      <point x="132" y="629"/>
      <point x="73" y="570"/>
      <point x="73" y="497" type="curve" smooth="yes"/>
      <point x="73" y="422"/>
      <point x="133" y="363"/>
      <point x="207" y="363" type="curve" smooth="yes"/>
      <point x="283" y="363"/>
      <point x="343" y="422"/>
      <point x="343" y="497" type="curve" smooth="yes"/>
      <point x="343" y="572"/>
      <point x="283" y="629"/>
    </contour>
  </outline>
</glyph>
<glyph name="glottalstopmod" format="2">
  <advance width="395"/>
  <unicode hex="02C0"/>
  <note>
U02c0
</note>
  <outline>
    <contour>
      <point x="181" y="965" type="line"/>
      <point x="224" y="965" type="line"/>
      <point x="224" y="982"/>
      <point x="225" y="995"/>
      <point x="228" y="1004" type="curve"/>
      <point x="243" y="1028"/>
      <point x="256" y="1045"/>
      <point x="267" y="1054" type="curve" smooth="yes"/>
      <point x="304" y="1086"/>
      <point x="322" y="1117"/>
      <point x="322" y="1147" type="curve" smooth="yes"/>
      <point x="322" y="1178"/>
      <point x="310" y="1203"/>
      <point x="285" y="1222" type="curve" smooth="yes"/>
      <point x="263" y="1239"/>
      <point x="236" y="1247"/>
      <point x="204" y="1247" type="curve" smooth="yes"/>
      <point x="133" y="1247"/>
      <point x="94" y="1212"/>
      <point x="85" y="1141" type="curve"/>
      <point x="132" y="1136" type="line"/>
      <point x="139" y="1185"/>
      <point x="164" y="1210"/>
      <point x="205" y="1210" type="curve" smooth="yes"/>
      <point x="242" y="1210"/>
      <point x="276" y="1181"/>
      <point x="276" y="1144" type="curve" smooth="yes"/>
      <point x="276" y="1135"/>
      <point x="274" y="1126"/>
      <point x="269" y="1117" type="curve"/>
      <point x="244" y="1088"/>
      <point x="223" y="1067"/>
      <point x="206" y="1053" type="curve"/>
      <point x="189" y="1033"/>
      <point x="181" y="1008"/>
      <point x="181" y="978" type="curve" smooth="yes"/>
    </contour>
  </outline>
</glyph>
<glyph name="glottalstopreversedmod" format="2">
  <advance width="395"/>
  <unicode hex="02C1"/>
  <note>
U02c1
</note>
  <outline>
    <contour>
      <point x="183" y="965" type="curve"/>
      <point x="226" y="965" type="line"/>
      <point x="227" y="978" type="line" smooth="yes"/>
      <point x="227" y="995"/>
      <point x="224" y="1011"/>
      <point x="219" y="1024" type="curve"/>
      <point x="199" y="1053"/>
      <point x="182" y="1073"/>
      <point x="169" y="1084" type="curve" smooth="yes"/>
      <point x="144" y="1106"/>
      <point x="132" y="1126"/>
      <point x="132" y="1144" type="curve" smooth="yes"/>
      <point x="132" y="1181"/>
      <point x="165" y="1210"/>
      <point x="202" y="1210" type="curve" smooth="yes"/>
      <point x="243" y="1210"/>
      <point x="268" y="1185"/>
      <point x="276" y="1136" type="curve"/>
      <point x="322" y="1141" type="line"/>
      <point x="313" y="1212"/>
      <point x="274" y="1247"/>
      <point x="203" y="1247" type="curve" smooth="yes"/>
      <point x="171" y="1247"/>
      <point x="144" y="1239"/>
      <point x="122" y="1222" type="curve" smooth="yes"/>
      <point x="97" y="1203"/>
      <point x="85" y="1178"/>
      <point x="85" y="1147" type="curve" smooth="yes"/>
      <point x="85" y="1117"/>
      <point x="104" y="1086"/>
      <point x="141" y="1054" type="curve" smooth="yes"/>
      <point x="155" y="1041"/>
      <point x="164" y="1031"/>
      <point x="169" y="1025" type="curve" smooth="yes"/>
      <point x="178" y="1013"/>
      <point x="182" y="993"/>
    </contour>
  </outline>
</glyph>
<glyph name="ringhalfleftcentered" format="2">
  <advance width="638"/>
  <unicode hex="02D3"/>
  <note>
U02d3
</note>
  <outline>
    <contour>
      <point x="357" y="859" type="curve" smooth="yes"/>
      <point x="366" y="859"/>
      <point x="370" y="863"/>
      <point x="370" y="872" type="curve" smooth="yes"/>
      <point x="370" y="873"/>
      <point x="369" y="875"/>
      <point x="368" y="878" type="curve"/>
      <point x="345" y="923"/>
      <point x="329" y="959"/>
      <point x="320" y="988" type="curve" smooth="yes"/>
      <point x="311" y="1021"/>
      <point x="306" y="1054"/>
      <point x="306" y="1087" type="curve" smooth="yes"/>
      <point x="306" y="1120"/>
      <point x="311" y="1152"/>
      <point x="320" y="1185" type="curve" smooth="yes"/>
      <point x="329" y="1214"/>
      <point x="345" y="1250"/>
      <point x="368" y="1295" type="curve"/>
      <point x="370" y="1301" type="line"/>
      <point x="370" y="1310"/>
      <point x="366" y="1314"/>
      <point x="357" y="1314" type="curve" smooth="yes"/>
      <point x="346" y="1314"/>
      <point x="331" y="1292"/>
      <point x="311" y="1247" type="curve" smooth="yes"/>
      <point x="293" y="1208"/>
      <point x="282" y="1179"/>
      <point x="277" y="1160" type="curve" smooth="yes"/>
      <point x="271" y="1134"/>
      <point x="268" y="1110"/>
      <point x="268" y="1087" type="curve" smooth="yes"/>
      <point x="268" y="1035"/>
      <point x="283" y="980"/>
      <point x="313" y="922" type="curve" smooth="yes"/>
      <point x="334" y="880"/>
      <point x="349" y="859"/>
    </contour>
  </outline>
</glyph>
<glyph name="tildecomb" format="2">
  <unicode hex="0303"/>
  <note>
U0303
</note>
  <anchor x="255" y="15" name="_class0"/>
  <outline>
    <contour>
      <point x="71" y="-12" type="curve" smooth="yes"/>
      <point x="76" y="-9"/>
      <point x="79" y="-5"/>
      <point x="80" y="0" type="curve" smooth="yes"/>
      <point x="87" y="61"/>
      <point x="109" y="92"/>
      <point x="148" y="92" type="curve" smooth="yes"/>
      <point x="167" y="92"/>
      <point x="186" y="83"/>
      <point x="205" y="64" type="curve" smooth="yes"/>
      <point x="255" y="15"/>
      <point x="301" y="-10"/>
      <point x="342" y="-10" type="curve" smooth="yes"/>
      <point x="383" y="-10"/>
      <point x="432" y="24"/>
      <point x="440" y="63" type="curve"/>
      <point x="448" y="90" type="line" smooth="yes"/>
      <point x="458" y="121"/>
      <point x="460" y="149"/>
      <point x="455" y="174" type="curve" smooth="yes"/>
      <point x="451" y="194"/>
      <point x="444" y="203"/>
      <point x="434" y="201" type="curve" smooth="yes"/>
      <point x="425" y="199"/>
      <point x="418" y="185"/>
      <point x="414" y="159" type="curve" smooth="yes"/>
      <point x="409" y="124"/>
      <point x="382" y="106"/>
      <point x="334" y="106" type="curve" smooth="yes"/>
      <point x="317" y="106"/>
      <point x="300" y="113"/>
      <point x="282" y="126" type="curve" smooth="yes"/>
      <point x="233" y="164"/>
      <point x="195" y="186"/>
      <point x="168" y="191" type="curve" smooth="yes"/>
      <point x="163" y="192"/>
      <point x="157" y="193"/>
      <point x="151" y="193" type="curve" smooth="yes"/>
      <point x="90" y="193"/>
      <point x="37" y="123"/>
      <point x="37" y="51" type="curve" smooth="yes"/>
      <point x="37" y="24"/>
      <point x="44" y="3"/>
      <point x="57" y="-10" type="curve" smooth="yes"/>
      <point x="61" y="-14"/>
      <point x="66" y="-15"/>
    </contour>
  </outline>
</glyph>
<glyph name="dotaccentcomb" format="2">
  <unicode hex="0307"/>
  <anchor x="75" y="0" name="_m.U0656"/>
  <anchor x="90" y="0" name="_t.U0656"/>
  <anchor x="90" y="30" name="_t.U0656_2"/>
  <anchor x="75" y="345" name="t.U0656_2"/>
  <outline>
    <contour>
      <point x="20" y="2" type="line"/>
      <point x="185" y="2" type="line"/>
      <point x="185" y="177" type="line"/>
      <point x="20" y="177" type="line"/>
    </contour>
  </outline>
</glyph>
<glyph name="dieresiscomb" format="2">
  <unicode hex="0308"/>
  <note>
U0308
</note>
  <anchor x="240" y="15" name="_class0"/>
  <outline>
    <contour>
      <point x="276" y="0" type="line"/>
      <point x="441" y="0" type="line"/>
      <point x="441" y="165" type="line"/>
      <point x="276" y="165" type="line"/>
    </contour>
    <contour>
      <point x="37" y="1" type="line"/>
      <point x="202" y="1" type="line"/>
      <point x="202" y="166" type="line"/>
      <point x="37" y="166" type="line"/>
    </contour>
  </outline>
</glyph>
<glyph name="dotbelowcomb" format="2">
  <unicode hex="0323"/>
  <anchor x="135" y="-60" name="_class2"/>
  <outline>
    <contour>
      <point x="59" y="-197" type="line"/>
      <point x="224" y="-197" type="line"/>
      <point x="224" y="-32" type="line"/>
      <point x="59" y="-32" type="line"/>
    </contour>
  </outline>
</glyph>
<glyph name="dieresisbelowcomb" format="2">
  <unicode hex="0324"/>
  <anchor x="240" y="-60" name="_b.U0331"/>
  <anchor x="240" y="-60" name="_b.U0331_2"/>
  <anchor x="225" y="0" name="_b.U0331_2_2"/>
  <anchor x="255" y="-360" name="b.U0331"/>
  <outline>
    <contour>
      <point x="42" y="-195" type="line"/>
      <point x="207" y="-195" type="line"/>
      <point x="207" y="-29" type="line"/>
      <point x="42" y="-29" type="line"/>
    </contour>
    <contour>
      <point x="281" y="-195" type="line"/>
      <point x="446" y="-195" type="line"/>
      <point x="446" y="-30" type="line"/>
      <point x="281" y="-30" type="line"/>
    </contour>
  </outline>
</glyph>
<glyph name="brevebelowcomb" format="2">
  <unicode hex="032E"/>
  <note>
U032e
</note>
  <anchor x="300" y="-135" name="_class2"/>
  <outline>
    <contour>
      <point x="288" y="-301" type="curve" smooth="yes"/>
      <point x="357" y="-300"/>
      <point x="410" y="-275"/>
      <point x="448" y="-227" type="curve" smooth="yes"/>
      <point x="480" y="-187"/>
      <point x="497" y="-139"/>
      <point x="498" y="-82" type="curve" smooth="yes"/>
      <point x="499" y="-52"/>
      <point x="495" y="-26"/>
      <point x="486" y="-4" type="curve" smooth="yes"/>
      <point x="485" y="-1"/>
      <point x="484" y="1"/>
      <point x="483" y="2" type="curve"/>
      <point x="482" y="2"/>
      <point x="482" y="1"/>
      <point x="482" y="-2" type="curve" smooth="yes"/>
      <point x="482" y="-70"/>
      <point x="459" y="-121"/>
      <point x="413" y="-156" type="curve" smooth="yes"/>
      <point x="378" y="-183"/>
      <point x="336" y="-196"/>
      <point x="287" y="-196" type="curve" smooth="yes"/>
      <point x="189" y="-196"/>
      <point x="123" y="-156"/>
      <point x="88" y="-77" type="curve"/>
      <point x="79" y="-43"/>
      <point x="73" y="-17"/>
      <point x="70" y="0" type="curve" smooth="yes"/>
      <point x="68" y="8"/>
      <point x="66" y="-6"/>
      <point x="63" y="-41" type="curve" smooth="yes"/>
      <point x="60" y="-76"/>
      <point x="60" y="-102"/>
      <point x="63" y="-119" type="curve" smooth="yes"/>
      <point x="74" y="-180"/>
      <point x="106" y="-228"/>
      <point x="157" y="-261" type="curve" smooth="yes"/>
      <point x="198" y="-288"/>
      <point x="242" y="-302"/>
    </contour>
  </outline>
</glyph>
<glyph name="comma-ar" format="2">
  <advance width="446"/>
  <unicode hex="060C"/>
  <outline>
    <contour>
      <point x="207" y="-49" type="curve" smooth="yes"/>
      <point x="275" y="-49"/>
      <point x="308" y="2"/>
      <point x="308" y="52" type="curve" smooth="yes"/>
      <point x="308" y="104"/>
      <point x="275" y="155"/>
      <point x="211" y="155" type="curve" smooth="yes"/>
      <point x="201" y="155"/>
      <point x="163" y="154"/>
      <point x="139" y="119" type="curve"/>
      <point x="219" y="104" type="line"/>
      <point x="206" y="135"/>
      <point x="201" y="164"/>
      <point x="201" y="190" type="curve" smooth="yes"/>
      <point x="201" y="315"/>
      <point x="279" y="361"/>
      <point x="279" y="382" type="curve" smooth="yes"/>
      <point x="279" y="390"/>
      <point x="274" y="395"/>
      <point x="266" y="395" type="curve" smooth="yes"/>
      <point x="223" y="395"/>
      <point x="94" y="255"/>
      <point x="94" y="95" type="curve" smooth="yes"/>
      <point x="94" y="14"/>
      <point x="130" y="-49"/>
    </contour>
  </outline>
</glyph>
<glyph name="semicolon-ar" format="2">
  <advance width="468"/>
  <unicode hex="061B"/>
  <note>
U061b
</note>
  <outline>
    <contour>
      <point x="200" y="272" type="curve" smooth="yes"/>
      <point x="259" y="272"/>
      <point x="306" y="312"/>
      <point x="306" y="368" type="curve" smooth="yes"/>
      <point x="306" y="398"/>
      <point x="298" y="423"/>
      <point x="283" y="443" type="curve" smooth="yes"/>
      <point x="266" y="466"/>
      <point x="243" y="477"/>
      <point x="214" y="477" type="curve"/>
      <point x="209" y="496"/>
      <point x="207" y="515"/>
      <point x="207" y="532" type="curve" smooth="yes"/>
      <point x="207" y="561"/>
      <point x="216" y="597"/>
      <point x="234" y="639" type="curve" smooth="yes"/>
      <point x="237" y="645"/>
      <point x="245" y="656"/>
      <point x="259" y="671" type="curve" smooth="yes"/>
      <point x="272" y="684"/>
      <point x="279" y="693"/>
      <point x="279" y="698" type="curve" smooth="yes"/>
      <point x="279" y="710"/>
      <point x="271" y="716"/>
      <point x="255" y="715" type="curve"/>
      <point x="148" y="644"/>
      <point x="95" y="533"/>
      <point x="95" y="382" type="curve" smooth="yes"/>
      <point x="95" y="323"/>
      <point x="143" y="272"/>
    </contour>
    <contour>
      <point x="199" y="-47" type="curve" smooth="yes"/>
      <point x="272" y="-47"/>
      <point x="308" y="-14"/>
      <point x="308" y="53" type="curve" smooth="yes"/>
      <point x="308" y="108"/>
      <point x="259" y="158"/>
      <point x="203" y="158" type="curve" smooth="yes"/>
      <point x="176" y="158"/>
      <point x="151" y="149"/>
      <point x="130" y="132" type="curve" smooth="yes"/>
      <point x="107" y="114"/>
      <point x="95" y="91"/>
      <point x="95" y="64" type="curve" smooth="yes"/>
      <point x="95" y="4"/>
      <point x="139" y="-47"/>
    </contour>
  </outline>
</glyph>
<glyph name="question-ar" format="2">
  <advance width="804"/>
  <unicode hex="061F"/>
  <note>
U061f
</note>
  <outline>
    <contour>
      <point x="409" y="203" type="curve"/>
      <point x="545" y="203" type="line"/>
      <point x="546" y="239" type="line" smooth="yes"/>
      <point x="546" y="327"/>
      <point x="522" y="374"/>
      <point x="442" y="438" type="curve" smooth="yes"/>
      <point x="397" y="475"/>
      <point x="368" y="500"/>
      <point x="357" y="515" type="curve" smooth="yes"/>
      <point x="344" y="532"/>
      <point x="337" y="551"/>
      <point x="337" y="572" type="curve" smooth="yes"/>
      <point x="337" y="606"/>
      <point x="351" y="633"/>
      <point x="378" y="652" type="curve" smooth="yes"/>
      <point x="403" y="670"/>
      <point x="432" y="679"/>
      <point x="467" y="679" type="curve" smooth="yes"/>
      <point x="547" y="679"/>
      <point x="597" y="635"/>
      <point x="616" y="547" type="curve"/>
      <point x="754" y="564" type="line"/>
      <point x="749" y="635"/>
      <point x="719" y="692"/>
      <point x="663" y="735" type="curve" smooth="yes"/>
      <point x="610" y="774"/>
      <point x="547" y="794"/>
      <point x="473" y="794" type="curve" smooth="yes"/>
      <point x="400" y="794"/>
      <point x="336" y="775"/>
      <point x="282" y="738" type="curve" smooth="yes"/>
      <point x="221" y="695"/>
      <point x="191" y="639"/>
      <point x="191" y="568" type="curve" smooth="yes"/>
      <point x="191" y="507"/>
      <point x="240" y="435"/>
      <point x="339" y="353" type="curve" smooth="yes"/>
      <point x="402" y="301"/>
      <point x="410" y="284"/>
    </contour>
    <contour>
      <point x="395" y="1" type="line"/>
      <point x="545" y="1" type="line"/>
      <point x="545" y="151" type="line"/>
      <point x="395" y="151" type="line"/>
    </contour>
  </outline>
</glyph>
<glyph name="kashida-ar" format="2">
  <advance width="360"/>
  <unicode hex="0640"/>
  <anchor x="135" y="405" name="class0"/>
  <anchor x="165" y="-150" name="class0_"/>
  <anchor x="135" y="390" name="class1"/>
  <anchor x="180" y="-195" name="class2"/>
  <anchor x="180" y="-165" name="class3"/>
  <outline>
    <contour>
      <point x="0" y="0" type="line"/>
      <point x="360" y="0" type="line"/>
      <point x="360" y="195" type="line"/>
      <point x="0" y="195" type="line"/>
    </contour>
  </outline>
</glyph>
<glyph name="shadda-ar" format="2">
  <unicode hex="0651"/>
  <note>
U0651
</note>
  <anchor x="150" y="0" name="_class0"/>
  <outline>
    <contour>
      <point x="72" y="0" type="curve" smooth="yes"/>
      <point x="117" y="0"/>
      <point x="144" y="23"/>
      <point x="155" y="68" type="curve"/>
      <point x="170" y="57"/>
      <point x="187" y="52"/>
      <point x="206" y="52" type="curve" smooth="yes"/>
      <point x="261" y="52"/>
      <point x="288" y="96"/>
      <point x="288" y="185" type="curve" smooth="yes"/>
      <point x="288" y="207"/>
      <point x="284" y="232"/>
      <point x="277" y="261" type="curve"/>
      <point x="259" y="253" type="line"/>
      <point x="254" y="176"/>
      <point x="237" y="137"/>
      <point x="206" y="137" type="curve" smooth="yes"/>
      <point x="187" y="137"/>
      <point x="172" y="163"/>
      <point x="160" y="214" type="curve"/>
      <point x="145" y="210" type="line"/>
      <point x="132" y="124"/>
      <point x="108" y="81"/>
      <point x="74" y="81" type="curve" smooth="yes"/>
      <point x="53" y="81"/>
      <point x="43" y="110"/>
      <point x="43" y="169" type="curve"/>
      <point x="25" y="166" type="line"/>
      <point x="13" y="124"/>
      <point x="7" y="97"/>
      <point x="7" y="86" type="curve" smooth="yes"/>
      <point x="7" y="29"/>
      <point x="29" y="0"/>
    </contour>
  </outline>
</glyph>
<glyph name="paragraph-syriac" format="2">
  <advance width="920"/>
  <unicode hex="0700"/>
  <note>
U0700
</note>
  <outline>
    <contour>
      <point x="654" y="105" type="line"/>
      <point x="662" y="105" type="line"/>
      <point x="773" y="216" type="line"/>
      <point x="706" y="277"/>
      <point x="667" y="312"/>
      <point x="656" y="321" type="curve"/>
      <point x="546" y="213" type="line"/>
    </contour>
    <contour>
      <point x="443" y="-100" type="line"/>
      <point x="451" y="-100" type="line"/>
      <point x="558" y="14" type="line"/>
      <point x="451" y="116" type="line"/>
      <point x="337" y="9" type="line"/>
    </contour>
    <contour>
      <point x="246" y="97" type="line"/>
      <point x="351" y="194" type="line"/>
      <point x="361" y="213" type="line"/>
      <point x="254" y="312" type="line"/>
      <point x="143" y="198" type="line"/>
    </contour>
    <contour>
      <point x="456" y="304" type="line"/>
      <point x="558" y="408" type="line"/>
      <point x="537" y="437"/>
      <point x="502" y="472"/>
      <point x="454" y="514" type="curve"/>
      <point x="448" y="514" type="line"/>
      <point x="340" y="407" type="line"/>
    </contour>
  </outline>
</glyph>
<glyph name="fullstopSublinear-syriac" format="2">
  <advance width="430"/>
  <unicode hex="0702"/>
  <note>
U0702
</note>
  <outline>
    <contour>
      <point x="221" y="-187" type="curve" smooth="yes"/>
      <point x="274" y="-187"/>
      <point x="311" y="-141"/>
      <point x="311" y="-86" type="curve" smooth="yes"/>
      <point x="311" y="-37"/>
      <point x="268" y="0"/>
      <point x="217" y="0" type="curve" smooth="yes"/>
      <point x="162" y="0"/>
      <point x="122" y="-41"/>
      <point x="122" y="-97" type="curve" smooth="yes"/>
      <point x="122" y="-145"/>
      <point x="173" y="-187"/>
    </contour>
  </outline>
</glyph>
<glyph name="colonSublinear-syriac" format="2">
  <advance width="430"/>
  <unicode hex="0704"/>
  <note>
U0704
</note>
  <outline>
    <contour>
      <point x="219" y="-185" type="curve" smooth="yes"/>
      <point x="274" y="-185"/>
      <point x="309" y="-140"/>
      <point x="309" y="-85" type="curve" smooth="yes"/>
      <point x="309" y="-37"/>
      <point x="265" y="0"/>
      <point x="217" y="0" type="curve" smooth="yes"/>
      <point x="154" y="0"/>
      <point x="122" y="-32"/>
      <point x="122" y="-96" type="curve" smooth="yes"/>
      <point x="122" y="-145"/>
      <point x="170" y="-185"/>
    </contour>
    <contour>
      <point x="219" y="-494" type="curve" smooth="yes"/>
      <point x="274" y="-494"/>
      <point x="309" y="-450"/>
      <point x="309" y="-394" type="curve" smooth="yes"/>
      <point x="309" y="-346"/>
      <point x="265" y="-309"/>
      <point x="217" y="-309" type="curve" smooth="yes"/>
      <point x="154" y="-309"/>
      <point x="122" y="-341"/>
      <point x="122" y="-405" type="curve" smooth="yes"/>
      <point x="122" y="-456"/>
      <point x="170" y="-494"/>
    </contour>
  </outline>
</glyph>
<glyph name="colonHorizontal-syriac" format="2">
  <advance width="714"/>
  <unicode hex="0705"/>
  <note>
U0705
</note>
  <outline>
    <contour>
      <point x="497" y="631" type="curve" smooth="yes"/>
      <point x="549" y="631"/>
      <point x="586" y="678"/>
      <point x="586" y="731" type="curve" smooth="yes"/>
      <point x="586" y="782"/>
      <point x="542" y="818"/>
      <point x="493" y="818" type="curve" smooth="yes"/>
      <point x="437" y="818"/>
      <point x="397" y="777"/>
      <point x="397" y="720" type="curve" smooth="yes"/>
      <point x="397" y="673"/>
      <point x="448" y="631"/>
    </contour>
    <contour>
      <point x="221" y="631" type="curve" smooth="yes"/>
      <point x="274" y="631"/>
      <point x="311" y="678"/>
      <point x="311" y="731" type="curve" smooth="yes"/>
      <point x="311" y="782"/>
      <point x="268" y="818"/>
      <point x="217" y="818" type="curve" smooth="yes"/>
      <point x="162" y="818"/>
      <point x="122" y="777"/>
      <point x="122" y="720" type="curve" smooth="yes"/>
      <point x="122" y="673"/>
      <point x="173" y="631"/>
    </contour>
  </outline>
</glyph>
<glyph name="colonSkewedleft-syriac" format="2">
  <advance width="486"/>
  <unicode hex="0706"/>
  <note>
U0706
</note>
  <outline>
    <contour>
      <point x="320" y="0" type="curve" smooth="yes"/>
      <point x="372" y="0"/>
      <point x="409" y="46"/>
      <point x="409" y="101" type="curve" smooth="yes"/>
      <point x="409" y="150"/>
      <point x="365" y="187"/>
      <point x="316" y="187" type="curve" smooth="yes"/>
      <point x="260" y="187"/>
      <point x="220" y="146"/>
      <point x="220" y="90" type="curve" smooth="yes"/>
      <point x="220" y="42"/>
      <point x="271" y="0"/>
    </contour>
    <contour>
      <point x="164" y="288" type="curve" smooth="yes"/>
      <point x="191" y="288"/>
      <point x="213" y="298"/>
      <point x="230" y="319" type="curve" smooth="yes"/>
      <point x="245" y="338"/>
      <point x="253" y="361"/>
      <point x="253" y="388" type="curve" smooth="yes"/>
      <point x="253" y="436"/>
      <point x="210" y="473"/>
      <point x="162" y="473" type="curve" smooth="yes"/>
      <point x="98" y="473"/>
      <point x="66" y="441"/>
      <point x="66" y="377" type="curve" smooth="yes"/>
      <point x="66" y="328"/>
      <point x="113" y="288"/>
    </contour>
  </outline>
</glyph>
<glyph name="colonSkewedrightSublinear-syriac" format="2">
  <advance width="486"/>
  <unicode hex="0709"/>
  <note>
U0709
</note>
  <outline>
    <contour>
      <point x="4" y="0" type="line"/>
      <point x="169" y="0" type="line"/>
      <point x="169" y="165" type="line"/>
      <point x="4" y="165" type="line"/>
    </contour>
    <contour>
      <point x="177" y="-279" type="line"/>
      <point x="342" y="-279" type="line"/>
      <point x="342" y="-114" type="line"/>
      <point x="177" y="-114" type="line"/>
    </contour>
  </outline>
</glyph>
<glyph name="contraction-syriac" format="2">
  <advance width="868"/>
  <unicode hex="070A"/>
  <outline>
    <contour>
      <point x="430" y="1" type="line"/>
      <point x="569" y="1" type="line"/>
      <point x="569" y="158" type="line"/>
      <point x="430" y="158" type="line"/>
    </contour>
    <contour>
      <point x="430" y="223" type="line"/>
      <point x="569" y="223" type="line"/>
      <point x="569" y="380" type="line"/>
      <point x="430" y="380" type="line"/>
    </contour>
    <contour>
      <point x="215" y="467" type="curve" smooth="yes"/>
      <point x="789" y="467" type="line" smooth="yes"/>
      <point x="842" y="467"/>
      <point x="843" y="570"/>
      <point x="789" y="570" type="curve"/>
      <point x="743" y="570" type="line" smooth="yes"/>
      <point x="618" y="570"/>
      <point x="692" y="722"/>
      <point x="619" y="722" type="curve" smooth="yes"/>
      <point x="545" y="722"/>
      <point x="628" y="570"/>
      <point x="506" y="570" type="curve" smooth="yes"/>
      <point x="498" y="570" type="line" smooth="yes"/>
      <point x="376" y="570"/>
      <point x="459" y="722"/>
      <point x="385" y="722" type="curve" smooth="yes"/>
      <point x="312" y="722"/>
      <point x="386" y="570"/>
      <point x="261" y="570" type="curve" smooth="yes"/>
      <point x="215" y="570" type="line"/>
      <point x="161" y="570"/>
      <point x="162" y="467"/>
    </contour>
  </outline>
</glyph>
<glyph name="harkleanObelus-syriac" format="2">
  <advance width="1013"/>
  <unicode hex="070B"/>
  <note>
U070b
</note>
  <outline>
    <contour>
      <point x="122" y="664" type="line"/>
      <point x="893" y="664" type="line"/>
      <point x="893" y="725" type="line"/>
      <point x="122" y="725" type="line"/>
    </contour>
    <contour>
      <point x="467" y="537" type="line"/>
      <point x="542" y="537" type="line"/>
      <point x="542" y="612" type="line"/>
      <point x="467" y="612" type="line"/>
    </contour>
  </outline>
</glyph>
<glyph name="harkleanAsteriscus-syriac" format="2">
  <advance width="832"/>
  <unicode hex="070D"/>
  <note>
U070d
</note>
  <outline>
    <contour>
      <point x="231" y="224" type="line"/>
      <point x="416" y="409" type="line"/>
      <point x="601" y="224" type="line"/>
      <point x="647" y="270" type="line"/>
      <point x="462" y="455" type="line"/>
      <point x="647" y="640" type="line"/>
      <point x="601" y="686" type="line"/>
      <point x="416" y="501" type="line"/>
      <point x="231" y="686" type="line"/>
      <point x="185" y="640" type="line"/>
      <point x="370" y="455" type="line"/>
      <point x="185" y="270" type="line"/>
    </contour>
    <contour>
      <point x="393" y="271" type="curve" smooth="yes"/>
      <point x="410" y="254"/>
      <point x="428" y="254"/>
      <point x="445" y="271" type="curve" smooth="yes"/>
      <point x="454" y="280"/>
      <point x="458" y="288"/>
      <point x="458" y="297" type="curve" smooth="yes"/>
      <point x="458" y="314"/>
      <point x="436" y="336"/>
      <point x="419" y="336" type="curve" smooth="yes"/>
      <point x="410" y="336"/>
      <point x="402" y="332"/>
      <point x="393" y="323" type="curve" smooth="yes"/>
      <point x="376" y="306"/>
      <point x="376" y="288"/>
    </contour>
    <contour>
      <point x="232" y="435" type="curve" smooth="yes"/>
      <point x="249" y="418"/>
      <point x="267" y="418"/>
      <point x="284" y="435" type="curve" smooth="yes"/>
      <point x="301" y="452"/>
      <point x="301" y="470"/>
      <point x="284" y="487" type="curve" smooth="yes"/>
      <point x="267" y="504"/>
      <point x="250" y="504"/>
      <point x="232" y="487" type="curve" smooth="yes"/>
      <point x="215" y="470"/>
      <point x="215" y="452"/>
    </contour>
    <contour>
      <point x="553" y="430" type="curve" smooth="yes"/>
      <point x="570" y="413"/>
      <point x="587" y="414"/>
      <point x="604" y="431" type="curve" smooth="yes"/>
      <point x="613" y="440"/>
      <point x="617" y="448"/>
      <point x="617" y="457" type="curve" smooth="yes"/>
      <point x="617" y="474"/>
      <point x="596" y="495"/>
      <point x="579" y="495" type="curve" smooth="yes"/>
      <point x="570" y="495"/>
      <point x="562" y="491"/>
      <point x="553" y="482" type="curve" smooth="yes"/>
      <point x="536" y="465"/>
      <point x="536" y="447"/>
    </contour>
    <contour>
      <point x="387" y="596" type="curve" smooth="yes"/>
      <point x="404" y="579"/>
      <point x="422" y="579"/>
      <point x="439" y="596" type="curve" smooth="yes"/>
      <point x="448" y="605"/>
      <point x="452" y="613"/>
      <point x="452" y="622" type="curve" smooth="yes"/>
      <point x="452" y="639"/>
      <point x="431" y="660"/>
      <point x="414" y="660" type="curve" smooth="yes"/>
      <point x="405" y="660"/>
      <point x="397" y="656"/>
      <point x="388" y="647" type="curve" smooth="yes"/>
      <point x="371" y="630"/>
      <point x="370" y="613"/>
    </contour>
  </outline>
</glyph>
<glyph name="abbreviation-syriac" format="2">
  <advance width="33"/>
  <unicode hex="070F"/>
  <note>
U070f
</note>
  <outline>
    <contour>
      <point x="0" y="-94" type="line"/>
      <point x="33" y="-94" type="line"/>
      <point x="33" y="1058" type="line"/>
      <point x="38" y="1061"/>
      <point x="42" y="1065"/>
      <point x="45" y="1070" type="curve"/>
      <point x="113" y="1070" type="line"/>
      <point x="120" y="1058"/>
      <point x="130" y="1052"/>
      <point x="144" y="1052" type="curve" smooth="yes"/>
      <point x="167" y="1052"/>
      <point x="179" y="1064"/>
      <point x="179" y="1088" type="curve" smooth="yes"/>
      <point x="179" y="1111"/>
      <point x="167" y="1123"/>
      <point x="144" y="1123" type="curve" smooth="yes"/>
      <point x="127" y="1123"/>
      <point x="116" y="1115"/>
      <point x="111" y="1099" type="curve"/>
      <point x="47" y="1099" type="line"/>
      <point x="42" y="1115"/>
      <point x="31" y="1123"/>
      <point x="14" y="1123" type="curve" smooth="yes"/>
      <point x="-3" y="1123"/>
      <point x="-14" y="1115"/>
      <point x="-19" y="1099" type="curve"/>
      <point x="-82" y="1099" type="line"/>
      <point x="-88" y="1115"/>
      <point x="-99" y="1123"/>
      <point x="-116" y="1123" type="curve" smooth="yes"/>
      <point x="-139" y="1123"/>
      <point x="-151" y="1111"/>
      <point x="-151" y="1088" type="curve" smooth="yes"/>
      <point x="-151" y="1064"/>
      <point x="-139" y="1052"/>
      <point x="-116" y="1052" type="curve" smooth="yes"/>
      <point x="-102" y="1052"/>
      <point x="-92" y="1058"/>
      <point x="-85" y="1070" type="curve"/>
      <point x="-16" y="1070" type="line"/>
      <point x="-13" y="1063"/>
      <point x="-7" y="1058"/>
      <point x="0" y="1055" type="curve"/>
    </contour>
  </outline>
</glyph>
<glyph name="alaph-syriac" format="2">
  <advance width="723"/>
  <unicode hex="0710"/>
  <anchor x="322" y="-135" name="b.U0325_3"/>
  <anchor x="337" y="-165" name="b.U0331_2"/>
  <anchor x="352" y="-150" name="b.U0740"/>
  <anchor x="322" y="975" name="m.U030a_1"/>
  <anchor x="322" y="975" name="t.U0656"/>
  <outline>
    <contour>
      <point x="564" y="0" type="line" smooth="yes"/>
      <point x="599" y="0"/>
      <point x="626" y="110"/>
      <point x="626" y="167" type="curve" smooth="yes"/>
      <point x="626" y="180"/>
      <point x="626" y="195"/>
      <point x="620" y="195" type="curve" smooth="yes"/>
      <point x="296" y="195" type="line"/>
      <point x="334" y="154" type="line"/>
      <point x="404" y="299"/>
      <point x="451" y="455"/>
      <point x="451" y="650" type="curve" smooth="yes"/>
      <point x="451" y="804"/>
      <point x="378" y="867"/>
      <point x="305" y="867" type="curve" smooth="yes"/>
      <point x="231" y="867"/>
      <point x="158" y="804"/>
      <point x="158" y="707" type="curve" smooth="yes"/>
      <point x="158" y="566"/>
      <point x="366" y="677"/>
      <point x="366" y="538" type="curve" smooth="yes"/>
      <point x="366" y="349"/>
      <point x="112" y="183"/>
      <point x="100" y="175" type="curve"/>
      <point x="97" y="170"/>
      <point x="96" y="161"/>
      <point x="96" y="149" type="curve" smooth="yes"/>
      <point x="96" y="98"/>
      <point x="120" y="0"/>
      <point x="151" y="0" type="curve" smooth="yes"/>
    </contour>
  </outline>
</glyph>
<glyph name="alaphSuperscript-syriac" format="2">
  <unicode hex="0711"/>
  <note>
U0711
</note>
  <anchor x="135" y="15" name="_class0"/>
  <outline>
    <contour>
      <point x="292" y="-1" type="line"/>
      <point x="292" y="108" type="line"/>
      <point x="156" y="107" type="line"/>
      <point x="182" y="263"/>
      <point x="195" y="346"/>
      <point x="195" y="355" type="curve" smooth="yes"/>
      <point x="195" y="386"/>
      <point x="189" y="413"/>
      <point x="176" y="436" type="curve" smooth="yes"/>
      <point x="161" y="465"/>
      <point x="140" y="479"/>
      <point x="112" y="479" type="curve" smooth="yes"/>
      <point x="72" y="479"/>
      <point x="32" y="433"/>
      <point x="32" y="393" type="curve" smooth="yes"/>
      <point x="32" y="365"/>
      <point x="51" y="349"/>
      <point x="89" y="345" type="curve" smooth="yes"/>
      <point x="127" y="341"/>
      <point x="146" y="327"/>
      <point x="146" y="302" type="curve" smooth="yes"/>
      <point x="146" y="250"/>
      <point x="51" y="122"/>
      <point x="0" y="107" type="curve"/>
      <point x="0" y="0" type="line"/>
    </contour>
  </outline>
</glyph>
<glyph name="gamalgarshuni-syriac" format="2">
  <advance width="1261"/>
  <unicode hex="0714"/>
  <anchor x="690" y="-180" name="b.U0325_3"/>
  <anchor x="645" y="-150" name="b.U0331_2"/>
  <anchor x="765" y="-165" name="b.U0740"/>
  <anchor x="915" y="870" name="m.U030a_1"/>
  <anchor x="885" y="870" name="t.U0656"/>
  <outline>
    <component base="gamal-syriac"/>
    <contour>
      <point x="704" y="382" type="line"/>
      <point x="659" y="464" type="line"/>
      <point x="443" y="182" type="line"/>
      <point x="548" y="182" type="line"/>
    </contour>
  </outline>
</glyph>
<glyph name="dalath-syriac" format="2">
  <advance width="684"/>
  <unicode hex="0715"/>
  <note>
U0715
</note>
  <anchor x="375" y="705" name="class0"/>
  <anchor x="345" y="-360" name="class0_"/>
  <anchor x="285" y="705" name="class1"/>
  <anchor x="330" y="-390" name="class2"/>
  <anchor x="300" y="-390" name="class3"/>
  <outline>
    <contour>
      <point x="150" y="0" type="line"/>
      <point x="636" y="0" type="line"/>
      <point x="666" y="47"/>
      <point x="681" y="103"/>
      <point x="681" y="169" type="curve" smooth="yes"/>
      <point x="681" y="293"/>
      <point x="650" y="395"/>
      <point x="587" y="476" type="curve" smooth="yes"/>
      <point x="517" y="567"/>
      <point x="419" y="612"/>
      <point x="294" y="612" type="curve" smooth="yes"/>
      <point x="217" y="612"/>
      <point x="150" y="580"/>
      <point x="150" y="531" type="curve" smooth="yes"/>
      <point x="150" y="347" type="line" smooth="yes"/>
      <point x="150" y="330"/>
      <point x="157" y="322"/>
      <point x="172" y="322" type="curve" smooth="yes"/>
      <point x="175" y="322"/>
      <point x="189" y="338"/>
      <point x="212" y="370" type="curve" smooth="yes"/>
      <point x="235" y="402"/>
      <point x="262" y="418"/>
      <point x="294" y="418" type="curve" smooth="yes"/>
      <point x="358" y="418"/>
      <point x="408" y="394"/>
      <point x="443" y="346" type="curve" smooth="yes"/>
      <point x="474" y="305"/>
      <point x="490" y="254"/>
      <point x="490" y="195" type="curve"/>
      <point x="150" y="195" type="line"/>
    </contour>
    <contour>
      <point x="215" y="-276" type="line"/>
      <point x="410" y="-276" type="line"/>
      <point x="410" y="-81" type="line"/>
      <point x="215" y="-81" type="line"/>
    </contour>
  </outline>
</glyph>
<glyph name="dalathrishDotless-syriac" format="2">
  <advance width="686"/>
  <unicode hex="0716"/>
  <note>
U0716
</note>
  <anchor x="375" y="720" name="class0"/>
  <anchor x="345" y="-150" name="class0_"/>
  <anchor x="330" y="720" name="class1"/>
  <anchor x="375" y="-135" name="class2"/>
  <anchor x="315" y="-150" name="class3"/>
  <outline>
    <contour>
      <point x="150" y="0" type="line"/>
      <point x="636" y="0" type="line"/>
      <point x="666" y="47"/>
      <point x="681" y="103"/>
      <point x="681" y="169" type="curve" smooth="yes"/>
      <point x="681" y="293"/>
      <point x="650" y="395"/>
      <point x="587" y="476" type="curve" smooth="yes"/>
      <point x="517" y="567"/>
      <point x="419" y="612"/>
      <point x="294" y="612" type="curve" smooth="yes"/>
      <point x="217" y="612"/>
      <point x="150" y="580"/>
      <point x="150" y="531" type="curve" smooth="yes"/>
      <point x="150" y="347" type="line" smooth="yes"/>
      <point x="150" y="330"/>
      <point x="157" y="322"/>
      <point x="172" y="322" type="curve" smooth="yes"/>
      <point x="175" y="322"/>
      <point x="189" y="338"/>
      <point x="212" y="370" type="curve" smooth="yes"/>
      <point x="235" y="402"/>
      <point x="262" y="418"/>
      <point x="294" y="418" type="curve" smooth="yes"/>
      <point x="358" y="418"/>
      <point x="408" y="394"/>
      <point x="443" y="346" type="curve" smooth="yes"/>
      <point x="474" y="305"/>
      <point x="490" y="254"/>
      <point x="490" y="195" type="curve"/>
      <point x="150" y="195" type="line"/>
    </contour>
  </outline>
</glyph>
<glyph name="he-syriac" format="2">
  <advance width="965"/>
  <unicode hex="0717"/>
  <anchor x="405" y="-150" name="b.U0325_3"/>
  <anchor x="450" y="-150" name="b.U0331_2"/>
  <anchor x="510" y="-135" name="b.U0740"/>
  <anchor x="495" y="735" name="m.U030a_1"/>
  <anchor x="465" y="765" name="t.U0656"/>
  <outline>
    <contour>
      <point x="662" y="595" type="curve" smooth="yes"/>
      <point x="367" y="595" type="line" smooth="yes"/>
      <point x="213" y="595"/>
      <point x="100" y="440"/>
      <point x="100" y="287" type="curve" smooth="yes"/>
      <point x="100" y="138"/>
      <point x="207" y="-8"/>
      <point x="411" y="-8" type="curve" smooth="yes"/>
      <point x="630" y="-8"/>
      <point x="700" y="126"/>
      <point x="700" y="356" type="curve" smooth="yes"/>
      <point x="700" y="383"/>
      <point x="699" y="412"/>
      <point x="697" y="442" type="curve"/>
      <point x="527" y="433" type="line"/>
      <point x="537" y="334"/>
      <point x="539" y="254"/>
      <point x="519" y="210" type="curve"/>
      <point x="506" y="202"/>
      <point x="467" y="190"/>
      <point x="425" y="190" type="curve" smooth="yes"/>
      <point x="360" y="190"/>
      <point x="288" y="218"/>
      <point x="288" y="330" type="curve" smooth="yes"/>
      <point x="288" y="366"/>
      <point x="296" y="400"/>
      <point x="310" y="426" type="curve"/>
      <point x="268" y="400" type="line"/>
      <point x="826" y="400" type="line"/>
      <point x="776" y="445" type="line"/>
      <point x="803" y="-108" type="line" smooth="yes"/>
      <point x="805" y="-124"/>
      <point x="814" y="-133"/>
      <point x="824" y="-133" type="curve" smooth="yes"/>
      <point x="834" y="-133"/>
      <point x="845" y="-125"/>
      <point x="845" y="-107" type="curve" smooth="yes"/>
      <point x="865" y="577" type="line" smooth="yes"/>
      <point x="866" y="613"/>
      <point x="860" y="640"/>
      <point x="855" y="640" type="curve" smooth="yes"/>
      <point x="839" y="640"/>
      <point x="837" y="595"/>
    </contour>
  </outline>
</glyph>
<glyph name="waw-syriac" format="2">
  <advance width="812"/>
  <unicode hex="0718"/>
  <outline>
    <contour>
      <point x="405" y="-12" type="curve" smooth="yes"/>
      <point x="565" y="-12"/>
      <point x="703" y="34"/>
      <point x="703" y="226" type="curve" smooth="yes"/>
      <point x="703" y="401"/>
      <point x="594" y="612"/>
      <point x="405" y="612" type="curve" smooth="yes"/>
      <point x="227" y="612"/>
      <point x="96" y="418"/>
      <point x="96" y="244" type="curve" smooth="yes"/>
      <point x="96" y="168"/>
      <point x="120" y="97"/>
      <point x="177" y="47" type="curve" smooth="yes"/>
      <point x="229" y="1"/>
      <point x="301" y="-12"/>
    </contour>
    <contour>
      <point x="535" y="202" type="curve"/>
      <point x="509" y="188"/>
      <point x="468" y="183"/>
      <point x="429" y="183" type="curve" smooth="yes"/>
      <point x="344" y="183"/>
      <point x="264" y="204"/>
      <point x="264" y="292" type="curve" smooth="yes"/>
      <point x="264" y="363"/>
      <point x="328" y="417"/>
      <point x="395" y="417" type="curve" smooth="yes"/>
      <point x="467" y="417"/>
      <point x="542" y="354"/>
    </contour>
  </outline>
</glyph>
<glyph name="zain-syriac" format="2">
  <advance width="637"/>
  <unicode hex="0719"/>
  <note>
U0719
</note>
  <anchor x="300" y="705" name="class0"/>
  <anchor x="330" y="-315" name="class0_"/>
  <anchor x="345" y="660" name="class1"/>
  <anchor x="345" y="-345" name="class2"/>
  <anchor x="360" y="-315" name="class3"/>
  <outline>
    <contour>
      <point x="234" y="-221" type="curve" smooth="yes"/>
      <point x="272" y="-221"/>
      <point x="325" y="-168"/>
      <point x="394" y="-63" type="curve" smooth="yes"/>
      <point x="458" y="35"/>
      <point x="490" y="143"/>
      <point x="490" y="262" type="curve" smooth="yes"/>
      <point x="490" y="333"/>
      <point x="478" y="394"/>
      <point x="455" y="445" type="curve" smooth="yes"/>
      <point x="424" y="512"/>
      <point x="375" y="546"/>
      <point x="310" y="546" type="curve" smooth="yes"/>
      <point x="209" y="546"/>
      <point x="138" y="460"/>
      <point x="138" y="355" type="curve" smooth="yes"/>
      <point x="138" y="280"/>
      <point x="163" y="212"/>
      <point x="212" y="153" type="curve"/>
      <point x="340" y="28" type="line"/>
      <point x="337" y="6"/>
      <point x="323" y="-24"/>
      <point x="300" y="-63" type="curve" smooth="yes"/>
      <point x="281" y="-96"/>
      <point x="267" y="-118"/>
      <point x="257" y="-128" type="curve" smooth="yes"/>
      <point x="223" y="-161"/>
      <point x="206" y="-184"/>
      <point x="206" y="-197" type="curve" smooth="yes"/>
      <point x="206" y="-213"/>
      <point x="215" y="-221"/>
    </contour>
  </outline>
</glyph>
<glyph name="heth-syriac" format="2">
  <advance width="1341"/>
  <unicode hex="071A"/>
  <anchor x="735" y="-150" name="b.U0325_3"/>
  <anchor x="765" y="-165" name="b.U0331_2"/>
  <anchor x="870" y="-120" name="b.U0740"/>
  <anchor x="735" y="525" name="m.U030a_1"/>
  <anchor x="750" y="585" name="t.U0656"/>
  <outline>
    <component base="_heth-init" xOffset="796"/>
    <component base="_heth-med" xOffset="443"/>
    <component base="_LeftTail" xOffset="24"/>
    <contour>
      <point x="667" y="195" type="curve"/>
      <point x="357" y="195" type="line"/>
      <point x="357" y="0" type="line"/>
      <point x="548" y="0" type="line" smooth="yes"/>
      <point x="633" y="0"/>
      <point x="667" y="65"/>
    </contour>
  </outline>
</glyph>
<glyph name="tethGarshuni-syriac" format="2">
  <advance width="1596"/>
  <unicode hex="071C"/>
  <anchor x="765" y="-210" name="b.U0325_3"/>
  <anchor x="660" y="-210" name="b.U0331_2"/>
  <anchor x="750" y="-195" name="b.U0740"/>
  <anchor x="930" y="840" name="m.U030a_1"/>
  <anchor x="960" y="765" name="t.U0656"/>
  <outline>
    <component base="teth-syriac"/>
    <contour>
      <point x="1251" y="-147" type="curve" smooth="yes"/>
      <point x="1294" y="-147"/>
      <point x="1316" y="-126"/>
      <point x="1316" y="-83" type="curve" smooth="yes"/>
      <point x="1316" y="-40"/>
      <point x="1294" y="-19"/>
      <point x="1251" y="-19" type="curve" smooth="yes"/>
      <point x="1208" y="-19"/>
      <point x="1187" y="-40"/>
      <point x="1187" y="-83" type="curve" smooth="yes"/>
      <point x="1187" y="-126"/>
      <point x="1208" y="-147"/>
    </contour>
  </outline>
</glyph>
<glyph name="yudh-syriac" format="2">
  <advance width="921"/>
  <unicode hex="071D"/>
  <anchor x="516" y="-135" name="b.U0325_3"/>
  <anchor x="501" y="-165" name="b.U0331_2"/>
  <anchor x="456" y="-150" name="b.U0740"/>
  <anchor x="486" y="540" name="m.U030a_1"/>
  <anchor x="486" y="540" name="t.U0656"/>
  <outline>
    <component base="_heth-init" xOffset="337"/>
    <component base="_LeftTail"/>
    <contour>
      <point x="573" y="195" type="curve"/>
      <point x="333" y="195" type="line"/>
      <point x="333" y="0" type="line"/>
      <point x="454" y="0" type="line" smooth="yes"/>
      <point x="539" y="0"/>
      <point x="573" y="65"/>
    </contour>
  </outline>
</glyph>
<glyph name="kaph-syriac" format="2">
  <advance width="853"/>
  <unicode hex="071F"/>
  <note>
U071f
</note>
  <anchor x="420" y="765" name="class0"/>
  <anchor x="420" y="-180" name="class0_"/>
  <anchor x="420" y="765" name="class1"/>
  <anchor x="405" y="-210" name="class2"/>
  <anchor x="465" y="-210" name="class3"/>
  <outline>
    <contour>
      <point x="522" y="-689" type="curve"/>
      <point x="541" y="-689"/>
      <point x="600" y="-600"/>
      <point x="698" y="-421" type="curve" smooth="yes"/>
      <point x="805" y="-227"/>
      <point x="858" y="-82"/>
      <point x="858" y="15" type="curve" smooth="yes"/>
      <point x="858" y="194"/>
      <point x="781" y="284"/>
      <point x="628" y="284" type="curve" smooth="yes"/>
      <point x="550" y="284"/>
      <point x="479" y="242"/>
      <point x="415" y="158" type="curve"/>
      <point x="281" y="405" type="line"/>
      <point x="672" y="405" type="line"/>
      <point x="672" y="670" type="line" smooth="yes"/>
      <point x="672" y="677"/>
      <point x="668" y="680"/>
      <point x="660" y="680" type="curve" smooth="yes"/>
      <point x="649" y="680"/>
      <point x="634" y="667"/>
      <point x="617" y="640" type="curve" smooth="yes"/>
      <point x="600" y="613"/>
      <point x="580" y="600"/>
      <point x="559" y="600" type="curve" smooth="yes"/>
      <point x="347" y="600" type="line" smooth="yes"/>
      <point x="311" y="600"/>
      <point x="288" y="593"/>
      <point x="278" y="580" type="curve" smooth="yes"/>
      <point x="123" y="362" type="line" smooth="yes"/>
      <point x="116" y="353"/>
      <point x="113" y="342"/>
      <point x="113" y="327" type="curve" smooth="yes"/>
      <point x="113" y="321"/>
      <point x="121" y="303"/>
      <point x="137" y="273" type="curve" smooth="yes"/>
      <point x="302" y="-39" type="line"/>
      <point x="316" y="-73" type="line" smooth="yes"/>
      <point x="320" y="-81"/>
      <point x="327" y="-85"/>
      <point x="338" y="-85" type="curve" smooth="yes"/>
      <point x="342" y="-85"/>
      <point x="353" y="-70"/>
      <point x="372" y="-40" type="curve" smooth="yes"/>
      <point x="395" y="-3"/>
      <point x="418" y="25"/>
      <point x="439" y="44" type="curve" smooth="yes"/>
      <point x="472" y="74"/>
      <point x="508" y="89"/>
      <point x="547" y="89" type="curve" smooth="yes"/>
      <point x="624" y="89"/>
      <point x="675" y="70"/>
      <point x="700" y="31" type="curve" smooth="yes"/>
      <point x="719" y="2"/>
      <point x="728" y="-49"/>
      <point x="728" y="-122" type="curve" smooth="yes"/>
      <point x="728" y="-189"/>
      <point x="714" y="-261"/>
      <point x="687" y="-336" type="curve" smooth="yes"/>
      <point x="669" y="-385"/>
      <point x="644" y="-439"/>
      <point x="611" y="-498" type="curve" smooth="yes"/>
      <point x="584" y="-547"/>
      <point x="570" y="-573"/>
      <point x="570" y="-578" type="curve" smooth="yes"/>
      <point x="570" y="-585"/>
      <point x="561" y="-604"/>
      <point x="544" y="-633" type="curve" smooth="yes"/>
      <point x="527" y="-662"/>
      <point x="518" y="-680"/>
      <point x="518" y="-685" type="curve" smooth="yes"/>
      <point x="518" y="-687"/>
      <point x="519" y="-688"/>
    </contour>
  </outline>
</glyph>
<glyph name="mim-syriac" format="2">
  <advance width="993"/>
  <unicode hex="0721"/>
  <anchor x="585" y="735" name="class0"/>
  <anchor x="600" y="-150" name="class0_"/>
  <anchor x="630" y="735" name="class1"/>
  <anchor x="600" y="-150" name="class2"/>
  <anchor x="570" y="-150" name="class3"/>
  <outline>
    <contour>
      <point x="173" y="-154" type="curve" smooth="yes"/>
      <point x="182" y="-154"/>
      <point x="192" y="-147"/>
      <point x="202" y="-134" type="curve" smooth="yes"/>
      <point x="300" y="0" type="line"/>
      <point x="993" y="0" type="line"/>
      <point x="993" y="195" type="line"/>
      <point x="966" y="264"/>
      <point x="953" y="349"/>
      <point x="953" y="450" type="curve" smooth="yes"/>
      <point x="953" y="496"/>
      <point x="956" y="533"/>
      <point x="963" y="562" type="curve" smooth="yes"/>
      <point x="969" y="590"/>
      <point x="972" y="610"/>
      <point x="972" y="622" type="curve" smooth="yes"/>
      <point x="972" y="641"/>
      <point x="964" y="650"/>
      <point x="949" y="650" type="curve" smooth="yes"/>
      <point x="936" y="650"/>
      <point x="920" y="642"/>
      <point x="900" y="625" type="curve" smooth="yes"/>
      <point x="880" y="608"/>
      <point x="862" y="600"/>
      <point x="847" y="600" type="curve" smooth="yes"/>
      <point x="286" y="600" type="line" smooth="yes"/>
      <point x="235" y="600"/>
      <point x="201" y="614"/>
      <point x="185" y="642" type="curve" smooth="yes"/>
      <point x="169" y="670"/>
      <point x="152" y="684"/>
      <point x="134" y="684" type="curve" smooth="yes"/>
      <point x="121" y="684"/>
      <point x="115" y="672"/>
      <point x="115" y="647" type="curve" smooth="yes"/>
      <point x="115" y="483" type="line" smooth="yes"/>
      <point x="115" y="431"/>
      <point x="153" y="405"/>
      <point x="228" y="405" type="curve" smooth="yes"/>
      <point x="448" y="405" type="line"/>
      <point x="165" y="-96" type="line" smooth="yes"/>
      <point x="156" y="-112"/>
      <point x="151" y="-124"/>
      <point x="151" y="-131" type="curve" smooth="yes"/>
      <point x="152" y="-146"/>
      <point x="159" y="-154"/>
    </contour>
    <contour>
      <point x="434" y="195" type="line"/>
      <point x="548" y="405" type="line"/>
      <point x="787" y="405" type="line"/>
      <point x="787" y="195" type="line"/>
    </contour>
  </outline>
</glyph>
<glyph name="nun-syriac" format="2">
  <advance width="831"/>
  <unicode hex="0722"/>
  <note>
U0722
</note>
  <anchor x="375" y="450" name="class0"/>
  <anchor x="450" y="-210" name="class0_"/>
  <anchor x="345" y="405" name="class1"/>
  <anchor x="360" y="-150" name="class2"/>
  <anchor x="375" y="-165" name="class3"/>
  <outline>
    <contour>
      <point x="941" y="-525" type="curve" smooth="yes"/>
      <point x="950" y="-525"/>
      <point x="955" y="-521"/>
      <point x="955" y="-514" type="curve" smooth="yes"/>
      <point x="955" y="-510"/>
      <point x="950" y="-501"/>
      <point x="939" y="-488" type="curve" smooth="yes"/>
      <point x="360" y="263" type="line" smooth="yes"/>
      <point x="355" y="270"/>
      <point x="346" y="274"/>
      <point x="335" y="274" type="curve" smooth="yes"/>
      <point x="325" y="274"/>
      <point x="312" y="268"/>
      <point x="296" y="257" type="curve" smooth="yes"/>
      <point x="173" y="170" type="line"/>
      <point x="320" y="-25" type="line"/>
      <point x="423" y="51" type="line"/>
      <point x="926" y="-515" type="line"/>
      <point x="931" y="-522"/>
      <point x="936" y="-525"/>
    </contour>
  </outline>
</glyph>
<glyph name="semkathFinal-syriac" format="2">
  <advance width="1236"/>
  <unicode hex="0724"/>
  <anchor x="713" y="-210" name="b.U0325_3"/>
  <anchor x="728" y="-210" name="b.U0331_2"/>
  <anchor x="713" y="-225" name="b.U0740"/>
  <anchor x="803" y="780" name="m.U030a_1"/>
  <anchor x="758" y="810" name="t.U0656"/>
  <outline>
    <component base="_LeftTail"/>
    <contour>
      <point x="809" y="386" type="line"/>
      <point x="810" y="396"/>
      <point x="810" y="406"/>
      <point x="810" y="415" type="curve" smooth="yes"/>
      <point x="810" y="591"/>
      <point x="711" y="682"/>
      <point x="593" y="682" type="curve" smooth="yes"/>
      <point x="454" y="682"/>
      <point x="356" y="566"/>
      <point x="356" y="420" type="curve" smooth="yes"/>
      <point x="356" y="232"/>
      <point x="520" y="-10"/>
      <point x="802" y="-10" type="curve" smooth="yes"/>
      <point x="1038" y="-10"/>
      <point x="1136" y="149"/>
      <point x="1136" y="299" type="curve" smooth="yes"/>
      <point x="1136" y="459"/>
      <point x="1040" y="555"/>
      <point x="933" y="555" type="curve" smooth="yes"/>
      <point x="858" y="555"/>
      <point x="777" y="509"/>
      <point x="717" y="406" type="curve"/>
    </contour>
    <contour>
      <point x="580" y="-149" type="curve" smooth="yes"/>
      <point x="770" y="315"/>
      <point x="797" y="364"/>
      <point x="890" y="364" type="curve" smooth="yes"/>
      <point x="941" y="364"/>
      <point x="971" y="332"/>
      <point x="971" y="296" type="curve" smooth="yes"/>
      <point x="971" y="246"/>
      <point x="919" y="187"/>
      <point x="803" y="187" type="curve" smooth="yes"/>
      <point x="640" y="187"/>
      <point x="521" y="284"/>
      <point x="521" y="396" type="curve" smooth="yes"/>
      <point x="521" y="453"/>
      <point x="558" y="488"/>
      <point x="602" y="488" type="curve" smooth="yes"/>
      <point x="651" y="488"/>
      <point x="699" y="443"/>
      <point x="699" y="370" type="curve" smooth="yes"/>
      <point x="699" y="305"/>
      <point x="667" y="201"/>
      <point x="541" y="-133" type="curve" smooth="yes"/>
      <point x="540" y="-137"/>
      <point x="539" y="-141"/>
      <point x="539" y="-144" type="curve" smooth="yes"/>
      <point x="539" y="-157"/>
      <point x="548" y="-166"/>
      <point x="559" y="-166" type="curve" smooth="yes"/>
      <point x="567" y="-166"/>
      <point x="575" y="-161"/>
    </contour>
    <contour>
      <point x="593" y="195" type="curve"/>
      <point x="353" y="195" type="line"/>
      <point x="353" y="0" type="line"/>
      <point x="474" y="0" type="line" smooth="yes"/>
      <point x="559" y="0"/>
      <point x="593" y="65"/>
    </contour>
  </outline>
</glyph>
<glyph name="pe-syriac" format="2">
  <advance width="1146"/>
  <unicode hex="0726"/>
  <note>
U0726
</note>
  <anchor x="795" y="990" name="class0"/>
  <anchor x="765" y="-135" name="class0_"/>
  <anchor x="795" y="990" name="class1"/>
  <anchor x="780" y="-135" name="class2"/>
  <anchor x="780" y="-150" name="class3"/>
  <outline>
    <contour>
      <point x="324" y="0" type="curve" smooth="yes"/>
      <point x="1146" y="0" type="line"/>
      <point x="1146" y="195" type="line"/>
      <point x="1054" y="526" type="line"/>
      <point x="1021" y="661"/>
      <point x="1005" y="777"/>
      <point x="1005" y="874" type="curve" smooth="yes"/>
      <point x="1005" y="893"/>
      <point x="997" y="902"/>
      <point x="981" y="902" type="curve" smooth="yes"/>
      <point x="972" y="902"/>
      <point x="952" y="892"/>
      <point x="919" y="872" type="curve" smooth="yes"/>
      <point x="883" y="849"/>
      <point x="858" y="835"/>
      <point x="845" y="831" type="curve" smooth="yes"/>
      <point x="683" y="782" type="line" smooth="yes"/>
      <point x="568" y="748"/>
      <point x="511" y="680"/>
      <point x="511" y="578" type="curve" smooth="yes"/>
      <point x="511" y="482"/>
      <point x="543" y="414"/>
      <point x="606" y="375" type="curve" smooth="yes"/>
      <point x="655" y="346"/>
      <point x="730" y="331"/>
      <point x="829" y="331" type="curve" smooth="yes"/>
      <point x="918" y="331" type="line"/>
      <point x="955" y="195" type="line"/>
      <point x="324" y="195" type="line" smooth="yes"/>
      <point x="286" y="195"/>
      <point x="250" y="211"/>
      <point x="215" y="242" type="curve" smooth="yes"/>
      <point x="199" y="256"/>
      <point x="187" y="279"/>
      <point x="178" y="312" type="curve" smooth="yes"/>
      <point x="171" y="339"/>
      <point x="164" y="352"/>
      <point x="157" y="352" type="curve" smooth="yes"/>
      <point x="146" y="352"/>
      <point x="137" y="332"/>
      <point x="130" y="291" type="curve" smooth="yes"/>
      <point x="125" y="262"/>
      <point x="122" y="237"/>
      <point x="122" y="217" type="curve" smooth="yes"/>
      <point x="122" y="139"/>
      <point x="136" y="84"/>
      <point x="164" y="52" type="curve" smooth="yes"/>
      <point x="194" y="17"/>
      <point x="247" y="0"/>
    </contour>
    <contour>
      <point x="809" y="485" type="line" smooth="yes"/>
      <point x="740" y="485"/>
      <point x="705" y="514"/>
      <point x="705" y="572" type="curve" smooth="yes"/>
      <point x="705" y="605"/>
      <point x="721" y="627"/>
      <point x="754" y="640" type="curve" smooth="yes"/>
      <point x="763" y="644"/>
      <point x="794" y="650"/>
      <point x="845" y="659" type="curve"/>
      <point x="883" y="485" type="line"/>
    </contour>
  </outline>
</glyph>
<glyph name="reversedpe-syriac" format="2">
  <advance width="1146"/>
  <unicode hex="0727"/>
  <note>
U0727
</note>
  <anchor x="540" y="1035" name="class0"/>
  <anchor x="525" y="-150" name="class0_"/>
  <anchor x="990" y="885" name="class1"/>
  <anchor x="720" y="-195" name="class2"/>
  <anchor x="1185" y="-150" name="class3"/>
  <outline>
    <contour>
      <point x="122" y="0" type="line"/>
      <point x="944" y="0" type="line" smooth="yes"/>
      <point x="1021" y="0"/>
      <point x="1074" y="17"/>
      <point x="1104" y="52" type="curve" smooth="yes"/>
      <point x="1132" y="84"/>
      <point x="1146" y="139"/>
      <point x="1146" y="217" type="curve" smooth="yes"/>
      <point x="1146" y="237"/>
      <point x="1144" y="262"/>
      <point x="1139" y="291" type="curve" smooth="yes"/>
      <point x="1132" y="332"/>
      <point x="1122" y="352"/>
      <point x="1111" y="352" type="curve" smooth="yes"/>
      <point x="1104" y="352"/>
      <point x="1097" y="339"/>
      <point x="1090" y="312" type="curve" smooth="yes"/>
      <point x="1081" y="279"/>
      <point x="1069" y="256"/>
      <point x="1053" y="242" type="curve" smooth="yes"/>
      <point x="1018" y="211"/>
      <point x="982" y="195"/>
      <point x="944" y="195" type="curve" smooth="yes"/>
      <point x="313" y="195" type="line"/>
      <point x="350" y="331" type="line"/>
      <point x="439" y="331" type="line" smooth="yes"/>
      <point x="538" y="331"/>
      <point x="613" y="346"/>
      <point x="662" y="375" type="curve" smooth="yes"/>
      <point x="725" y="414"/>
      <point x="757" y="482"/>
      <point x="757" y="578" type="curve" smooth="yes"/>
      <point x="757" y="680"/>
      <point x="700" y="748"/>
      <point x="585" y="782" type="curve" smooth="yes"/>
      <point x="423" y="831" type="line" smooth="yes"/>
      <point x="410" y="835"/>
      <point x="385" y="849"/>
      <point x="349" y="872" type="curve" smooth="yes"/>
      <point x="316" y="892"/>
      <point x="296" y="902"/>
      <point x="287" y="902" type="curve" smooth="yes"/>
      <point x="271" y="902"/>
      <point x="263" y="893"/>
      <point x="263" y="874" type="curve" smooth="yes"/>
      <point x="263" y="777"/>
      <point x="247" y="661"/>
      <point x="214" y="526" type="curve"/>
      <point x="122" y="195" type="line"/>
    </contour>
    <contour>
      <point x="385" y="485" type="line"/>
      <point x="423" y="659" type="line"/>
      <point x="474" y="650"/>
      <point x="505" y="644"/>
      <point x="514" y="640" type="curve" smooth="yes"/>
      <point x="547" y="627"/>
      <point x="563" y="605"/>
      <point x="563" y="572" type="curve" smooth="yes"/>
      <point x="563" y="514"/>
      <point x="528" y="485"/>
      <point x="459" y="485" type="curve" smooth="yes"/>
    </contour>
  </outline>
</glyph>
<glyph name="sadhe-syriac" format="2">
  <advance width="780"/>
  <unicode hex="0728"/>
  <note>
U0728
</note>
  <anchor x="360" y="420" name="class0"/>
  <anchor x="405" y="-645" name="class0_"/>
  <anchor x="345" y="390" name="class1"/>
  <anchor x="435" y="-615" name="class2"/>
  <anchor x="435" y="-615" name="class3"/>
  <outline>
    <contour>
      <point x="317" y="-510" type="curve" smooth="yes"/>
      <point x="593" y="-510" type="line" smooth="yes"/>
      <point x="625" y="-510"/>
      <point x="659" y="-506"/>
      <point x="695" y="-499" type="curve" smooth="yes"/>
      <point x="741" y="-490"/>
      <point x="764" y="-479"/>
      <point x="764" y="-465" type="curve" smooth="yes"/>
      <point x="764" y="-382" type="line" smooth="yes"/>
      <point x="764" y="-363"/>
      <point x="751" y="-345"/>
      <point x="725" y="-330" type="curve" smooth="yes"/>
      <point x="663" y="-293"/>
      <point x="600" y="-245"/>
      <point x="537" y="-186" type="curve" smooth="yes"/>
      <point x="468" y="-121"/>
      <point x="419" y="-59"/>
      <point x="388" y="-1" type="curve"/>
      <point x="514" y="-1" type="line" smooth="yes"/>
      <point x="568" y="-1"/>
      <point x="610" y="17"/>
      <point x="641" y="53" type="curve"/>
      <point x="679" y="17"/>
      <point x="718" y="-1"/>
      <point x="758" y="-1" type="curve"/>
      <point x="758" y="112" type="line" smooth="yes"/>
      <point x="758" y="129"/>
      <point x="731" y="171"/>
      <point x="676" y="237" type="curve" smooth="yes"/>
      <point x="628" y="295"/>
      <point x="600" y="324"/>
      <point x="592" y="324" type="curve" smooth="yes"/>
      <point x="575" y="324"/>
      <point x="561" y="313"/>
      <point x="551" y="290" type="curve" smooth="yes"/>
      <point x="536" y="255"/>
      <point x="526" y="234"/>
      <point x="520" y="227" type="curve" smooth="yes"/>
      <point x="501" y="204"/>
      <point x="471" y="193"/>
      <point x="430" y="193" type="curve" smooth="yes"/>
      <point x="364" y="193"/>
      <point x="312" y="204"/>
      <point x="275" y="227" type="curve" smooth="yes"/>
      <point x="252" y="241"/>
      <point x="232" y="262"/>
      <point x="216" y="290" type="curve" smooth="yes"/>
      <point x="203" y="313"/>
      <point x="193" y="324"/>
      <point x="186" y="324" type="curve" smooth="yes"/>
      <point x="167" y="324"/>
      <point x="153" y="308"/>
      <point x="142" y="277" type="curve" smooth="yes"/>
      <point x="135" y="254"/>
      <point x="131" y="231"/>
      <point x="131" y="208" type="curve" smooth="yes"/>
      <point x="131" y="-9"/>
      <point x="272" y="-223"/>
      <point x="555" y="-436" type="curve"/>
      <point x="399" y="-443"/>
      <point x="278" y="-453"/>
      <point x="192" y="-464" type="curve" smooth="yes"/>
      <point x="136" y="-470" type="line"/>
      <point x="122" y="-473"/>
      <point x="115" y="-479"/>
      <point x="115" y="-488" type="curve" smooth="yes"/>
      <point x="115" y="-503"/>
      <point x="182" y="-510"/>
    </contour>
  </outline>
</glyph>
<glyph name="qaph-syriac" format="2">
  <advance width="1058"/>
  <unicode hex="0729"/>
  <note>
U0729
</note>
  <anchor x="705" y="795" name="class0"/>
  <anchor x="750" y="-150" name="class0_"/>
  <anchor x="750" y="780" name="class1"/>
  <anchor x="765" y="-150" name="class2"/>
  <anchor x="765" y="-150" name="class3"/>
  <outline>
    <contour>
      <point x="324" y="0" type="curve" smooth="yes"/>
      <point x="384" y="0" type="line" smooth="yes"/>
      <point x="432" y="0"/>
      <point x="466" y="22"/>
      <point x="485" y="66" type="curve"/>
      <point x="518" y="22"/>
      <point x="561" y="0"/>
      <point x="616" y="0" type="curve" smooth="yes"/>
      <point x="960" y="0" type="line" smooth="yes"/>
      <point x="999" y="0"/>
      <point x="1025" y="20"/>
      <point x="1037" y="60" type="curve" smooth="yes"/>
      <point x="1051" y="106"/>
      <point x="1058" y="208"/>
      <point x="1058" y="365" type="curve" smooth="yes"/>
      <point x="1058" y="458"/>
      <point x="1051" y="536"/>
      <point x="1038" y="600" type="curve" smooth="yes"/>
      <point x="1031" y="631"/>
      <point x="1022" y="646"/>
      <point x="1010" y="645" type="curve" smooth="yes"/>
      <point x="1004" y="644"/>
      <point x="994" y="637"/>
      <point x="981" y="622" type="curve" smooth="yes"/>
      <point x="968" y="607"/>
      <point x="948" y="600"/>
      <point x="922" y="600" type="curve" smooth="yes"/>
      <point x="561" y="600" type="line" smooth="yes"/>
      <point x="535" y="600"/>
      <point x="515" y="607"/>
      <point x="502" y="622" type="curve" smooth="yes"/>
      <point x="489" y="637"/>
      <point x="479" y="644"/>
      <point x="473" y="645" type="curve" smooth="yes"/>
      <point x="462" y="646"/>
      <point x="453" y="631"/>
      <point x="445" y="600" type="curve" smooth="yes"/>
      <point x="430" y="545"/>
      <point x="425" y="463"/>
      <point x="429" y="352" type="curve" smooth="yes"/>
      <point x="432" y="256"/>
      <point x="435" y="204"/>
      <point x="437" y="195" type="curve"/>
      <point x="324" y="195" type="line" smooth="yes"/>
      <point x="286" y="195"/>
      <point x="250" y="211"/>
      <point x="215" y="242" type="curve" smooth="yes"/>
      <point x="199" y="256"/>
      <point x="187" y="279"/>
      <point x="178" y="312" type="curve" smooth="yes"/>
      <point x="171" y="339"/>
      <point x="164" y="352"/>
      <point x="157" y="352" type="curve" smooth="yes"/>
      <point x="146" y="352"/>
      <point x="137" y="332"/>
      <point x="130" y="291" type="curve" smooth="yes"/>
      <point x="125" y="262"/>
      <point x="122" y="237"/>
      <point x="122" y="217" type="curve" smooth="yes"/>
      <point x="122" y="139"/>
      <point x="136" y="84"/>
      <point x="164" y="52" type="curve" smooth="yes"/>
      <point x="194" y="17"/>
      <point x="247" y="0"/>
    </contour>
    <contour>
      <point x="623" y="195" type="line"/>
      <point x="623" y="405" type="line"/>
      <point x="864" y="405" type="line"/>
      <point x="864" y="195" type="line"/>
    </contour>
  </outline>
</glyph>
<glyph name="rish-syriac" format="2">
  <advance width="686"/>
  <unicode hex="072A"/>
  <note>
U072a
</note>
  <anchor x="300" y="1005" name="class0"/>
  <anchor x="360" y="-150" name="class0_"/>
  <anchor x="300" y="1020" name="class1"/>
  <anchor x="360" y="-150" name="class2"/>
  <anchor x="315" y="-165" name="class3"/>
  <outline>
    <contour>
      <point x="150" y="0" type="line"/>
      <point x="636" y="0" type="line"/>
      <point x="666" y="47"/>
      <point x="681" y="103"/>
      <point x="681" y="169" type="curve" smooth="yes"/>
      <point x="681" y="293"/>
      <point x="650" y="395"/>
      <point x="587" y="476" type="curve" smooth="yes"/>
      <point x="517" y="567"/>
      <point x="419" y="612"/>
      <point x="294" y="612" type="curve" smooth="yes"/>
      <point x="217" y="612"/>
      <point x="150" y="580"/>
      <point x="150" y="531" type="curve" smooth="yes"/>
      <point x="150" y="347" type="line" smooth="yes"/>
      <point x="150" y="330"/>
      <point x="157" y="322"/>
      <point x="172" y="322" type="curve" smooth="yes"/>
      <point x="175" y="322"/>
      <point x="189" y="338"/>
      <point x="212" y="370" type="curve" smooth="yes"/>
      <point x="235" y="402"/>
      <point x="262" y="418"/>
      <point x="294" y="418" type="curve" smooth="yes"/>
      <point x="358" y="418"/>
      <point x="408" y="394"/>
      <point x="443" y="346" type="curve" smooth="yes"/>
      <point x="474" y="305"/>
      <point x="490" y="254"/>
      <point x="490" y="195" type="curve"/>
      <point x="150" y="195" type="line"/>
    </contour>
    <contour>
      <point x="242" y="714" type="line"/>
      <point x="437" y="714" type="line"/>
      <point x="437" y="909" type="line"/>
      <point x="242" y="909" type="line"/>
    </contour>
  </outline>
</glyph>
<glyph name="taw-syriac" format="2">
  <advance width="1060"/>
  <unicode hex="072C"/>
  <anchor x="476" y="-165" name="b.U0325_3"/>
  <anchor x="476" y="-135" name="b.U0331_2"/>
  <anchor x="476" y="-180" name="b.U0740"/>
  <anchor x="401" y="960" name="m.U030a_1"/>
  <anchor x="416" y="975" name="t.U0656"/>
  <outline>
    <contour>
      <point x="704" y="-23" type="curve" smooth="yes"/>
      <point x="716" y="-23"/>
      <point x="720" y="-16"/>
      <point x="720" y="-1" type="curve" smooth="yes"/>
      <point x="720" y="83"/>
      <point x="533" y="289"/>
      <point x="319" y="289" type="curve" smooth="yes"/>
      <point x="289" y="289"/>
      <point x="257" y="286"/>
      <point x="226" y="278" type="curve"/>
      <point x="239" y="150" type="line"/>
      <point x="453" y="622" type="line"/>
      <point x="378" y="573" type="line"/>
      <point x="506" y="446"/>
      <point x="710" y="207"/>
      <point x="880" y="0" type="curve"/>
      <point x="901" y="0"/>
      <point x="960" y="114"/>
      <point x="960" y="172" type="curve" smooth="yes"/>
      <point x="960" y="184"/>
      <point x="958" y="193"/>
      <point x="953" y="199" type="curve" smooth="yes"/>
      <point x="683" y="519"/>
      <point x="480" y="831"/>
      <point x="466" y="831" type="curve" smooth="yes"/>
      <point x="455" y="831"/>
      <point x="447" y="818"/>
      <point x="436" y="793" type="curve" smooth="yes"/>
      <point x="345" y="579"/>
      <point x="179" y="250"/>
      <point x="100" y="21" type="curve"/>
      <point x="123" y="-7"/>
      <point x="171" y="-9"/>
      <point x="190" y="-9" type="curve"/>
      <point x="297" y="55"/>
      <point x="371" y="91"/>
      <point x="471" y="91" type="curve" smooth="yes"/>
      <point x="593" y="91"/>
      <point x="677" y="-23"/>
    </contour>
  </outline>
</glyph>
<glyph name="pthahaabove-syriac" format="2">
  <unicode hex="0730"/>
  <anchor x="255" y="90" name="_m.U0656"/>
  <anchor x="195" y="60" name="_t.U0656"/>
  <anchor x="195" y="15" name="_t.U0656_2"/>
  <anchor x="165" y="435" name="t.U0656_2"/>
  <outline>
    <contour>
      <point x="271" y="210" type="line"/>
      <point x="315" y="247" type="line"/>
      <point x="84" y="288" type="line"/>
      <point x="41" y="57" type="line"/>
      <point x="92" y="90" type="line"/>
      <point x="126" y="273" type="line"/>
      <point x="85" y="243" type="line"/>
    </contour>
    <contour>
      <point x="343" y="278" type="line"/>
      <point x="-1" y="37" type="line"/>
      <point x="28" y="0" type="line"/>
      <point x="372" y="241" type="line"/>
    </contour>
  </outline>
</glyph>
<glyph name="pthahabelow-syriac" format="2">
  <unicode hex="0731"/>
  <note>
U0731
</note>
  <anchor x="240" y="-45" name="_class2"/>
  <outline>
    <contour>
      <point x="290" y="-287" type="line"/>
      <point x="328" y="-71" type="line"/>
      <point x="377" y="-37" type="line"/>
      <point x="348" y="0" type="line"/>
      <point x="5" y="-241" type="line"/>
      <point x="33" y="-278" type="line"/>
      <point x="74" y="-249" type="line"/>
    </contour>
    <contour>
      <point x="256" y="-243" type="line"/>
      <point x="120" y="-218" type="line"/>
      <point x="283" y="-104" type="line"/>
    </contour>
  </outline>
</glyph>
<glyph name="zqaphaabove-syriac" format="2">
  <unicode hex="0733"/>
  <note>
U0733
</note>
  <anchor x="105" y="45" name="_class0"/>
  <outline>
    <contour>
      <point x="0" y="0" type="line"/>
      <point x="136" y="112" type="line"/>
      <point x="186" y="157"/>
      <point x="211" y="208"/>
      <point x="211" y="263" type="curve" smooth="yes"/>
      <point x="211" y="310"/>
      <point x="182" y="355"/>
      <point x="138" y="355" type="curve" smooth="yes"/>
      <point x="77" y="355"/>
      <point x="32" y="297"/>
      <point x="32" y="234" type="curve" smooth="yes"/>
      <point x="32" y="193"/>
      <point x="45" y="150"/>
      <point x="72" y="104" type="curve"/>
      <point x="52" y="84"/>
      <point x="33" y="68"/>
      <point x="15" y="57" type="curve"/>
    </contour>
    <contour>
      <point x="109" y="140" type="curve"/>
      <point x="88" y="176"/>
      <point x="77" y="211"/>
      <point x="77" y="244" type="curve" smooth="yes"/>
      <point x="77" y="289"/>
      <point x="97" y="312"/>
      <point x="136" y="312" type="curve" smooth="yes"/>
      <point x="159" y="312"/>
      <point x="171" y="297"/>
      <point x="171" y="268" type="curve" smooth="yes"/>
      <point x="171" y="229"/>
      <point x="150" y="187"/>
    </contour>
  </outline>
</glyph>
<glyph name="zqaphadotted-syriac" format="2">
  <unicode hex="0735"/>
  <note>
U0735
</note>
  <anchor x="210" y="90" name="_class0"/>
  <outline>
    <contour>
      <point x="273" y="61" type="curve" smooth="yes"/>
      <point x="305" y="61"/>
      <point x="335" y="82"/>
      <point x="362" y="125" type="curve" smooth="yes"/>
      <point x="379" y="152"/>
      <point x="388" y="181"/>
      <point x="388" y="212" type="curve" smooth="yes"/>
      <point x="388" y="243"/>
      <point x="372" y="248"/>
      <point x="357" y="248" type="curve" smooth="yes"/>
      <point x="324" y="248"/>
      <point x="293" y="226"/>
      <point x="264" y="181" type="curve" smooth="yes"/>
      <point x="247" y="156"/>
      <point x="239" y="129"/>
      <point x="239" y="101" type="curve" smooth="yes"/>
      <point x="239" y="84"/>
      <point x="244" y="73"/>
      <point x="253" y="67" type="curve" smooth="yes"/>
      <point x="259" y="63"/>
      <point x="266" y="61"/>
    </contour>
    <contour>
      <point x="115" y="208" type="curve" smooth="yes"/>
      <point x="147" y="208"/>
      <point x="177" y="229"/>
      <point x="204" y="272" type="curve" smooth="yes"/>
      <point x="221" y="299"/>
      <point x="230" y="328"/>
      <point x="230" y="359" type="curve" smooth="yes"/>
      <point x="230" y="390"/>
      <point x="214" y="395"/>
      <point x="199" y="395" type="curve" smooth="yes"/>
      <point x="166" y="395"/>
      <point x="135" y="373"/>
      <point x="106" y="328" type="curve" smooth="yes"/>
      <point x="89" y="303"/>
      <point x="81" y="276"/>
      <point x="81" y="248" type="curve" smooth="yes"/>
      <point x="81" y="231"/>
      <point x="86" y="220"/>
      <point x="95" y="214" type="curve" smooth="yes"/>
      <point x="101" y="210"/>
      <point x="108" y="208"/>
    </contour>
  </outline>
</glyph>
<glyph name="rbasaabove-syriac" format="2">
  <unicode hex="0736"/>
  <note>
U0736
</note>
  <anchor x="210" y="30" name="_class0"/>
  <outline>
    <contour>
      <point x="129" y="0" type="line"/>
      <point x="250" y="211" type="line"/>
      <point x="275" y="186"/>
      <point x="287" y="151"/>
      <point x="287" y="108" type="curve" smooth="yes"/>
      <point x="287" y="81"/>
      <point x="282" y="48"/>
      <point x="272" y="9" type="curve"/>
      <point x="320" y="57" type="line"/>
      <point x="327" y="88"/>
      <point x="331" y="116"/>
      <point x="331" y="141" type="curve" smooth="yes"/>
      <point x="331" y="233"/>
      <point x="272" y="296"/>
      <point x="180" y="296" type="curve" smooth="yes"/>
      <point x="125" y="296"/>
      <point x="67" y="264"/>
      <point x="5" y="199" type="curve"/>
      <point x="55" y="232"/>
      <point x="104" y="249"/>
      <point x="152" y="249" type="curve" smooth="yes"/>
      <point x="173" y="249"/>
      <point x="192" y="246"/>
      <point x="209" y="239" type="curve"/>
      <point x="86" y="25" type="line"/>
    </contour>
  </outline>
</glyph>
<glyph name="hbasaEsasadotted-syriac" format="2">
  <unicode hex="073C"/>
  <note>
U073c
</note>
  <anchor x="60" y="-60" name="_class2"/>
  <outline>
    <contour>
      <point x="74" y="-243" type="curve" smooth="yes"/>
      <point x="93" y="-243"/>
      <point x="108" y="-229"/>
      <point x="119" y="-201" type="curve" smooth="yes"/>
      <point x="128" y="-179"/>
      <point x="133" y="-157"/>
      <point x="133" y="-135" type="curve" smooth="yes"/>
      <point x="133" y="-117"/>
      <point x="129" y="-96"/>
      <point x="120" y="-72" type="curve" smooth="yes"/>
      <point x="109" y="-43"/>
      <point x="96" y="-29"/>
      <point x="81" y="-29" type="curve" smooth="yes"/>
      <point x="62" y="-29"/>
      <point x="46" y="-44"/>
      <point x="34" y="-73" type="curve" smooth="yes"/>
      <point x="25" y="-96"/>
      <point x="20" y="-118"/>
      <point x="20" y="-141" type="curve" smooth="yes"/>
      <point x="20" y="-160"/>
      <point x="24" y="-181"/>
      <point x="33" y="-202" type="curve" smooth="yes"/>
      <point x="44" y="-229"/>
      <point x="58" y="-243"/>
    </contour>
  </outline>
</glyph>
<glyph name="qushshaya-syriac" format="2">
  <unicode hex="0741"/>
  <anchor x="120" y="-15" name="_m.U030a_1"/>
  <anchor x="75" y="0" name="_m.U030a_1_2"/>
  <outline>
    <contour>
      <point x="23" y="5" type="line"/>
      <point x="188" y="5" type="line"/>
      <point x="188" y="170" type="line"/>
      <point x="23" y="170" type="line"/>
    </contour>
  </outline>
</glyph>
<glyph name="rukkakha-syriac" format="2">
  <unicode hex="0742"/>
  <note>
U0742
</note>
  <anchor x="60" y="-45" name="_class3"/>
  <outline>
    <contour>
      <point x="74" y="-230" type="curve" smooth="yes"/>
      <point x="93" y="-230"/>
      <point x="108" y="-216"/>
      <point x="119" y="-188" type="curve" smooth="yes"/>
      <point x="128" y="-166"/>
      <point x="133" y="-144"/>
      <point x="133" y="-122" type="curve" smooth="yes"/>
      <point x="133" y="-104"/>
      <point x="129" y="-83"/>
      <point x="120" y="-59" type="curve" smooth="yes"/>
      <point x="109" y="-30"/>
      <point x="96" y="-16"/>
      <point x="81" y="-16" type="curve" smooth="yes"/>
      <point x="62" y="-16"/>
      <point x="46" y="-31"/>
      <point x="34" y="-60" type="curve" smooth="yes"/>
      <point x="25" y="-83"/>
      <point x="20" y="-105"/>
      <point x="20" y="-128" type="curve" smooth="yes"/>
      <point x="20" y="-147"/>
      <point x="24" y="-168"/>
      <point x="33" y="-189" type="curve" smooth="yes"/>
      <point x="44" y="-216"/>
      <point x="58" y="-230"/>
    </contour>
  </outline>
</glyph>
<glyph name="obliquelineabove-syriac" format="2">
  <unicode hex="0747"/>
  <note>
U0747
</note>
  <anchor x="150" y="60" name="_class0"/>
  <outline>
    <contour>
      <point x="-13" y="46" type="line"/>
      <point x="397" y="237" type="line"/>
      <point x="372" y="292" type="line"/>
      <point x="-36" y="102" type="line"/>
    </contour>
  </outline>
</glyph>
<glyph name="music-syriac" format="2">
  <unicode hex="0749"/>
  <note>
U0749
</note>
  <anchor x="330" y="180" name="_class0"/>
  <outline>
    <contour>
      <point x="8" y="36" type="line"/>
      <point x="584" y="438" type="line"/>
      <point x="584" y="520" type="line"/>
      <point x="8" y="116" type="line"/>
    </contour>
  </outline>
</glyph>
<glyph name="quoteleft" format="2">
  <advance width="500"/>
  <unicode hex="2018"/>
  <note>
quoteleft
</note>
  <outline>
    <contour>
      <point x="252" y="764" type="curve" smooth="yes"/>
      <point x="296" y="764"/>
      <point x="331" y="801"/>
      <point x="331" y="845" type="curve" smooth="yes"/>
      <point x="331" y="889"/>
      <point x="311" y="916"/>
      <point x="272" y="927" type="curve"/>
      <point x="272" y="965"/>
      <point x="294" y="995"/>
      <point x="339" y="1016" type="curve"/>
      <point x="325" y="1025"/>
      <point x="318" y="1062"/>
      <point x="318" y="1125" type="curve"/>
      <point x="219" y="1048"/>
      <point x="170" y="960"/>
      <point x="170" y="862" type="curve" smooth="yes"/>
      <point x="170" y="836"/>
      <point x="177" y="814"/>
      <point x="191" y="795" type="curve" smooth="yes"/>
      <point x="206" y="774"/>
      <point x="227" y="764"/>
    </contour>
  </outline>
</glyph>
<glyph name="quoteright" format="2">
  <advance width="500"/>
  <unicode hex="2019"/>
  <note>
quoteright
</note>
  <outline>
    <contour>
      <point x="181" y="759" type="curve"/>
      <point x="280" y="836"/>
      <point x="330" y="923"/>
      <point x="330" y="1021" type="curve" smooth="yes"/>
      <point x="330" y="1086"/>
      <point x="302" y="1119"/>
      <point x="247" y="1119" type="curve" smooth="yes"/>
      <point x="202" y="1119"/>
      <point x="168" y="1082"/>
      <point x="168" y="1038" type="curve" smooth="yes"/>
      <point x="168" y="994"/>
      <point x="188" y="967"/>
      <point x="228" y="956" type="curve"/>
      <point x="228" y="918"/>
      <point x="205" y="888"/>
      <point x="160" y="867" type="curve"/>
      <point x="174" y="858"/>
      <point x="181" y="822"/>
    </contour>
  </outline>
</glyph>
<glyph name="quotedblleft" format="2">
  <advance width="745"/>
  <unicode hex="201C"/>
  <note>
quotedblleft
</note>
  <outline>
    <contour>
      <point x="473" y="764" type="curve" smooth="yes"/>
      <point x="517" y="764"/>
      <point x="552" y="801"/>
      <point x="552" y="845" type="curve" smooth="yes"/>
      <point x="552" y="889"/>
      <point x="532" y="916"/>
      <point x="492" y="927" type="curve"/>
      <point x="492" y="965"/>
      <point x="515" y="995"/>
      <point x="560" y="1016" type="curve"/>
      <point x="546" y="1025"/>
      <point x="539" y="1062"/>
      <point x="539" y="1125" type="curve"/>
      <point x="440" y="1048"/>
      <point x="390" y="960"/>
      <point x="390" y="862" type="curve" smooth="yes"/>
      <point x="390" y="836"/>
      <point x="397" y="814"/>
      <point x="412" y="795" type="curve" smooth="yes"/>
      <point x="427" y="774"/>
      <point x="448" y="764"/>
    </contour>
    <contour>
      <point x="276" y="764" type="curve" smooth="yes"/>
      <point x="320" y="764"/>
      <point x="355" y="801"/>
      <point x="355" y="845" type="curve" smooth="yes"/>
      <point x="355" y="889"/>
      <point x="335" y="916"/>
      <point x="295" y="927" type="curve"/>
      <point x="295" y="965"/>
      <point x="318" y="995"/>
      <point x="363" y="1016" type="curve"/>
      <point x="348" y="1025"/>
      <point x="341" y="1062"/>
      <point x="341" y="1125" type="curve"/>
      <point x="242" y="1048"/>
      <point x="193" y="960"/>
      <point x="193" y="862" type="curve" smooth="yes"/>
      <point x="193" y="836"/>
      <point x="200" y="814"/>
      <point x="214" y="795" type="curve" smooth="yes"/>
      <point x="229" y="774"/>
      <point x="250" y="764"/>
    </contour>
  </outline>
</glyph>
<glyph name="quotedblright" format="2">
  <advance width="743"/>
  <unicode hex="201D"/>
  <note>
quotedblright
</note>
  <outline>
    <contour>
      <point x="402" y="759" type="curve"/>
      <point x="501" y="836"/>
      <point x="550" y="923"/>
      <point x="550" y="1021" type="curve" smooth="yes"/>
      <point x="550" y="1086"/>
      <point x="522" y="1119"/>
      <point x="467" y="1119" type="curve" smooth="yes"/>
      <point x="423" y="1119"/>
      <point x="389" y="1082"/>
      <point x="389" y="1038" type="curve" smooth="yes"/>
      <point x="389" y="994"/>
      <point x="409" y="967"/>
      <point x="448" y="956" type="curve"/>
      <point x="448" y="918"/>
      <point x="425" y="888"/>
      <point x="380" y="867" type="curve"/>
      <point x="395" y="858"/>
      <point x="402" y="822"/>
    </contour>
    <contour>
      <point x="204" y="759" type="curve"/>
      <point x="303" y="836"/>
      <point x="353" y="923"/>
      <point x="353" y="1021" type="curve" smooth="yes"/>
      <point x="353" y="1086"/>
      <point x="325" y="1119"/>
      <point x="270" y="1119" type="curve" smooth="yes"/>
      <point x="226" y="1119"/>
      <point x="191" y="1082"/>
      <point x="191" y="1038" type="curve" smooth="yes"/>
      <point x="191" y="994"/>
      <point x="211" y="967"/>
      <point x="251" y="956" type="curve"/>
      <point x="251" y="918"/>
      <point x="228" y="888"/>
      <point x="183" y="867" type="curve"/>
      <point x="197" y="858"/>
      <point x="204" y="822"/>
    </contour>
  </outline>
</glyph>
<glyph name="overline" format="2">
  <advance width="1229"/>
  <unicode hex="203E"/>
  <note>
overscore
</note>
  <outline>
    <contour>
      <point x="26" y="1340" type="curve" smooth="yes"/>
      <point x="1203" y="1340" type="line" smooth="yes"/>
      <point x="1238" y="1340"/>
      <point x="1256" y="1354"/>
      <point x="1256" y="1382" type="curve" smooth="yes"/>
      <point x="1256" y="1411"/>
      <point x="1238" y="1425"/>
      <point x="1203" y="1425" type="curve" smooth="yes"/>
      <point x="26" y="1425" type="line" smooth="yes"/>
      <point x="-9" y="1425"/>
      <point x="-27" y="1411"/>
      <point x="-27" y="1383" type="curve" smooth="yes"/>
      <point x="-27" y="1354"/>
      <point x="-9" y="1340"/>
    </contour>
  </outline>
</glyph>
<glyph name="westSyriacCross" format="2">
  <advance width="1185"/>
  <unicode hex="2670"/>
  <outline>
    <contour>
      <point x="356" y="3" type="line"/>
      <point x="859" y="3" type="line"/>
      <point x="859" y="31" type="line"/>
      <point x="818" y="31" type="line"/>
      <point x="818" y="53" type="line"/>
      <point x="782" y="53" type="line"/>
      <point x="782" y="76" type="line"/>
      <point x="749" y="76" type="line"/>
      <point x="749" y="94" type="line"/>
      <point x="715" y="94" type="line"/>
      <point x="648" y="554" type="line"/>
      <point x="671" y="572" type="line"/>
      <point x="683" y="584"/>
      <point x="695" y="603"/>
      <point x="695" y="611" type="curve"/>
      <point x="888" y="546" type="line"/>
      <point x="888" y="509"/>
      <point x="907" y="490"/>
      <point x="944" y="490" type="curve"/>
      <point x="961" y="493"/>
      <point x="973" y="496"/>
      <point x="978" y="500" type="curve" smooth="yes"/>
      <point x="995" y="513"/>
      <point x="1003" y="528"/>
      <point x="1002" y="546" type="curve" smooth="yes"/>
      <point x="1001" y="572"/>
      <point x="990" y="589"/>
      <point x="970" y="596" type="curve" smooth="yes"/>
      <point x="976" y="594"/>
      <point x="987" y="593"/>
      <point x="1002" y="593" type="curve" smooth="yes"/>
      <point x="1039" y="593"/>
      <point x="1058" y="611"/>
      <point x="1058" y="648" type="curve" smooth="yes"/>
      <point x="1058" y="687"/>
      <point x="1039" y="706"/>
      <point x="1002" y="706" type="curve"/>
      <point x="970" y="702" type="line"/>
      <point x="991" y="711"/>
      <point x="1002" y="729"/>
      <point x="1002" y="754" type="curve" smooth="yes"/>
      <point x="1002" y="791"/>
      <point x="983" y="810"/>
      <point x="944" y="810" type="curve" smooth="yes"/>
      <point x="908" y="810"/>
      <point x="888" y="787"/>
      <point x="888" y="754" type="curve"/>
      <point x="689" y="691" type="line"/>
      <point x="676" y="708" type="line"/>
      <point x="669" y="723"/>
      <point x="649" y="734"/>
      <point x="645" y="734" type="curve"/>
      <point x="715" y="907" type="line"/>
      <point x="752" y="907"/>
      <point x="771" y="926"/>
      <point x="771" y="963" type="curve"/>
      <point x="769" y="980"/>
      <point x="766" y="991"/>
      <point x="762" y="996" type="curve" smooth="yes"/>
      <point x="749" y="1013"/>
      <point x="733" y="1021"/>
      <point x="715" y="1020" type="curve" smooth="yes"/>
      <point x="689" y="1019"/>
      <point x="672" y="1009"/>
      <point x="665" y="989" type="curve"/>
      <point x="668" y="995"/>
      <point x="669" y="1005"/>
      <point x="669" y="1020" type="curve" smooth="yes"/>
      <point x="669" y="1057"/>
      <point x="650" y="1076"/>
      <point x="613" y="1076" type="curve" smooth="yes"/>
      <point x="574" y="1076"/>
      <point x="555" y="1057"/>
      <point x="555" y="1020" type="curve"/>
      <point x="557" y="1000"/>
      <point x="558" y="990"/>
      <point x="559" y="989" type="curve"/>
      <point x="550" y="1010"/>
      <point x="533" y="1020"/>
      <point x="507" y="1020" type="curve" smooth="yes"/>
      <point x="470" y="1020"/>
      <point x="451" y="1001"/>
      <point x="451" y="963" type="curve" smooth="yes"/>
      <point x="451" y="927"/>
      <point x="475" y="907"/>
      <point x="507" y="907" type="curve"/>
      <point x="563" y="734" type="line"/>
      <point x="546" y="721" type="line" smooth="yes"/>
      <point x="539" y="716"/>
      <point x="534" y="711"/>
      <point x="531" y="706" type="curve"/>
      <point x="525" y="700"/>
      <point x="522" y="695"/>
      <point x="522" y="691" type="curve"/>
      <point x="334" y="751" type="line"/>
      <point x="332" y="790"/>
      <point x="313" y="810"/>
      <point x="276" y="810" type="curve"/>
      <point x="259" y="808"/>
      <point x="248" y="805"/>
      <point x="243" y="801" type="curve" smooth="yes"/>
      <point x="226" y="788"/>
      <point x="218" y="772"/>
      <point x="219" y="754" type="curve" smooth="yes"/>
      <point x="220" y="728"/>
      <point x="230" y="711"/>
      <point x="250" y="704" type="curve"/>
      <point x="219" y="708" type="line"/>
      <point x="182" y="708"/>
      <point x="163" y="689"/>
      <point x="163" y="650" type="curve" smooth="yes"/>
      <point x="163" y="613"/>
      <point x="182" y="595"/>
      <point x="219" y="595" type="curve" smooth="yes"/>
      <point x="234" y="595"/>
      <point x="244" y="596"/>
      <point x="250" y="598" type="curve"/>
      <point x="229" y="589"/>
      <point x="219" y="572"/>
      <point x="219" y="546" type="curve" smooth="yes"/>
      <point x="219" y="509"/>
      <point x="238" y="490"/>
      <point x="276" y="490" type="curve" smooth="yes"/>
      <point x="312" y="490"/>
      <point x="332" y="514"/>
      <point x="332" y="546" type="curve"/>
      <point x="518" y="611" type="line"/>
      <point x="531" y="587" type="line"/>
      <point x="538" y="581"/>
      <point x="547" y="574"/>
      <point x="559" y="567" type="curve"/>
      <point x="562" y="564"/>
      <point x="563" y="560"/>
      <point x="563" y="554" type="curve"/>
      <point x="520" y="267" type="line" smooth="yes"/>
      <point x="507" y="174"/>
      <point x="500" y="117"/>
      <point x="498" y="94" type="curve"/>
      <point x="464" y="94" type="line"/>
      <point x="464" y="76" type="line"/>
      <point x="429" y="76" type="line"/>
      <point x="429" y="53" type="line"/>
      <point x="397" y="53" type="line"/>
      <point x="397" y="31" type="line"/>
      <point x="356" y="31" type="line"/>
    </contour>
    <contour>
      <point x="501" y="12" type="curve" smooth="yes"/>
      <point x="482" y="12"/>
      <point x="472" y="21"/>
      <point x="472" y="40" type="curve" smooth="yes"/>
      <point x="473" y="60"/>
      <point x="483" y="70"/>
      <point x="501" y="70" type="curve" smooth="yes"/>
      <point x="520" y="68"/>
      <point x="529" y="58"/>
      <point x="529" y="40" type="curve"/>
      <point x="527" y="32"/>
      <point x="524" y="26"/>
      <point x="520" y="22" type="curve" smooth="yes"/>
      <point x="514" y="15"/>
      <point x="508" y="12"/>
    </contour>
    <contour>
      <point x="602" y="18" type="curve" smooth="yes"/>
      <point x="585" y="25"/>
      <point x="578" y="36"/>
      <point x="581" y="53" type="curve" smooth="yes"/>
      <point x="585" y="69"/>
      <point x="596" y="76"/>
      <point x="615" y="74" type="curve" smooth="yes"/>
      <point x="631" y="71"/>
      <point x="639" y="59"/>
      <point x="639" y="40" type="curve"/>
      <point x="630" y="19"/>
      <point x="617" y="12"/>
    </contour>
    <contour>
      <point x="715" y="12" type="curve" smooth="yes"/>
      <point x="696" y="12"/>
      <point x="686" y="21"/>
      <point x="686" y="40" type="curve" smooth="yes"/>
      <point x="687" y="60"/>
      <point x="697" y="70"/>
      <point x="715" y="70" type="curve" smooth="yes"/>
      <point x="734" y="68"/>
      <point x="743" y="58"/>
      <point x="743" y="40" type="curve"/>
      <point x="741" y="32"/>
      <point x="738" y="26"/>
      <point x="734" y="22" type="curve" smooth="yes"/>
      <point x="728" y="15"/>
      <point x="722" y="12"/>
    </contour>
    <contour>
      <point x="276" y="518" type="curve"/>
      <point x="256" y="522"/>
      <point x="249" y="535"/>
      <point x="249" y="546" type="curve" smooth="yes"/>
      <point x="249" y="566"/>
      <point x="258" y="576"/>
      <point x="276" y="576" type="curve" smooth="yes"/>
      <point x="295" y="574"/>
      <point x="304" y="564"/>
      <point x="304" y="546" type="curve"/>
      <point x="302" y="538"/>
      <point x="299" y="532"/>
      <point x="295" y="528" type="curve" smooth="yes"/>
      <point x="289" y="521"/>
      <point x="283" y="518"/>
    </contour>
    <contour>
      <point x="220" y="623" type="curve" smooth="yes"/>
      <point x="201" y="625"/>
      <point x="191" y="636"/>
      <point x="191" y="655" type="curve" smooth="yes"/>
      <point x="192" y="674"/>
      <point x="202" y="683"/>
      <point x="220" y="683" type="curve" smooth="yes"/>
      <point x="239" y="683"/>
      <point x="248" y="674"/>
      <point x="248" y="655" type="curve" smooth="yes"/>
      <point x="248" y="634"/>
      <point x="239" y="623"/>
    </contour>
    <contour>
      <point x="561" y="102" type="line"/>
      <point x="602" y="537" type="line"/>
      <point x="650" y="102" type="line"/>
    </contour>
    <contour>
      <point x="276" y="725" type="curve" smooth="yes"/>
      <point x="258" y="726"/>
      <point x="249" y="736"/>
      <point x="249" y="754" type="curve" smooth="yes"/>
      <point x="249" y="774"/>
      <point x="258" y="784"/>
      <point x="276" y="784" type="curve" smooth="yes"/>
      <point x="295" y="782"/>
      <point x="304" y="772"/>
      <point x="304" y="754" type="curve" smooth="yes"/>
      <point x="304" y="735"/>
      <point x="295" y="725"/>
    </contour>
    <contour>
      <point x="343" y="611" type="line"/>
      <point x="343" y="686" type="line"/>
      <point x="498" y="652" type="line"/>
    </contour>
    <contour>
      <point x="546" y="580" type="curve"/>
      <point x="542" y="585"/>
      <point x="539" y="589"/>
      <point x="537" y="593" type="curve"/>
      <point x="543" y="601" type="line" smooth="yes"/>
      <point x="544" y="603"/>
      <point x="545" y="604"/>
      <point x="546" y="604" type="curve" smooth="yes"/>
      <point x="549" y="604"/>
      <point x="554" y="600"/>
      <point x="559" y="593" type="curve"/>
      <point x="557" y="589" type="line"/>
      <point x="552" y="583"/>
      <point x="549" y="580"/>
    </contour>
    <contour>
      <point x="546" y="686" type="curve" smooth="yes"/>
      <point x="540" y="686"/>
      <point x="537" y="690"/>
      <point x="537" y="697" type="curve"/>
      <point x="539" y="704"/>
      <point x="542" y="708"/>
      <point x="546" y="708" type="curve" smooth="yes"/>
      <point x="555" y="708"/>
      <point x="559" y="704"/>
      <point x="559" y="697" type="curve"/>
      <point x="557" y="690"/>
      <point x="553" y="686"/>
    </contour>
    <contour>
      <point x="607" y="585" type="curve" smooth="yes"/>
      <point x="584" y="586"/>
      <point x="566" y="595"/>
      <point x="554" y="611" type="curve"/>
      <point x="547" y="623"/>
      <point x="543" y="634"/>
      <point x="544" y="645" type="curve" smooth="yes"/>
      <point x="545" y="668"/>
      <point x="552" y="682"/>
      <point x="565" y="689" type="curve"/>
      <point x="579" y="700"/>
      <point x="592" y="705"/>
      <point x="604" y="704" type="curve" smooth="yes"/>
      <point x="648" y="701"/>
      <point x="661" y="670"/>
      <point x="661" y="647" type="curve" smooth="yes"/>
      <point x="661" y="625"/>
      <point x="654" y="608"/>
      <point x="639" y="595" type="curve" smooth="yes"/>
      <point x="629" y="588"/>
      <point x="618" y="584"/>
    </contour>
    <contour>
      <point x="663" y="587" type="line"/>
      <point x="658" y="589"/>
      <point x="653" y="592"/>
      <point x="650" y="595" type="curve"/>
      <point x="652" y="606"/>
      <point x="656" y="611"/>
      <point x="663" y="611" type="curve"/>
      <point x="667" y="609" type="line"/>
      <point x="671" y="602"/>
      <point x="673" y="597"/>
      <point x="673" y="595" type="curve"/>
    </contour>
    <contour>
      <point x="656" y="689" type="curve"/>
      <point x="653" y="690"/>
      <point x="651" y="691"/>
      <point x="650" y="691" type="curve"/>
      <point x="648" y="694"/>
      <point x="647" y="697"/>
      <point x="647" y="702" type="curve"/>
      <point x="656" y="712" type="line"/>
      <point x="661" y="709"/>
      <point x="665" y="706"/>
      <point x="669" y="702" type="curve"/>
      <point x="667" y="693"/>
      <point x="663" y="689"/>
    </contour>
    <contour>
      <point x="875" y="611" type="line"/>
      <point x="706" y="652" type="line"/>
      <point x="875" y="684" type="line"/>
    </contour>
    <contour>
      <point x="602" y="751" type="line"/>
      <point x="568" y="914" type="line"/>
      <point x="647" y="914" type="line"/>
    </contour>
    <contour>
      <point x="507" y="935" type="curve"/>
      <point x="491" y="939"/>
      <point x="479" y="950"/>
      <point x="479" y="963" type="curve"/>
      <point x="481" y="973"/>
      <point x="484" y="980"/>
      <point x="488" y="983" type="curve" smooth="yes"/>
      <point x="495" y="988"/>
      <point x="502" y="991"/>
      <point x="507" y="991" type="curve" smooth="yes"/>
      <point x="527" y="991"/>
      <point x="537" y="982"/>
      <point x="537" y="963" type="curve" smooth="yes"/>
      <point x="535" y="944"/>
      <point x="525" y="935"/>
    </contour>
    <contour>
      <point x="944" y="516" type="curve" smooth="yes"/>
      <point x="925" y="518"/>
      <point x="916" y="528"/>
      <point x="916" y="546" type="curve" smooth="yes"/>
      <point x="916" y="566"/>
      <point x="925" y="576"/>
      <point x="944" y="576" type="curve" smooth="yes"/>
      <point x="963" y="574"/>
      <point x="972" y="564"/>
      <point x="972" y="546" type="curve" smooth="yes"/>
      <point x="972" y="526"/>
      <point x="963" y="516"/>
    </contour>
    <contour>
      <point x="611" y="991" type="curve" smooth="yes"/>
      <point x="592" y="992"/>
      <point x="583" y="1002"/>
      <point x="583" y="1020" type="curve" smooth="yes"/>
      <point x="583" y="1039"/>
      <point x="592" y="1048"/>
      <point x="611" y="1048" type="curve" smooth="yes"/>
      <point x="632" y="1048"/>
      <point x="643" y="1039"/>
      <point x="643" y="1020" type="curve" smooth="yes"/>
      <point x="641" y="1001"/>
      <point x="630" y="991"/>
    </contour>
    <contour>
      <point x="1002" y="619" type="curve" smooth="yes"/>
      <point x="982" y="620"/>
      <point x="972" y="631"/>
      <point x="972" y="650" type="curve" smooth="yes"/>
      <point x="974" y="669"/>
      <point x="984" y="678"/>
      <point x="1002" y="678" type="curve" smooth="yes"/>
      <point x="1021" y="678"/>
      <point x="1030" y="669"/>
      <point x="1030" y="650" type="curve" smooth="yes"/>
      <point x="1030" y="629"/>
      <point x="1021" y="619"/>
    </contour>
    <contour>
      <point x="715" y="935" type="curve" smooth="yes"/>
      <point x="696" y="935"/>
      <point x="686" y="944"/>
      <point x="686" y="963" type="curve" smooth="yes"/>
      <point x="687" y="982"/>
      <point x="697" y="991"/>
      <point x="715" y="991" type="curve" smooth="yes"/>
      <point x="735" y="991"/>
      <point x="745" y="982"/>
      <point x="745" y="963" type="curve" smooth="yes"/>
      <point x="743" y="944"/>
      <point x="733" y="935"/>
    </contour>
    <contour>
      <point x="944" y="725" type="curve" smooth="yes"/>
      <point x="925" y="726"/>
      <point x="916" y="736"/>
      <point x="916" y="754" type="curve"/>
      <point x="918" y="763"/>
      <point x="921" y="769"/>
      <point x="925" y="773" type="curve" smooth="yes"/>
      <point x="932" y="779"/>
      <point x="938" y="782"/>
      <point x="944" y="782" type="curve" smooth="yes"/>
      <point x="955" y="781"/>
      <point x="962" y="778"/>
      <point x="965" y="773" type="curve" smooth="yes"/>
      <point x="970" y="766"/>
      <point x="972" y="760"/>
      <point x="972" y="754" type="curve" smooth="yes"/>
      <point x="972" y="735"/>
      <point x="963" y="725"/>
    </contour>
  </outline>
</glyph>
<glyph name="U0640Quart" format="2">
  <advance width="90"/>
  <note>
U0640Quart
</note>
  <anchor x="60" y="-150" name="class0"/>
  <outline>
    <contour>
      <point x="0" y="0" type="line"/>
      <point x="90" y="0" type="line"/>
      <point x="90" y="195" type="line"/>
      <point x="0" y="195" type="line"/>
    </contour>
  </outline>
</glyph>
<glyph name="U0640ThreeQuart" format="2">
  <advance width="329"/>
  <note>
U0640ThreeQuart
</note>
  <anchor x="165" y="-150" name="class0"/>
  <outline>
    <contour>
      <point x="0" y="0" type="line"/>
      <point x="332" y="0" type="line"/>
      <point x="332" y="195" type="line"/>
      <point x="0" y="195" type="line"/>
    </contour>
  </outline>
</glyph>
<glyph name=".notdef" format="2">
  <advance width="993"/>
  <outline>
    <contour>
      <point x="918" y="871" type="line"/>
      <point x="918" y="-199" type="line"/>
      <point x="74" y="-199" type="line"/>
      <point x="74" y="871" type="line"/>
    </contour>
    <contour>
      <point x="940" y="893" type="line"/>
      <point x="52" y="893" type="line"/>
      <point x="52" y="-221" type="line"/>
      <point x="940" y="-221" type="line"/>
    </contour>
    <contour>
      <point x="635" y="271" type="curve" smooth="yes"/>
      <point x="635" y="373"/>
      <point x="613" y="503"/>
      <point x="602" y="603" type="curve"/>
      <point x="617" y="594" type="line"/>
      <point x="634" y="686" type="line"/>
      <point x="595" y="687"/>
      <point x="580" y="717"/>
      <point x="580" y="753" type="curve" smooth="yes"/>
      <point x="580" y="763"/>
      <point x="580" y="765"/>
      <point x="581" y="774" type="curve"/>
      <point x="580" y="777"/>
      <point x="574" y="778"/>
      <point x="572" y="776" type="curve"/>
      <point x="532" y="665" type="line"/>
      <point x="560" y="630" type="line"/>
      <point x="592" y="168" type="line"/>
      <point x="574" y="122"/>
      <point x="488" y="101"/>
      <point x="448" y="101" type="curve" smooth="yes"/>
      <point x="391" y="101"/>
      <point x="329" y="126"/>
      <point x="329" y="193" type="curve" smooth="yes"/>
      <point x="329" y="229"/>
      <point x="343" y="264"/>
      <point x="343" y="299" type="curve" smooth="yes"/>
      <point x="343" y="300"/>
      <point x="343" y="300"/>
      <point x="343" y="300" type="curve" smooth="yes"/>
      <point x="338" y="300"/>
      <point x="332" y="291"/>
      <point x="331" y="288" type="curve" smooth="yes"/>
      <point x="308" y="249"/>
      <point x="294" y="177"/>
      <point x="294" y="131" type="curve" smooth="yes"/>
      <point x="294" y="45"/>
      <point x="333" y="-10"/>
      <point x="421" y="-10" type="curve" smooth="yes"/>
      <point x="584" y="-10"/>
      <point x="635" y="126"/>
    </contour>
  </outline>
</glyph>
<glyph name="_qaph" format="2">
  <advance width="1058"/>
  <outline>
    <contour>
      <point x="422" y="195" type="line"/>
      <point x="422" y="405" type="line"/>
      <point x="663" y="405" type="line"/>
      <point x="663" y="195" type="line"/>
    </contour>
    <contour>
      <point x="480" y="600" type="line" smooth="yes"/>
      <point x="305" y="600"/>
      <point x="303" y="645"/>
      <point x="287" y="645" type="curve" smooth="yes"/>
      <point x="271" y="645"/>
      <point x="230" y="474"/>
      <point x="230" y="302" type="curve" smooth="yes"/>
      <point x="230" y="147"/>
      <point x="263" y="0"/>
      <point x="380" y="0" type="curve" smooth="yes"/>
      <point x="705" y="0" type="line" smooth="yes"/>
      <point x="822" y="0"/>
      <point x="855" y="147"/>
      <point x="855" y="302" type="curve" smooth="yes"/>
      <point x="855" y="474"/>
      <point x="814" y="645"/>
      <point x="798" y="645" type="curve" smooth="yes"/>
      <point x="782" y="645"/>
      <point x="780" y="600"/>
      <point x="605" y="600" type="curve" smooth="yes"/>
    </contour>
  </outline>
</glyph>
<glyph name="alaph-syriac.ccmp" format="2">
  <advance width="628"/>
  <outline>
    <contour>
      <point x="31" y="-165" type="curve" smooth="yes"/>
      <point x="379" y="234"/>
      <point x="481" y="496"/>
      <point x="481" y="698" type="curve" smooth="yes"/>
      <point x="481" y="767"/>
      <point x="453" y="871"/>
      <point x="343" y="871" type="curve" smooth="yes"/>
      <point x="261" y="871"/>
      <point x="218" y="804"/>
      <point x="218" y="739" type="curve" smooth="yes"/>
      <point x="218" y="659"/>
      <point x="270" y="613"/>
      <point x="336" y="613" type="curve" smooth="yes"/>
      <point x="365" y="613"/>
      <point x="396" y="622"/>
      <point x="427" y="639" type="curve"/>
      <point x="391" y="640" type="line"/>
      <point x="392" y="632"/>
      <point x="392" y="623"/>
      <point x="392" y="614" type="curve" smooth="yes"/>
      <point x="392" y="405"/>
      <point x="154" y="59"/>
      <point x="1" y="-138" type="curve" smooth="yes"/>
      <point x="-6" y="-147"/>
      <point x="-9" y="-153"/>
      <point x="-9" y="-160" type="curve" smooth="yes"/>
      <point x="-9" y="-170"/>
      <point x="-1" y="-177"/>
      <point x="9" y="-177" type="curve" smooth="yes"/>
      <point x="16" y="-177"/>
      <point x="24" y="-174"/>
    </contour>
    <contour>
      <point x="298" y="195" type="line"/>
      <point x="150" y="0" type="line"/>
      <point x="648" y="0" type="line"/>
      <point x="648" y="195" type="line"/>
    </contour>
  </outline>
</glyph>
<glyph name="alaph-syriac.fina.alt2" format="2">
  <advance width="664"/>
  <note>
U0710Fina2
</note>
  <anchor x="330" y="975" name="class0"/>
  <anchor x="375" y="-270" name="class0_"/>
  <anchor x="345" y="960" name="class1"/>
  <anchor x="360" y="-360" name="class2"/>
  <anchor x="360" y="-315" name="class3"/>
  <outline>
    <contour>
      <point x="373" y="-234" type="curve"/>
      <point x="378" y="-233"/>
      <point x="381" y="-228"/>
      <point x="381" y="-220" type="curve" smooth="yes"/>
      <point x="381" y="0" type="line"/>
      <point x="664" y="0" type="line"/>
      <point x="664" y="195" type="line"/>
      <point x="422" y="195" type="line"/>
      <point x="455" y="390"/>
      <point x="477" y="529"/>
      <point x="490" y="612" type="curve" smooth="yes"/>
      <point x="491" y="621"/>
      <point x="492" y="630"/>
      <point x="492" y="640" type="curve" smooth="yes"/>
      <point x="492" y="695"/>
      <point x="481" y="744"/>
      <point x="459" y="786" type="curve" smooth="yes"/>
      <point x="432" y="838"/>
      <point x="393" y="864"/>
      <point x="343" y="864" type="curve" smooth="yes"/>
      <point x="271" y="864"/>
      <point x="199" y="780"/>
      <point x="199" y="707" type="curve" smooth="yes"/>
      <point x="199" y="666"/>
      <point x="217" y="640"/>
      <point x="253" y="630" type="curve"/>
      <point x="351" y="614" type="line"/>
      <point x="387" y="605"/>
      <point x="405" y="582"/>
      <point x="405" y="545" type="curve" smooth="yes"/>
      <point x="405" y="450"/>
      <point x="233" y="220"/>
      <point x="141" y="193" type="curve"/>
      <point x="141" y="2" type="line"/>
      <point x="186" y="-3"/>
      <point x="221" y="-17"/>
      <point x="245" y="-38" type="curve" smooth="yes"/>
      <point x="256" y="-48"/>
      <point x="279" y="-77"/>
      <point x="312" y="-125" type="curve"/>
      <point x="332" y="-165"/>
      <point x="346" y="-197"/>
      <point x="353" y="-220" type="curve"/>
      <point x="360" y="-227"/>
      <point x="366" y="-231"/>
    </contour>
  </outline>
</glyph>
<glyph name="alaph-syriac.fina.alt3" format="2">
  <advance width="668"/>
  <note>
U0710Fina3
</note>
  <anchor x="360" y="975" name="class0"/>
  <anchor x="405" y="-150" name="class0_"/>
  <anchor x="345" y="960" name="class1"/>
  <anchor x="375" y="-135" name="class2"/>
  <anchor x="375" y="-135" name="class3"/>
  <outline>
    <contour>
      <point x="148" y="0" type="line"/>
      <point x="671" y="0" type="line"/>
      <point x="671" y="195" type="line"/>
      <point x="429" y="195" type="line"/>
      <point x="460" y="378"/>
      <point x="482" y="517"/>
      <point x="497" y="612" type="curve" smooth="yes"/>
      <point x="498" y="621"/>
      <point x="499" y="630"/>
      <point x="499" y="640" type="curve" smooth="yes"/>
      <point x="499" y="695"/>
      <point x="488" y="744"/>
      <point x="466" y="786" type="curve" smooth="yes"/>
      <point x="439" y="838"/>
      <point x="400" y="864"/>
      <point x="350" y="864" type="curve" smooth="yes"/>
      <point x="278" y="864"/>
      <point x="206" y="780"/>
      <point x="206" y="707" type="curve" smooth="yes"/>
      <point x="206" y="666"/>
      <point x="224" y="640"/>
      <point x="260" y="630" type="curve"/>
      <point x="358" y="614" type="line"/>
      <point x="394" y="605"/>
      <point x="412" y="582"/>
      <point x="412" y="545" type="curve" smooth="yes"/>
      <point x="412" y="450"/>
      <point x="240" y="220"/>
      <point x="148" y="193" type="curve"/>
    </contour>
  </outline>
</glyph>
<glyph name="alaph-syriac.fina" format="2">
  <advance width="665"/>
  <note>
U0710Fina1
</note>
  <anchor x="345" y="975" name="class0"/>
  <anchor x="405" y="-285" name="class0_"/>
  <anchor x="345" y="960" name="class1"/>
  <anchor x="375" y="-360" name="class2"/>
  <anchor x="375" y="-360" name="class3"/>
  <outline>
    <contour>
      <point x="374" y="-234" type="curve"/>
      <point x="379" y="-233"/>
      <point x="382" y="-228"/>
      <point x="382" y="-220" type="curve" smooth="yes"/>
      <point x="382" y="0" type="line"/>
      <point x="665" y="0" type="line"/>
      <point x="665" y="195" type="line"/>
      <point x="423" y="195" type="line"/>
      <point x="491" y="612" type="line" smooth="yes"/>
      <point x="492" y="621"/>
      <point x="493" y="630"/>
      <point x="493" y="640" type="curve" smooth="yes"/>
      <point x="493" y="695"/>
      <point x="482" y="744"/>
      <point x="460" y="786" type="curve" smooth="yes"/>
      <point x="433" y="838"/>
      <point x="394" y="864"/>
      <point x="344" y="864" type="curve" smooth="yes"/>
      <point x="272" y="864"/>
      <point x="200" y="780"/>
      <point x="200" y="707" type="curve" smooth="yes"/>
      <point x="200" y="666"/>
      <point x="218" y="640"/>
      <point x="254" y="630" type="curve"/>
      <point x="352" y="614" type="line"/>
      <point x="388" y="605"/>
      <point x="406" y="582"/>
      <point x="406" y="545" type="curve" smooth="yes"/>
      <point x="406" y="450"/>
      <point x="234" y="220"/>
      <point x="142" y="193" type="curve"/>
      <point x="142" y="2" type="line"/>
      <point x="187" y="-3"/>
      <point x="222" y="-17"/>
      <point x="246" y="-38" type="curve" smooth="yes"/>
      <point x="257" y="-48"/>
      <point x="280" y="-77"/>
      <point x="313" y="-125" type="curve"/>
      <point x="333" y="-165"/>
      <point x="347" y="-197"/>
      <point x="354" y="-220" type="curve"/>
      <point x="361" y="-227"/>
      <point x="367" y="-231"/>
    </contour>
  </outline>
</glyph>
<glyph name="alaph-syriac.medi" format="2">
  <advance width="662"/>
  <note>
U0710Medi2
</note>
  <anchor x="345" y="975" name="class0"/>
  <anchor x="405" y="-165" name="class0_"/>
  <anchor x="330" y="975" name="class1"/>
  <anchor x="375" y="-120" name="class2"/>
  <anchor x="375" y="-135" name="class3"/>
  <outline>
    <contour>
      <point x="139" y="0" type="line"/>
      <point x="662" y="0" type="line"/>
      <point x="662" y="195" type="line"/>
      <point x="420" y="195" type="line"/>
      <point x="451" y="378"/>
      <point x="473" y="517"/>
      <point x="488" y="612" type="curve" smooth="yes"/>
      <point x="489" y="621"/>
      <point x="490" y="630"/>
      <point x="490" y="640" type="curve" smooth="yes"/>
      <point x="490" y="695"/>
      <point x="479" y="744"/>
      <point x="457" y="786" type="curve" smooth="yes"/>
      <point x="430" y="838"/>
      <point x="391" y="864"/>
      <point x="341" y="864" type="curve" smooth="yes"/>
      <point x="269" y="864"/>
      <point x="197" y="780"/>
      <point x="197" y="707" type="curve" smooth="yes"/>
      <point x="197" y="666"/>
      <point x="215" y="640"/>
      <point x="251" y="630" type="curve"/>
      <point x="349" y="614" type="line"/>
      <point x="385" y="605"/>
      <point x="403" y="582"/>
      <point x="403" y="545" type="curve" smooth="yes"/>
      <point x="403" y="450"/>
      <point x="231" y="220"/>
      <point x="139" y="193" type="curve"/>
    </contour>
  </outline>
</glyph>
<glyph name="beth-syriac.fina" format="2">
  <advance width="1149"/>
  <anchor x="690" y="-150" name="b.U0325_3"/>
  <anchor x="705" y="-158" name="b.U0331_2"/>
  <anchor x="735" y="-135" name="b.U0740"/>
  <anchor x="765" y="735" name="m.U030a_1"/>
  <anchor x="765" y="795" name="t.U0656"/>
  <outline>
    <component base="beth-syriac"/>
    <contour>
      <point x="1029" y="195" type="line"/>
      <point x="1029" y="65"/>
      <point x="1063" y="0"/>
      <point x="1148" y="0" type="curve" smooth="yes"/>
      <point x="1169" y="0" type="line"/>
      <point x="1169" y="195" type="line"/>
    </contour>
  </outline>
</glyph>
<glyph name="beth-syriac.init" format="2">
  <advance width="946"/>
  <note>
U0712Init
</note>
  <anchor x="570" y="780" name="class0"/>
  <anchor x="525" y="-135" name="class0_"/>
  <anchor x="555" y="765" name="class1"/>
  <anchor x="555" y="-150" name="class2"/>
  <anchor x="525" y="-150" name="class3"/>
  <outline>
    <contour>
      <point x="0" y="0" type="line"/>
      <point x="876" y="0" type="line"/>
      <point x="876" y="600" type="line" smooth="yes"/>
      <point x="876" y="631"/>
      <point x="867" y="646"/>
      <point x="848" y="645" type="curve" smooth="yes"/>
      <point x="842" y="644"/>
      <point x="832" y="637"/>
      <point x="819" y="622" type="curve" smooth="yes"/>
      <point x="806" y="607"/>
      <point x="786" y="600"/>
      <point x="760" y="600" type="curve" smooth="yes"/>
      <point x="404" y="600" type="line" smooth="yes"/>
      <point x="369" y="600"/>
      <point x="345" y="605"/>
      <point x="330" y="614" type="curve" smooth="yes"/>
      <point x="324" y="617"/>
      <point x="316" y="628"/>
      <point x="305" y="646" type="curve" smooth="yes"/>
      <point x="296" y="662"/>
      <point x="289" y="670"/>
      <point x="283" y="670" type="curve" smooth="yes"/>
      <point x="268" y="670"/>
      <point x="255" y="646"/>
      <point x="245" y="599" type="curve" smooth="yes"/>
      <point x="236" y="560"/>
      <point x="232" y="522"/>
      <point x="232" y="485" type="curve" smooth="yes"/>
      <point x="232" y="447"/>
      <point x="252" y="423"/>
      <point x="291" y="412" type="curve" smooth="yes"/>
      <point x="308" y="407"/>
      <point x="340" y="405"/>
      <point x="388" y="405" type="curve" smooth="yes"/>
      <point x="681" y="405" type="line"/>
      <point x="681" y="195" type="line"/>
      <point x="0" y="195" type="line"/>
    </contour>
  </outline>
</glyph>
<glyph name="beth-syriac.medi" format="2">
  <advance width="961"/>
  <anchor x="525" y="-135" name="b.U0325_3"/>
  <anchor x="510" y="-150" name="b.U0331_2"/>
  <anchor x="540" y="-165" name="b.U0740"/>
  <anchor x="540" y="750" name="m.U030a_1"/>
  <anchor x="555" y="750" name="t.U0656"/>
  <outline>
    <component base="beth-syriac.init"/>
    <contour>
      <point x="841" y="195" type="line"/>
      <point x="841" y="65"/>
      <point x="875" y="0"/>
      <point x="960" y="0" type="curve" smooth="yes"/>
      <point x="981" y="0" type="line"/>
      <point x="981" y="195" type="line"/>
    </contour>
  </outline>
</glyph>
<glyph name="dalath-syriac.fina" format="2">
  <advance width="728"/>
  <note>
U0715Fina
</note>
  <anchor x="360" y="750" name="class0"/>
  <anchor x="375" y="-360" name="class0_"/>
  <anchor x="330" y="720" name="class1"/>
  <anchor x="360" y="-390" name="class2"/>
  <anchor x="375" y="-405" name="class3"/>
  <outline>
    <contour>
      <point x="150" y="0" type="line"/>
      <point x="626" y="0" type="line"/>
      <point x="654" y="57" type="line"/>
      <point x="668" y="0" type="line"/>
      <point x="728" y="0" type="line"/>
      <point x="728" y="195" type="line"/>
      <point x="667" y="195" type="line"/>
      <point x="671" y="484"/>
      <point x="551" y="612"/>
      <point x="294" y="612" type="curve" smooth="yes"/>
      <point x="217" y="612"/>
      <point x="150" y="580"/>
      <point x="150" y="531" type="curve" smooth="yes"/>
      <point x="150" y="347" type="line" smooth="yes"/>
      <point x="150" y="330"/>
      <point x="157" y="322"/>
      <point x="172" y="322" type="curve" smooth="yes"/>
      <point x="176" y="322"/>
      <point x="190" y="337"/>
      <point x="213" y="367" type="curve" smooth="yes"/>
      <point x="236" y="397"/>
      <point x="263" y="414"/>
      <point x="294" y="418" type="curve"/>
      <point x="324" y="419" type="line" smooth="yes"/>
      <point x="435" y="419"/>
      <point x="490" y="344"/>
      <point x="490" y="195" type="curve"/>
      <point x="150" y="195" type="line"/>
    </contour>
    <contour>
      <point x="216" y="-276" type="line"/>
      <point x="410" y="-276" type="line"/>
      <point x="410" y="-81" type="line"/>
      <point x="216" y="-81" type="line"/>
    </contour>
  </outline>
</glyph>
<glyph name="dalath_hbasaEsasadotted-syriac.fina" format="2">
  <advance width="729"/>
  <anchor x="375" y="735" name="class0"/>
  <anchor x="0" y="0" name="class0_"/>
  <anchor x="405" y="-555" name="class1"/>
  <anchor x="375" y="-405" name="class2"/>
  <anchor x="390" y="-405" name="class3"/>
  <outline>
    <contour>
      <point x="151" y="0" type="line"/>
      <point x="627" y="0" type="line"/>
      <point x="655" y="57" type="line"/>
      <point x="669" y="0" type="line"/>
      <point x="729" y="0" type="line"/>
      <point x="729" y="195" type="line"/>
      <point x="668" y="195" type="line"/>
      <point x="672" y="484"/>
      <point x="552" y="612"/>
      <point x="295" y="612" type="curve" smooth="yes"/>
      <point x="218" y="612"/>
      <point x="151" y="580"/>
      <point x="151" y="531" type="curve" smooth="yes"/>
      <point x="151" y="347" type="line" smooth="yes"/>
      <point x="151" y="330"/>
      <point x="158" y="322"/>
      <point x="173" y="322" type="curve" smooth="yes"/>
      <point x="177" y="322"/>
      <point x="191" y="337"/>
      <point x="214" y="367" type="curve" smooth="yes"/>
      <point x="237" y="397"/>
      <point x="264" y="414"/>
      <point x="295" y="418" type="curve"/>
      <point x="325" y="419" type="line" smooth="yes"/>
      <point x="436" y="419"/>
      <point x="491" y="344"/>
      <point x="491" y="195" type="curve"/>
      <point x="151" y="195" type="line"/>
    </contour>
    <contour>
      <point x="217" y="-276" type="line"/>
      <point x="411" y="-276" type="line"/>
      <point x="411" y="-81" type="line"/>
      <point x="217" y="-81" type="line"/>
    </contour>
    <contour>
      <point x="560" y="-327" type="curve" smooth="yes"/>
      <point x="579" y="-327"/>
      <point x="594" y="-313"/>
      <point x="605" y="-285" type="curve" smooth="yes"/>
      <point x="614" y="-263"/>
      <point x="619" y="-241"/>
      <point x="619" y="-219" type="curve" smooth="yes"/>
      <point x="619" y="-201"/>
      <point x="615" y="-180"/>
      <point x="606" y="-156" type="curve" smooth="yes"/>
      <point x="595" y="-127"/>
      <point x="583" y="-113"/>
      <point x="568" y="-113" type="curve" smooth="yes"/>
      <point x="548" y="-113"/>
      <point x="532" y="-128"/>
      <point x="521" y="-157" type="curve" smooth="yes"/>
      <point x="512" y="-180"/>
      <point x="507" y="-202"/>
      <point x="507" y="-225" type="curve" smooth="yes"/>
      <point x="507" y="-244"/>
      <point x="511" y="-265"/>
      <point x="520" y="-286" type="curve" smooth="yes"/>
      <point x="531" y="-313"/>
      <point x="544" y="-327"/>
    </contour>
  </outline>
</glyph>
<glyph name="dalathrishDotless-syriac.fina" format="2">
  <advance width="749"/>
  <anchor x="360" y="-150" name="b.U0325_3"/>
  <anchor x="375" y="-180" name="b.U0331_2"/>
  <anchor x="390" y="-150" name="b.U0740"/>
  <anchor x="345" y="720" name="m.U030a_1"/>
  <anchor x="375" y="720" name="t.U0656"/>
  <outline>
    <component base="dalathrishDotless-syriac" xOffset="47"/>
    <contour>
      <point x="629" y="195" type="line"/>
      <point x="629" y="65"/>
      <point x="663" y="0"/>
      <point x="748" y="0" type="curve" smooth="yes"/>
      <point x="769" y="0" type="line"/>
      <point x="769" y="195" type="line"/>
    </contour>
  </outline>
</glyph>
<glyph name="e-syriac.fina" format="2">
  <advance width="1285"/>
  <note>
U0725Fina
</note>
  <anchor x="645" y="1005" name="class0"/>
  <anchor x="750" y="-135" name="class0_"/>
  <anchor x="630" y="1005" name="class1"/>
  <anchor x="735" y="-180" name="class2"/>
  <anchor x="735" y="-165" name="class3"/>
  <outline>
    <contour>
      <point x="324" y="0" type="curve" smooth="yes"/>
      <point x="895" y="0" type="line"/>
      <point x="895" y="95" type="line"/>
      <point x="970" y="20"/>
      <point x="1020" y="0"/>
      <point x="1129" y="0" type="curve" smooth="yes"/>
      <point x="1285" y="0" type="line"/>
      <point x="1285" y="195" type="line"/>
      <point x="1142" y="195" type="line" smooth="yes"/>
      <point x="1077" y="195"/>
      <point x="1017" y="232"/>
      <point x="962" y="306" type="curve" smooth="yes"/>
      <point x="724" y="627" type="line" smooth="yes"/>
      <point x="685" y="679"/>
      <point x="666" y="729"/>
      <point x="666" y="776" type="curve" smooth="yes"/>
      <point x="666" y="793"/>
      <point x="668" y="810"/>
      <point x="673" y="829" type="curve" smooth="yes"/>
      <point x="679" y="859" type="line"/>
      <point x="679" y="875"/>
      <point x="671" y="883"/>
      <point x="655" y="883" type="curve" smooth="yes"/>
      <point x="636" y="883"/>
      <point x="587" y="817"/>
      <point x="508" y="686" type="curve" smooth="yes"/>
      <point x="493" y="663"/>
      <point x="486" y="646"/>
      <point x="486" y="636" type="curve" smooth="yes"/>
      <point x="486" y="607"/>
      <point x="500" y="574"/>
      <point x="529" y="539" type="curve" smooth="yes"/>
      <point x="812" y="195" type="line"/>
      <point x="324" y="195" type="line" smooth="yes"/>
      <point x="285" y="195"/>
      <point x="249" y="211"/>
      <point x="215" y="242" type="curve" smooth="yes"/>
      <point x="199" y="256"/>
      <point x="187" y="279"/>
      <point x="178" y="312" type="curve" smooth="yes"/>
      <point x="171" y="339"/>
      <point x="164" y="352"/>
      <point x="157" y="352" type="curve" smooth="yes"/>
      <point x="146" y="352"/>
      <point x="137" y="332"/>
      <point x="130" y="291" type="curve" smooth="yes"/>
      <point x="125" y="262"/>
      <point x="122" y="237"/>
      <point x="122" y="217" type="curve" smooth="yes"/>
      <point x="122" y="139"/>
      <point x="136" y="84"/>
      <point x="164" y="52" type="curve" smooth="yes"/>
      <point x="194" y="17"/>
      <point x="247" y="0"/>
    </contour>
  </outline>
</glyph>
<glyph name="e-syriac.init" format="2">
  <advance width="1097"/>
  <note>
U0725Init
</note>
  <anchor x="300" y="960" name="class0"/>
  <anchor x="525" y="-150" name="class0_"/>
  <anchor x="360" y="1020" name="class1"/>
  <anchor x="405" y="-150" name="class2"/>
  <anchor x="405" y="-150" name="class3"/>
  <outline>
    <contour>
      <point x="0" y="0" type="line"/>
      <point x="600" y="0" type="line"/>
      <point x="600" y="95" type="line"/>
      <point x="676" y="20"/>
      <point x="724" y="0"/>
      <point x="835" y="0" type="curve" smooth="yes"/>
      <point x="980" y="0"/>
      <point x="1052" y="76"/>
      <point x="1052" y="228" type="curve" smooth="yes"/>
      <point x="1052" y="314"/>
      <point x="1041" y="357"/>
      <point x="1020" y="357" type="curve" smooth="yes"/>
      <point x="1005" y="357"/>
      <point x="995" y="344"/>
      <point x="990" y="319" type="curve" smooth="yes"/>
      <point x="973" y="236"/>
      <point x="925" y="195"/>
      <point x="848" y="195" type="curve" smooth="yes"/>
      <point x="783" y="195"/>
      <point x="723" y="232"/>
      <point x="668" y="306" type="curve" smooth="yes"/>
      <point x="429" y="627" type="line" smooth="yes"/>
      <point x="390" y="679"/>
      <point x="371" y="729"/>
      <point x="371" y="776" type="curve" smooth="yes"/>
      <point x="371" y="793"/>
      <point x="373" y="810"/>
      <point x="378" y="829" type="curve" smooth="yes"/>
      <point x="385" y="859" type="line"/>
      <point x="385" y="875"/>
      <point x="377" y="883"/>
      <point x="360" y="883" type="curve" smooth="yes"/>
      <point x="341" y="883"/>
      <point x="292" y="817"/>
      <point x="213" y="686" type="curve" smooth="yes"/>
      <point x="199" y="663"/>
      <point x="192" y="646"/>
      <point x="192" y="636" type="curve" smooth="yes"/>
      <point x="192" y="607"/>
      <point x="206" y="574"/>
      <point x="235" y="539" type="curve" smooth="yes"/>
      <point x="517" y="195" type="line"/>
      <point x="0" y="195" type="line"/>
    </contour>
  </outline>
</glyph>
<glyph name="e-syriac.medi" format="2">
  <advance width="990"/>
  <anchor x="420" y="-165" name="b.U0325_3"/>
  <anchor x="405" y="-165" name="b.U0331_2"/>
  <anchor x="525" y="-135" name="b.U0740"/>
  <anchor x="330" y="1020" name="m.U030a_1"/>
  <anchor x="315" y="1020" name="t.U0656"/>
  <outline>
    <contour>
      <point x="0" y="0" type="line"/>
      <point x="600" y="0" type="line"/>
      <point x="600" y="95" type="line"/>
      <point x="676" y="20"/>
      <point x="724" y="0"/>
      <point x="835" y="0" type="curve" smooth="yes"/>
      <point x="990" y="0" type="line"/>
      <point x="990" y="195" type="line"/>
      <point x="848" y="195" type="line" smooth="yes"/>
      <point x="783" y="195"/>
      <point x="723" y="232"/>
      <point x="668" y="306" type="curve" smooth="yes"/>
      <point x="429" y="627" type="line" smooth="yes"/>
      <point x="390" y="679"/>
      <point x="371" y="729"/>
      <point x="371" y="776" type="curve" smooth="yes"/>
      <point x="371" y="793"/>
      <point x="373" y="810"/>
      <point x="378" y="829" type="curve" smooth="yes"/>
      <point x="385" y="859" type="line"/>
      <point x="385" y="875"/>
      <point x="377" y="883"/>
      <point x="360" y="883" type="curve" smooth="yes"/>
      <point x="341" y="883"/>
      <point x="292" y="817"/>
      <point x="213" y="686" type="curve" smooth="yes"/>
      <point x="199" y="663"/>
      <point x="192" y="646"/>
      <point x="192" y="636" type="curve" smooth="yes"/>
      <point x="192" y="607"/>
      <point x="206" y="574"/>
      <point x="235" y="539" type="curve" smooth="yes"/>
      <point x="517" y="195" type="line"/>
      <point x="0" y="195" type="line"/>
    </contour>
  </outline>
</glyph>
<glyph name="exclam.latn" format="2">
  <advance width="416"/>
  <note>
exclam
</note>
  <outline>
    <contour>
      <point x="167" y="321" type="line"/>
      <point x="249" y="321" type="line"/>
      <point x="335" y="766" type="line" smooth="yes"/>
      <point x="357" y="891"/>
      <point x="305" y="980"/>
      <point x="207" y="980" type="curve" smooth="yes"/>
      <point x="110" y="980"/>
      <point x="59" y="891"/>
      <point x="81" y="766" type="curve" smooth="yes"/>
    </contour>
    <contour>
      <point x="207" y="-14" type="curve" smooth="yes"/>
      <point x="283" y="-14"/>
      <point x="343" y="42"/>
      <point x="343" y="117" type="curve" smooth="yes"/>
      <point x="343" y="192"/>
      <point x="283" y="250"/>
      <point x="207" y="250" type="curve" smooth="yes"/>
      <point x="133" y="250"/>
      <point x="73" y="192"/>
      <point x="73" y="117" type="curve" smooth="yes"/>
      <point x="73" y="43"/>
      <point x="132" y="-14"/>
    </contour>
  </outline>
</glyph>
<glyph name="gamal-syriac.fina" format="2">
  <advance width="1309"/>
  <note>
U0713Fina
</note>
  <anchor x="855" y="900" name="class0"/>
  <anchor x="585" y="-150" name="class0_"/>
  <anchor x="915" y="870" name="class1"/>
  <anchor x="585" y="-150" name="class2"/>
  <anchor x="585" y="-150" name="class3"/>
  <outline>
    <contour>
      <point x="1015" y="-477" type="line"/>
      <point x="1194" y="-477" type="line"/>
      <point x="1194" y="-292" type="line"/>
      <point x="1038" y="-292" type="line"/>
      <point x="900" y="0" type="line"/>
      <point x="929" y="26"/>
      <point x="950" y="47"/>
      <point x="961" y="62" type="curve"/>
      <point x="1000" y="21"/>
      <point x="1049" y="0"/>
      <point x="1106" y="0" type="curve" smooth="yes"/>
      <point x="1309" y="0" type="line"/>
      <point x="1309" y="195" type="line"/>
      <point x="1084" y="195" type="line" smooth="yes"/>
      <point x="1037" y="195"/>
      <point x="1003" y="217"/>
      <point x="981" y="262" type="curve" smooth="yes"/>
      <point x="735" y="762" type="line" smooth="yes"/>
      <point x="703" y="828"/>
      <point x="685" y="873"/>
      <point x="680" y="898" type="curve"/>
      <point x="676" y="939"/>
      <point x="675" y="992"/>
      <point x="655" y="992" type="curve" smooth="yes"/>
      <point x="646" y="992"/>
      <point x="601" y="924"/>
      <point x="520" y="789" type="curve" smooth="yes"/>
      <point x="506" y="765"/>
      <point x="499" y="748"/>
      <point x="499" y="739" type="curve" smooth="yes"/>
      <point x="499" y="721"/>
      <point x="505" y="702"/>
      <point x="518" y="682" type="curve" smooth="yes"/>
      <point x="841" y="195" type="line"/>
      <point x="324" y="195" type="line" smooth="yes"/>
      <point x="285" y="195"/>
      <point x="249" y="211"/>
      <point x="215" y="242" type="curve" smooth="yes"/>
      <point x="199" y="256"/>
      <point x="187" y="279"/>
      <point x="178" y="312" type="curve" smooth="yes"/>
      <point x="171" y="339"/>
      <point x="164" y="352"/>
      <point x="157" y="352" type="curve" smooth="yes"/>
      <point x="146" y="352"/>
      <point x="137" y="332"/>
      <point x="130" y="291" type="curve" smooth="yes"/>
      <point x="125" y="262"/>
      <point x="122" y="237"/>
      <point x="122" y="217" type="curve" smooth="yes"/>
      <point x="122" y="139"/>
      <point x="136" y="84"/>
      <point x="164" y="52" type="curve" smooth="yes"/>
      <point x="194" y="17"/>
      <point x="247" y="0"/>
      <point x="324" y="0" type="curve" smooth="yes"/>
      <point x="736" y="0" type="line"/>
      <point x="1015" y="-307" type="line"/>
    </contour>
  </outline>
</glyph>
<glyph name="gamal-syriac.init" format="2">
  <advance width="901"/>
  <anchor x="405" y="-150" name="b.U0325_3"/>
  <anchor x="405" y="-165" name="b.U0331_2"/>
  <anchor x="510" y="-180" name="b.U0740"/>
  <anchor x="570" y="855" name="m.U030a_1"/>
  <anchor x="570" y="885" name="t.U0656"/>
  <outline>
    <contour>
      <point x="774" y="0" type="line"/>
      <point x="626" y="195" type="line"/>
      <point x="-60" y="195" type="line"/>
      <point x="-60" y="0" type="line"/>
    </contour>
    <contour>
      <point x="931" y="-215" type="line"/>
      <point x="931" y="-400" type="line"/>
      <point x="1116" y="-400" type="line"/>
      <point x="1116" y="-215" type="line"/>
    </contour>
    <contour>
      <point x="946" y="-274" type="curve"/>
      <point x="976" y="-258" type="line"/>
      <point x="602" y="387"/>
      <point x="435" y="679"/>
      <point x="391" y="781" type="curve" smooth="yes"/>
      <point x="356" y="862"/>
      <point x="366" y="961"/>
      <point x="366" y="981" type="curve" smooth="yes"/>
      <point x="366" y="988"/>
      <point x="365" y="992"/>
      <point x="362" y="992" type="curve" smooth="yes"/>
      <point x="344" y="992"/>
      <point x="198" y="811"/>
      <point x="198" y="733" type="curve" smooth="yes"/>
      <point x="198" y="689"/>
      <point x="408" y="365"/>
      <point x="558" y="117" type="curve"/>
      <point x="576" y="93"/>
      <point x="674" y="68"/>
      <point x="692" y="44" type="curve"/>
      <point x="800" y="-103"/>
      <point x="867" y="-167"/>
    </contour>
  </outline>
</glyph>
<glyph name="gamal-syriac.medi" format="2">
  <advance width="1007"/>
  <anchor x="315" y="-165" name="b.U0325_3"/>
  <anchor x="300" y="-135" name="b.U0331_2"/>
  <anchor x="330" y="-165" name="b.U0740"/>
  <anchor x="570" y="900" name="m.U030a_1"/>
  <anchor x="570" y="915" name="t.U0656"/>
  <outline>
    <contour>
      <point x="727" y="-483" type="line"/>
      <point x="906" y="-483" type="line"/>
      <point x="906" y="-298" type="line"/>
      <point x="750" y="-298" type="line"/>
      <point x="598" y="0" type="line"/>
      <point x="627" y="26"/>
      <point x="648" y="47"/>
      <point x="659" y="62" type="curve"/>
      <point x="698" y="21"/>
      <point x="747" y="0"/>
      <point x="804" y="0" type="curve" smooth="yes"/>
      <point x="1007" y="0" type="line"/>
      <point x="1007" y="195" type="line"/>
      <point x="782" y="195" type="line" smooth="yes"/>
      <point x="735" y="195"/>
      <point x="701" y="217"/>
      <point x="679" y="262" type="curve" smooth="yes"/>
      <point x="433" y="762" type="line" smooth="yes"/>
      <point x="401" y="828"/>
      <point x="383" y="873"/>
      <point x="378" y="898" type="curve"/>
      <point x="374" y="939"/>
      <point x="373" y="992"/>
      <point x="353" y="992" type="curve" smooth="yes"/>
      <point x="344" y="992"/>
      <point x="299" y="924"/>
      <point x="218" y="789" type="curve" smooth="yes"/>
      <point x="204" y="765"/>
      <point x="197" y="748"/>
      <point x="197" y="739" type="curve" smooth="yes"/>
      <point x="197" y="721"/>
      <point x="203" y="702"/>
      <point x="216" y="682" type="curve" smooth="yes"/>
      <point x="399" y="414"/>
      <point x="512" y="252"/>
      <point x="553" y="195" type="curve"/>
      <point x="0" y="195" type="line"/>
      <point x="0" y="0" type="line"/>
      <point x="434" y="0" type="line"/>
      <point x="727" y="-313" type="line"/>
    </contour>
  </outline>
</glyph>
<glyph name="gamalgarshuni-syriac.fina" format="2">
  <advance width="1287"/>
  <anchor x="563" y="-135" name="b.U0325_3"/>
  <anchor x="518" y="-150" name="b.U0331_2"/>
  <anchor x="593" y="-165" name="b.U0740"/>
  <anchor x="908" y="885" name="m.U030a_1"/>
  <anchor x="938" y="885" name="t.U0656"/>
  <outline>
    <component base="gamal-syriac.fina"/>
    <contour>
      <point x="700" y="382" type="line"/>
      <point x="655" y="464" type="line"/>
      <point x="439" y="182" type="line"/>
      <point x="544" y="182" type="line"/>
    </contour>
  </outline>
</glyph>
<glyph name="gamalgarshuni-syriac.init" format="2">
  <advance width="1005"/>
  <anchor x="330" y="-150" name="b.U0325_3"/>
  <anchor x="360" y="-135" name="b.U0331_2"/>
  <anchor x="465" y="-150" name="b.U0740"/>
  <anchor x="570" y="840" name="m.U030a_1"/>
  <anchor x="645" y="855" name="t.U0656"/>
  <outline>
    <component base="gamal-syriac.init" xOffset="40"/>
    <contour>
      <point x="448" y="382" type="line"/>
      <point x="403" y="464" type="line"/>
      <point x="187" y="182" type="line"/>
      <point x="292" y="182" type="line"/>
    </contour>
  </outline>
</glyph>
<glyph name="gamalgarshuni-syriac.medi" format="2">
  <advance width="976"/>
  <note>
U0714Medi
</note>
  <anchor x="645" y="855" name="class0"/>
  <anchor x="300" y="-135" name="class0_"/>
  <anchor x="585" y="840" name="class1"/>
  <anchor x="270" y="-165" name="class2"/>
  <anchor x="315" y="-150" name="class3"/>
  <outline>
    <contour>
      <point x="677" y="-438" type="line"/>
      <point x="856" y="-438" type="line"/>
      <point x="856" y="-253" type="line"/>
      <point x="719" y="-253" type="line"/>
      <point x="595" y="0" type="line"/>
      <point x="624" y="26"/>
      <point x="645" y="47"/>
      <point x="656" y="62" type="curve"/>
      <point x="695" y="21"/>
      <point x="744" y="0"/>
      <point x="801" y="0" type="curve" smooth="yes"/>
      <point x="1004" y="0" type="line"/>
      <point x="1004" y="195" type="line"/>
      <point x="779" y="195" type="line" smooth="yes"/>
      <point x="732" y="195"/>
      <point x="698" y="217"/>
      <point x="676" y="262" type="curve" smooth="yes"/>
      <point x="430" y="762" type="line" smooth="yes"/>
      <point x="398" y="828"/>
      <point x="380" y="873"/>
      <point x="375" y="898" type="curve"/>
      <point x="371" y="939"/>
      <point x="370" y="992"/>
      <point x="350" y="992" type="curve" smooth="yes"/>
      <point x="341" y="992"/>
      <point x="296" y="924"/>
      <point x="215" y="789" type="curve" smooth="yes"/>
      <point x="201" y="765"/>
      <point x="194" y="748"/>
      <point x="194" y="739" type="curve" smooth="yes"/>
      <point x="194" y="724"/>
      <point x="200" y="705"/>
      <point x="213" y="682" type="curve" smooth="yes"/>
      <point x="343" y="451" type="line"/>
      <point x="147" y="195" type="line"/>
      <point x="2" y="195" type="line"/>
      <point x="2" y="0" type="line"/>
      <point x="431" y="0" type="line"/>
      <point x="677" y="-269" type="line"/>
    </contour>
    <contour>
      <point x="252" y="195" type="line"/>
      <point x="388" y="369" type="line"/>
      <point x="483" y="195" type="line"/>
    </contour>
  </outline>
</glyph>
<glyph name="he-syriac.fina" format="2">
  <advance width="917"/>
  <note>
U0717Fina
</note>
  <anchor x="450" y="765" name="class0"/>
  <anchor x="480" y="-150" name="class0_"/>
  <anchor x="435" y="720" name="class1"/>
  <anchor x="450" y="-150" name="class2"/>
  <anchor x="405" y="-150" name="class3"/>
  <outline>
    <contour>
      <point x="836" y="-129" type="curve" smooth="yes"/>
      <point x="848" y="-129"/>
      <point x="854" y="-120"/>
      <point x="854" y="-101" type="curve" smooth="yes"/>
      <point x="853" y="0" type="line"/>
      <point x="917" y="0" type="line"/>
      <point x="917" y="195" type="line"/>
      <point x="850" y="195" type="line"/>
      <point x="845" y="582" type="line" smooth="yes"/>
      <point x="844" y="629"/>
      <point x="837" y="652"/>
      <point x="822" y="652" type="curve" smooth="yes"/>
      <point x="820" y="652"/>
      <point x="811" y="643"/>
      <point x="794" y="626" type="curve" smooth="yes"/>
      <point x="777" y="609"/>
      <point x="759" y="600"/>
      <point x="740" y="600" type="curve" smooth="yes"/>
      <point x="325" y="600" type="line" smooth="yes"/>
      <point x="260" y="600"/>
      <point x="205" y="562"/>
      <point x="161" y="485" type="curve" smooth="yes"/>
      <point x="124" y="420"/>
      <point x="105" y="352"/>
      <point x="105" y="281" type="curve" smooth="yes"/>
      <point x="105" y="118"/>
      <point x="238" y="-12"/>
      <point x="399" y="-12" type="curve" smooth="yes"/>
      <point x="514" y="-12"/>
      <point x="592" y="31"/>
      <point x="632" y="118" type="curve" smooth="yes"/>
      <point x="659" y="176"/>
      <point x="672" y="272"/>
      <point x="672" y="405" type="curve"/>
      <point x="760" y="405" type="line"/>
      <point x="812" y="-113" type="line" smooth="yes"/>
      <point x="813" y="-124"/>
      <point x="821" y="-129"/>
    </contour>
    <contour>
      <point x="402" y="191" type="curve" smooth="yes"/>
      <point x="363" y="191"/>
      <point x="331" y="205"/>
      <point x="307" y="234" type="curve" smooth="yes"/>
      <point x="286" y="259"/>
      <point x="275" y="290"/>
      <point x="275" y="325" type="curve" smooth="yes"/>
      <point x="275" y="365"/>
      <point x="284" y="392"/>
      <point x="302" y="405" type="curve"/>
      <point x="530" y="405" type="line"/>
      <point x="534" y="390"/>
      <point x="536" y="372"/>
      <point x="536" y="353" type="curve" smooth="yes"/>
      <point x="536" y="245"/>
      <point x="491" y="191"/>
    </contour>
  </outline>
</glyph>
<glyph name="he_yudh-syriac" format="2">
  <advance width="1261"/>
  <anchor x="705" y="-150" name="b.U0325_3_2_ligComponent_1"/>
  <anchor x="225" y="-180" name="b.U0325_3_2_ligComponent_2"/>
  <anchor x="735" y="-165" name="b.U0331_2_2_ligComponent_1"/>
  <anchor x="210" y="-255" name="b.U0331_2_2_ligComponent_2"/>
  <anchor x="720" y="720" name="m.U030a_1_2_ligComponent_1"/>
  <anchor x="195" y="840" name="m.U030a_1_2_ligComponent_2"/>
  <anchor x="720" y="765" name="m.U0656_ligComponent_1"/>
  <anchor x="165" y="915" name="m.U0656_ligComponent_2"/>
  <outline>
    <component base="he-syriac" xOffset="296"/>
    <contour>
      <point x="498" y="332" type="curve"/>
      <point x="285" y="544" type="line" smooth="yes"/>
      <point x="268" y="561"/>
      <point x="254" y="570"/>
      <point x="244" y="570" type="curve" smooth="yes"/>
      <point x="221" y="570"/>
      <point x="195" y="557"/>
      <point x="168" y="532" type="curve" smooth="yes"/>
      <point x="123" y="489"/>
      <point x="100" y="455"/>
      <point x="100" y="429" type="curve" smooth="yes"/>
      <point x="100" y="416"/>
      <point x="105" y="405"/>
      <point x="116" y="396" type="curve" smooth="yes"/>
      <point x="348" y="186" type="line"/>
      <point x="340" y="244" type="line"/>
      <point x="295" y="186"/>
      <point x="108" y="-2"/>
      <point x="108" y="-35" type="curve" smooth="yes"/>
      <point x="108" y="-59"/>
      <point x="120" y="-74"/>
      <point x="145" y="-74" type="curve" smooth="yes"/>
      <point x="158" y="-74"/>
      <point x="169" y="-70"/>
      <point x="177" y="-62" type="curve" smooth="yes"/>
      <point x="384" y="171"/>
      <point x="487" y="307"/>
    </contour>
  </outline>
</glyph>
<glyph name="heth-syriac.fina" format="2">
  <advance width="1289"/>
  <note>
U071aFina
</note>
  <anchor x="765" y="570" name="class0"/>
  <anchor x="915" y="-150" name="class0_"/>
  <anchor x="735" y="555" name="class1"/>
  <anchor x="750" y="-165" name="class2"/>
  <anchor x="750" y="-150" name="class3"/>
  <outline>
    <contour>
      <point x="946" y="-12" type="curve"/>
      <point x="971" y="150" type="line"/>
      <point x="1078" y="50"/>
      <point x="1168" y="0"/>
      <point x="1239" y="0" type="curve" smooth="yes"/>
      <point x="1289" y="0" type="line"/>
      <point x="1289" y="195" type="line"/>
      <point x="1268" y="195" type="line" smooth="yes"/>
      <point x="1227" y="195"/>
      <point x="1183" y="212"/>
      <point x="1135" y="247" type="curve" smooth="yes"/>
      <point x="996" y="348"/>
      <point x="924" y="411"/>
      <point x="917" y="436" type="curve"/>
      <point x="887" y="220" type="line"/>
      <point x="806" y="220"/>
      <point x="591" y="374"/>
      <point x="591" y="433" type="curve"/>
      <point x="548" y="195" type="line"/>
      <point x="324" y="195" type="line" smooth="yes"/>
      <point x="286" y="195"/>
      <point x="250" y="211"/>
      <point x="215" y="242" type="curve" smooth="yes"/>
      <point x="199" y="256"/>
      <point x="187" y="279"/>
      <point x="178" y="312" type="curve" smooth="yes"/>
      <point x="171" y="339"/>
      <point x="164" y="352"/>
      <point x="157" y="352" type="curve" smooth="yes"/>
      <point x="146" y="352"/>
      <point x="137" y="332"/>
      <point x="130" y="291" type="curve" smooth="yes"/>
      <point x="125" y="262"/>
      <point x="122" y="237"/>
      <point x="122" y="217" type="curve" smooth="yes"/>
      <point x="122" y="139"/>
      <point x="136" y="84"/>
      <point x="164" y="52" type="curve" smooth="yes"/>
      <point x="194" y="17"/>
      <point x="247" y="0"/>
      <point x="324" y="0" type="curve" smooth="yes"/>
      <point x="630" y="0" type="line"/>
      <point x="665" y="140" type="line"/>
      <point x="680" y="108"/>
      <point x="724" y="74"/>
      <point x="795" y="38" type="curve" smooth="yes"/>
      <point x="860" y="5"/>
      <point x="911" y="-11"/>
    </contour>
  </outline>
</glyph>
<glyph name="heth-syriac.init" format="2">
  <advance width="960"/>
  <note>
U071aInit
</note>
  <anchor x="405" y="540" name="class0"/>
  <anchor x="525" y="-150" name="class0_"/>
  <anchor x="435" y="525" name="class1"/>
  <anchor x="420" y="-150" name="class2"/>
  <anchor x="405" y="-150" name="class3"/>
  <outline>
    <contour>
      <point x="604" y="-12" type="curve"/>
      <point x="630" y="150" type="line"/>
      <point x="732" y="54"/>
      <point x="820" y="0"/>
      <point x="895" y="-12" type="curve"/>
      <point x="897" y="5"/>
      <point x="898" y="29"/>
      <point x="898" y="60" type="curve" smooth="yes"/>
      <point x="898" y="130"/>
      <point x="879" y="180"/>
      <point x="842" y="210" type="curve" smooth="yes"/>
      <point x="695" y="320" type="line" smooth="yes"/>
      <point x="621" y="377"/>
      <point x="581" y="415"/>
      <point x="575" y="436" type="curve"/>
      <point x="546" y="220" type="line"/>
      <point x="463" y="220"/>
      <point x="250" y="374"/>
      <point x="250" y="433" type="curve"/>
      <point x="207" y="195" type="line"/>
      <point x="0" y="195" type="line"/>
      <point x="0" y="0" type="line"/>
      <point x="289" y="0" type="line"/>
      <point x="324" y="140" type="line"/>
      <point x="339" y="108"/>
      <point x="382" y="74"/>
      <point x="453" y="38" type="curve" smooth="yes"/>
      <point x="519" y="5"/>
      <point x="569" y="-11"/>
    </contour>
  </outline>
</glyph>
<glyph name="heth-syriac.medi" format="2">
  <advance width="948"/>
  <note>
U071aMedi
</note>
  <anchor x="420" y="540" name="class0"/>
  <anchor x="570" y="-135" name="class0_"/>
  <anchor x="420" y="525" name="class1"/>
  <anchor x="420" y="-165" name="class2"/>
  <anchor x="450" y="-150" name="class3"/>
  <outline>
    <contour>
      <point x="604" y="-12" type="curve"/>
      <point x="630" y="150" type="line"/>
      <point x="737" y="50"/>
      <point x="826" y="0"/>
      <point x="897" y="0" type="curve" smooth="yes"/>
      <point x="948" y="0" type="line"/>
      <point x="948" y="195" type="line"/>
      <point x="927" y="195" type="line" smooth="yes"/>
      <point x="886" y="195"/>
      <point x="841" y="212"/>
      <point x="794" y="247" type="curve" smooth="yes"/>
      <point x="655" y="348"/>
      <point x="582" y="411"/>
      <point x="575" y="436" type="curve"/>
      <point x="546" y="220" type="line"/>
      <point x="463" y="220"/>
      <point x="250" y="374"/>
      <point x="250" y="433" type="curve"/>
      <point x="207" y="195" type="line"/>
      <point x="0" y="195" type="line"/>
      <point x="0" y="0" type="line"/>
      <point x="289" y="0" type="line"/>
      <point x="324" y="140" type="line"/>
      <point x="339" y="108"/>
      <point x="382" y="74"/>
      <point x="453" y="38" type="curve" smooth="yes"/>
      <point x="519" y="5"/>
      <point x="569" y="-11"/>
    </contour>
  </outline>
</glyph>
<glyph name="kaph-syriac.fina" format="2">
  <advance width="981"/>
  <note>
U071fFina
</note>
  <anchor x="360" y="705" name="class0"/>
  <anchor x="315" y="-330" name="class0_"/>
  <anchor x="375" y="705" name="class1"/>
  <anchor x="285" y="-300" name="class2"/>
  <anchor x="375" y="-375" name="class3"/>
  <outline>
    <contour>
      <point x="763" y="-525" type="curve" smooth="yes"/>
      <point x="786" y="-525"/>
      <point x="807" y="-517"/>
      <point x="825" y="-501" type="curve" smooth="yes"/>
      <point x="964" y="-376" type="line" smooth="yes"/>
      <point x="985" y="-357"/>
      <point x="996" y="-341"/>
      <point x="996" y="-328" type="curve" smooth="yes"/>
      <point x="996" y="-319"/>
      <point x="993" y="-315"/>
      <point x="987" y="-315" type="curve" smooth="yes"/>
      <point x="981" y="-315"/>
      <point x="971" y="-321"/>
      <point x="958" y="-333" type="curve" smooth="yes"/>
      <point x="923" y="-364"/>
      <point x="898" y="-379"/>
      <point x="883" y="-379" type="curve" smooth="yes"/>
      <point x="873" y="-379"/>
      <point x="864" y="-374"/>
      <point x="855" y="-365" type="curve" smooth="yes"/>
      <point x="174" y="316" type="line"/>
      <point x="486" y="316" type="line" smooth="yes"/>
      <point x="531" y="316"/>
      <point x="565" y="328"/>
      <point x="588" y="351" type="curve"/>
      <point x="612" y="0" type="line"/>
      <point x="981" y="0" type="line"/>
      <point x="981" y="195" type="line"/>
      <point x="641" y="195" type="line"/>
      <point x="615" y="580" type="line" smooth="yes"/>
      <point x="612" y="613"/>
      <point x="607" y="630"/>
      <point x="598" y="630" type="curve" smooth="yes"/>
      <point x="591" y="630"/>
      <point x="585" y="623"/>
      <point x="581" y="610" type="curve" smooth="yes"/>
      <point x="569" y="574" type="line"/>
      <point x="546" y="532"/>
      <point x="511" y="511"/>
      <point x="464" y="511" type="curve" smooth="yes"/>
      <point x="252" y="511" type="line" smooth="yes"/>
      <point x="219" y="511"/>
      <point x="199" y="500"/>
      <point x="192" y="479" type="curve" smooth="yes"/>
      <point x="78" y="136" type="line"/>
      <point x="729" y="-508" type="line" smooth="yes"/>
      <point x="740" y="-519"/>
      <point x="752" y="-525"/>
    </contour>
  </outline>
</glyph>
<glyph name="kaph-syriac.init" format="2">
  <advance width="883"/>
  <note>
U071fInit
</note>
  <anchor x="450" y="750" name="class0"/>
  <anchor x="450" y="-150" name="class0_"/>
  <anchor x="465" y="720" name="class1"/>
  <anchor x="480" y="-165" name="class2"/>
  <anchor x="450" y="-135" name="class3"/>
  <outline>
    <contour>
      <point x="0" y="0" type="line"/>
      <point x="714" y="0" type="line" smooth="yes"/>
      <point x="747" y="0"/>
      <point x="775" y="19"/>
      <point x="797" y="58" type="curve" smooth="yes"/>
      <point x="816" y="91"/>
      <point x="825" y="125"/>
      <point x="825" y="161" type="curve" smooth="yes"/>
      <point x="825" y="214"/>
      <point x="811" y="271"/>
      <point x="782" y="331" type="curve" smooth="yes"/>
      <point x="755" y="388"/>
      <point x="720" y="436"/>
      <point x="679" y="475" type="curve" smooth="yes"/>
      <point x="584" y="566"/>
      <point x="500" y="612"/>
      <point x="425" y="612" type="curve" smooth="yes"/>
      <point x="362" y="612"/>
      <point x="311" y="564"/>
      <point x="272" y="468" type="curve" smooth="yes"/>
      <point x="242" y="395"/>
      <point x="227" y="347"/>
      <point x="227" y="324" type="curve" smooth="yes"/>
      <point x="227" y="309"/>
      <point x="234" y="301"/>
      <point x="248" y="301" type="curve" smooth="yes"/>
      <point x="251" y="301"/>
      <point x="261" y="309"/>
      <point x="278" y="326" type="curve" smooth="yes"/>
      <point x="326" y="374" type="line"/>
      <point x="347" y="392"/>
      <point x="371" y="401"/>
      <point x="398" y="401" type="curve" smooth="yes"/>
      <point x="446" y="401"/>
      <point x="496" y="373"/>
      <point x="547" y="318" type="curve" smooth="yes"/>
      <point x="596" y="265"/>
      <point x="620" y="230"/>
      <point x="618" y="213" type="curve" smooth="yes"/>
      <point x="617" y="201"/>
      <point x="599" y="195"/>
      <point x="564" y="195" type="curve" smooth="yes"/>
      <point x="0" y="195" type="line"/>
    </contour>
  </outline>
</glyph>
<glyph name="kaph-syriac.medi" format="2">
  <advance width="844"/>
  <note>
U071fMedi
</note>
  <anchor x="435" y="750" name="class0"/>
  <anchor x="450" y="-150" name="class0_"/>
  <anchor x="450" y="735" name="class1"/>
  <anchor x="465" y="-180" name="class2"/>
  <anchor x="450" y="-135" name="class3"/>
  <outline>
    <contour>
      <point x="0" y="0" type="line"/>
      <point x="767" y="0" type="line"/>
      <point x="796" y="46" type="line"/>
      <point x="810" y="0" type="line"/>
      <point x="844" y="0" type="line"/>
      <point x="844" y="195" type="line"/>
      <point x="818" y="195" type="line"/>
      <point x="806" y="301"/>
      <point x="758" y="394"/>
      <point x="674" y="475" type="curve" smooth="yes"/>
      <point x="579" y="566"/>
      <point x="495" y="612"/>
      <point x="420" y="612" type="curve" smooth="yes"/>
      <point x="357" y="612"/>
      <point x="306" y="564"/>
      <point x="267" y="468" type="curve" smooth="yes"/>
      <point x="237" y="395"/>
      <point x="222" y="347"/>
      <point x="222" y="324" type="curve" smooth="yes"/>
      <point x="222" y="309"/>
      <point x="229" y="301"/>
      <point x="243" y="301" type="curve" smooth="yes"/>
      <point x="246" y="301"/>
      <point x="256" y="309"/>
      <point x="273" y="326" type="curve" smooth="yes"/>
      <point x="321" y="374" type="line"/>
      <point x="342" y="392"/>
      <point x="366" y="401"/>
      <point x="393" y="401" type="curve" smooth="yes"/>
      <point x="441" y="401"/>
      <point x="491" y="373"/>
      <point x="542" y="318" type="curve" smooth="yes"/>
      <point x="589" y="267"/>
      <point x="612" y="232"/>
      <point x="611" y="214" type="curve" smooth="yes"/>
      <point x="610" y="201"/>
      <point x="602" y="195"/>
      <point x="587" y="195" type="curve" smooth="yes"/>
      <point x="0" y="195" type="line"/>
    </contour>
  </outline>
</glyph>
<glyph name="kashida-ar.half" format="2">
  <advance width="180"/>
  <anchor x="60" y="-150" name="class0"/>
  <outline>
    <contour>
      <point x="-70" y="0" type="line"/>
      <point x="180" y="0" type="line"/>
      <point x="180" y="195" type="line"/>
      <point x="-70" y="195" type="line"/>
    </contour>
  </outline>
</glyph>
<glyph name="kashida-ar.quarter" format="2">
  <advance width="90"/>
  <anchor x="60" y="-150" name="class0"/>
  <outline>
    <contour>
      <point x="0" y="0" type="line"/>
      <point x="90" y="0" type="line"/>
      <point x="90" y="195" type="line"/>
      <point x="0" y="195" type="line"/>
    </contour>
  </outline>
</glyph>
<glyph name="kashida-ar.threequarter" format="2">
  <advance width="329"/>
  <anchor x="165" y="-150" name="class0"/>
  <outline>
    <contour>
      <point x="0" y="0" type="line"/>
      <point x="332" y="0" type="line"/>
      <point x="332" y="195" type="line"/>
      <point x="0" y="195" type="line"/>
    </contour>
  </outline>
</glyph>
<glyph name="lamadh-syriac.init" format="2">
  <advance width="890"/>
  <anchor x="495" y="-150" name="b.U0325_3"/>
  <anchor x="495" y="-135" name="b.U0331_2"/>
  <anchor x="495" y="-150" name="b.U0740"/>
  <anchor x="630" y="945" name="m.U030a_1"/>
  <anchor x="645" y="930" name="t.U0656"/>
  <outline>
    <contour>
      <point x="0" y="0" type="line"/>
      <point x="711" y="0" type="line" smooth="yes"/>
      <point x="811" y="0"/>
      <point x="861" y="46"/>
      <point x="861" y="137" type="curve" smooth="yes"/>
      <point x="861" y="165"/>
      <point x="844" y="207"/>
      <point x="811" y="264" type="curve" smooth="yes"/>
      <point x="415" y="925" type="line" smooth="yes"/>
      <point x="397" y="955"/>
      <point x="388" y="985"/>
      <point x="388" y="1014" type="curve" smooth="yes"/>
      <point x="388" y="1031"/>
      <point x="393" y="1052"/>
      <point x="404" y="1078" type="curve" smooth="yes"/>
      <point x="420" y="1117" type="line"/>
      <point x="420" y="1129"/>
      <point x="412" y="1135"/>
      <point x="395" y="1135" type="curve" smooth="yes"/>
      <point x="374" y="1135"/>
      <point x="313" y="1073"/>
      <point x="210" y="948" type="curve" smooth="yes"/>
      <point x="196" y="931"/>
      <point x="189" y="914"/>
      <point x="189" y="897" type="curve" smooth="yes"/>
      <point x="189" y="872"/>
      <point x="201" y="842"/>
      <point x="226" y="805" type="curve" smooth="yes"/>
      <point x="638" y="195" type="line"/>
      <point x="0" y="195" type="line"/>
    </contour>
  </outline>
</glyph>
<glyph name="lamadh-syriac.medi" format="2">
  <advance width="986"/>
  <note>
U0720Medi
</note>
  <anchor x="660" y="945" name="class0"/>
  <anchor x="510" y="-150" name="class0_"/>
  <anchor x="645" y="930" name="class1"/>
  <anchor x="480" y="-150" name="class2"/>
  <anchor x="495" y="-150" name="class3"/>
  <outline>
    <contour>
      <point x="0" y="0" type="line"/>
      <point x="607" y="0" type="line" smooth="yes"/>
      <point x="634" y="0"/>
      <point x="655" y="6"/>
      <point x="669" y="18" type="curve"/>
      <point x="704" y="62" type="line"/>
      <point x="743" y="21"/>
      <point x="791" y="0"/>
      <point x="848" y="0" type="curve" smooth="yes"/>
      <point x="986" y="0" type="line"/>
      <point x="986" y="195" type="line"/>
      <point x="942" y="195" type="line" smooth="yes"/>
      <point x="884" y="195"/>
      <point x="841" y="218"/>
      <point x="814" y="264" type="curve" smooth="yes"/>
      <point x="418" y="925" type="line" smooth="yes"/>
      <point x="400" y="955"/>
      <point x="391" y="985"/>
      <point x="391" y="1014" type="curve" smooth="yes"/>
      <point x="391" y="1031"/>
      <point x="396" y="1052"/>
      <point x="407" y="1078" type="curve" smooth="yes"/>
      <point x="423" y="1117" type="line"/>
      <point x="423" y="1129"/>
      <point x="415" y="1135"/>
      <point x="398" y="1135" type="curve" smooth="yes"/>
      <point x="377" y="1135"/>
      <point x="316" y="1073"/>
      <point x="213" y="948" type="curve" smooth="yes"/>
      <point x="199" y="931"/>
      <point x="192" y="914"/>
      <point x="192" y="897" type="curve" smooth="yes"/>
      <point x="192" y="872"/>
      <point x="204" y="842"/>
      <point x="229" y="805" type="curve" smooth="yes"/>
      <point x="641" y="195" type="line"/>
      <point x="0" y="195" type="line"/>
    </contour>
  </outline>
</glyph>
<glyph name="lamadh_alaph-syriac.fina" format="2">
  <advance width="1491"/>
  <anchor x="1024" y="-150" name="b.U0325_3_2_ligComponent_1"/>
  <anchor x="439" y="-150" name="b.U0325_3_2_ligComponent_2"/>
  <anchor x="1039" y="-165" name="b.U0331_2_2_ligComponent_1"/>
  <anchor x="439" y="-165" name="b.U0331_2_2_ligComponent_2"/>
  <anchor x="1084" y="1005" name="m.U030a_1_2_ligComponent_1"/>
  <anchor x="349" y="960" name="m.U030a_1_2_ligComponent_2"/>
  <anchor x="1144" y="990" name="m.U0656_ligComponent_1"/>
  <anchor x="304" y="1005" name="m.U0656_ligComponent_2"/>
  <outline>
    <component base="alaph-syriac.ccmp" xOffset="-11"/>
    <contour>
      <point x="699" y="875" type="curve" smooth="yes"/>
      <point x="700" y="852"/>
      <point x="911" y="530"/>
      <point x="1165" y="164" type="curve" smooth="yes"/>
      <point x="1244" y="50"/>
      <point x="1298" y="0"/>
      <point x="1438" y="0" type="curve" smooth="yes"/>
      <point x="1511" y="0" type="line"/>
      <point x="1511" y="195" type="line"/>
      <point x="1436" y="195" type="line" smooth="yes"/>
      <point x="1347" y="195"/>
      <point x="1283" y="298"/>
      <point x="1023" y="751" type="curve" smooth="yes"/>
      <point x="904" y="958"/>
      <point x="882" y="1013"/>
      <point x="868" y="1123" type="curve" smooth="yes"/>
      <point x="867" y="1128"/>
      <point x="866" y="1134"/>
      <point x="863" y="1134" type="curve" smooth="yes"/>
      <point x="845" y="1134"/>
      <point x="695" y="949"/>
    </contour>
    <contour>
      <point x="1238" y="195" type="curve"/>
      <point x="539" y="195" type="line"/>
      <point x="539" y="0" type="line"/>
      <point x="1119" y="0" type="line" smooth="yes"/>
      <point x="1204" y="0"/>
      <point x="1238" y="65"/>
    </contour>
  </outline>
</glyph>
<glyph name="mim-syriac.fina" format="2">
  <advance width="1009"/>
  <note>
U0721Fina
</note>
  <anchor x="585" y="750" name="class0"/>
  <anchor x="555" y="-135" name="class0_"/>
  <anchor x="630" y="735" name="class1"/>
  <anchor x="615" y="-150" name="class2"/>
  <anchor x="600" y="-165" name="class3"/>
  <outline>
    <contour>
      <point x="189" y="-154" type="curve" smooth="yes"/>
      <point x="198" y="-154"/>
      <point x="208" y="-147"/>
      <point x="218" y="-134" type="curve" smooth="yes"/>
      <point x="316" y="0" type="line"/>
      <point x="1009" y="0" type="line"/>
      <point x="1009" y="195" type="line"/>
      <point x="999" y="195"/>
      <point x="990" y="224"/>
      <point x="982" y="282" type="curve" smooth="yes"/>
      <point x="973" y="337"/>
      <point x="969" y="393"/>
      <point x="969" y="450" type="curve" smooth="yes"/>
      <point x="969" y="496"/>
      <point x="972" y="533"/>
      <point x="979" y="562" type="curve" smooth="yes"/>
      <point x="985" y="590"/>
      <point x="988" y="610"/>
      <point x="988" y="622" type="curve" smooth="yes"/>
      <point x="988" y="641"/>
      <point x="980" y="650"/>
      <point x="965" y="650" type="curve" smooth="yes"/>
      <point x="952" y="650"/>
      <point x="936" y="642"/>
      <point x="916" y="625" type="curve" smooth="yes"/>
      <point x="896" y="608"/>
      <point x="878" y="600"/>
      <point x="863" y="600" type="curve" smooth="yes"/>
      <point x="302" y="600" type="line" smooth="yes"/>
      <point x="251" y="600"/>
      <point x="217" y="614"/>
      <point x="201" y="642" type="curve" smooth="yes"/>
      <point x="185" y="670"/>
      <point x="168" y="684"/>
      <point x="150" y="684" type="curve" smooth="yes"/>
      <point x="137" y="684"/>
      <point x="131" y="672"/>
      <point x="131" y="647" type="curve" smooth="yes"/>
      <point x="131" y="483" type="line" smooth="yes"/>
      <point x="131" y="431"/>
      <point x="169" y="405"/>
      <point x="244" y="405" type="curve" smooth="yes"/>
      <point x="464" y="405" type="line"/>
      <point x="181" y="-96" type="line" smooth="yes"/>
      <point x="172" y="-112"/>
      <point x="167" y="-124"/>
      <point x="167" y="-131" type="curve" smooth="yes"/>
      <point x="168" y="-146"/>
      <point x="175" y="-154"/>
    </contour>
    <contour>
      <point x="450" y="195" type="line"/>
      <point x="564" y="405" type="line"/>
      <point x="803" y="405" type="line"/>
      <point x="803" y="195" type="line"/>
    </contour>
  </outline>
</glyph>
<glyph name="mim-syriac.init" format="2">
  <advance width="1074"/>
  <anchor x="510" y="-120" name="b.U0325_3"/>
  <anchor x="540" y="-135" name="b.U0331_2"/>
  <anchor x="690" y="-120" name="b.U0740"/>
  <anchor x="510" y="750" name="m.U030a_1"/>
  <anchor x="510" y="765" name="t.U0656"/>
  <outline>
    <contour>
      <point x="469" y="220" type="line"/>
      <point x="504" y="452" type="line"/>
      <point x="216" y="633" type="line"/>
      <point x="221" y="660"/>
      <point x="223" y="684"/>
      <point x="223" y="705" type="curve" smooth="yes"/>
      <point x="223" y="722"/>
      <point x="217" y="731"/>
      <point x="204" y="731" type="curve" smooth="yes"/>
      <point x="192" y="731"/>
      <point x="183" y="721"/>
      <point x="177" y="701" type="curve" smooth="yes"/>
      <point x="120" y="532" type="line" smooth="yes"/>
      <point x="116" y="520"/>
      <point x="114" y="510"/>
      <point x="114" y="503" type="curve" smooth="yes"/>
      <point x="114" y="474"/>
      <point x="136" y="447"/>
      <point x="177" y="419" type="curve" smooth="yes"/>
    </contour>
    <contour>
      <point x="717" y="179" type="curve" smooth="yes"/>
      <point x="656" y="179"/>
      <point x="598" y="245"/>
      <point x="598" y="309" type="curve" smooth="yes"/>
      <point x="598" y="373"/>
      <point x="647" y="431"/>
      <point x="707" y="431" type="curve" smooth="yes"/>
      <point x="767" y="431"/>
      <point x="818" y="361"/>
      <point x="818" y="297" type="curve" smooth="yes"/>
      <point x="818" y="235"/>
      <point x="779" y="179"/>
    </contour>
    <contour>
      <point x="522" y="195" type="curve"/>
      <point x="-20" y="195" type="line"/>
      <point x="-20" y="0" type="line"/>
      <point x="371" y="0" type="line" smooth="yes"/>
      <point x="446" y="0"/>
      <point x="495" y="65"/>
    </contour>
    <contour>
      <point x="355" y="626"/>
      <point x="315" y="-10"/>
      <point x="706" y="-10" type="curve" smooth="yes"/>
      <point x="1124" y="-10"/>
      <point x="1056" y="626"/>
      <point x="714" y="626" type="curve" smooth="yes"/>
    </contour>
  </outline>
</glyph>
